<?xml version="1.0" encoding="UTF-8" standalone="no"?>
<svg
   width="819mm"
   height="479mm"
   viewBox="-174 -239 819 479"
   version="1.1"
   id="svg1"
   sodipodi:docname="plaque_complete.svg"
   inkscape:version="1.3 (1:1.3+202307231459+0e150ed6c4)"
   xmlns:inkscape="http://www.inkscape.org/namespaces/inkscape"
   xmlns:sodipodi="http://sodipodi.sourceforge.net/DTD/sodipodi-0.dtd"
   xmlns="http://www.w3.org/2000/svg"
   xmlns:svg="http://www.w3.org/2000/svg"
   xmlns:rdf="http://www.w3.org/1999/02/22-rdf-syntax-ns#"
   xmlns:cc="http://creativecommons.org/ns#"
   xmlns:dc="http://purl.org/dc/elements/1.1/">
  <defs
     id="defs1" />
  <sodipodi:namedview
     id="namedview1"
     pagecolor="#ffffff"
     bordercolor="#000000"
     borderopacity="0.25"
     inkscape:showpageshadow="2"
     inkscape:pageopacity="0.0"
     inkscape:pagecheckerboard="0"
     inkscape:deskcolor="#d1d1d1"
     inkscape:document-units="mm"
     inkscape:zoom="0.24746133"
     inkscape:cx="893.06881"
     inkscape:cy="1222.4132"
     inkscape:window-width="1920"
     inkscape:window-height="1031"
     inkscape:window-x="0"
     inkscape:window-y="25"
     inkscape:window-maximized="1"
     inkscape:current-layer="svg1" />
  <title
     id="title1">OpenSCAD Model</title>
  <path
     id="path17"
     style="fill:#ffaaaa"
     d="M -2.0905965 -19.890377 L -6.1802694 -19.021179 L -8.5305135 -17.974731 L -6.5301188 -14.51086 L -7.9997965 -13.856637 L -9.3015259 -12.910958 L -11.301404 -16.374829 L -13.382414 -14.862777 L -16.180176 -11.755473 L -16.425639 -11.330693 L -12.980371 -9.3416667 L -14.580273 -6.5707764 L -18.025541 -8.5598022 L -18.271004 -8.1345052 L -19.562915 -4.1580037 L -19.831632 -1.6000203 L -15.831877 -1.6000203 L -15.999825 -0.0001180013 L -15.831877 1.5997843 L -19.831632 1.5997843 L -19.562915 4.1582845 L -18.271004 8.134786 L -18.025541 8.5595662 L -14.580273 6.5705404 L -12.980371 9.3419474 L -16.425639 11.330973 L -16.180176 11.755754 L -13.382414 14.863057 L -11.301404 16.37511 L -9.3015259 12.910722 L -7.9997965 13.856401 L -6.5301188 14.510624 L -8.5305135 17.975012 L -6.1802694 19.020943 L -2.0905965 19.890658 L -1.6001872 19.890658 L -1.6001872 15.912089 L 1.6001343 15.912089 L 1.6001343 19.890658 L 2.0905436 19.890658 L 6.1802165 19.020943 L 8.5304606 17.975012 L 6.5300659 14.510624 L 7.9997437 13.856401 L 9.301473 12.910722 L 11.301351 16.37511 L 13.382361 14.863057 L 16.180123 11.755754 L 16.425586 11.330973 L 12.980318 9.3419474 L 14.580737 6.5705404 L 18.025488 8.5595662 L 18.270951 8.134786 L 19.562862 4.1582845 L 19.83158 1.5997843 L 15.831824 1.5997843 L 15.999772 -0.0001180013 L 15.831824 -1.6000203 L 19.83158 -1.6000203 L 19.562862 -4.1580037 L 18.270951 -8.1345052 L 18.025488 -8.5598022 L 14.580737 -6.5707764 L 12.980318 -9.3416667 L 16.425586 -11.330693 L 16.180123 -11.755473 L 13.382361 -14.862777 L 11.301351 -16.374829 L 9.301473 -12.910958 L 7.9997437 -13.856637 L 6.5300659 -14.51086 L 8.5304606 -17.974731 L 6.1802165 -19.021179 L 2.0905436 -19.890377 L 1.6001343 -19.890377 L 1.6001343 -15.912325 L -1.6001872 -15.912325 L -1.6001872 -19.890377 L -2.0905965 -19.890377 z M -0.92684326 -2.8531738 L 0.92679036 -2.8531738 L 2.4269572 -1.7633179 L 3.0000488 -0.0001180013 L 2.4269572 1.7635986 L 0.92679036 2.8529378 L -0.92684326 2.8529378 L -2.4270101 1.7635986 L -3.0001017 -0.0001180013 L -2.4270101 -1.7633179 L -0.92684326 -2.8531738 z " />
  <path
     id="path15"
     style="fill:#ffaaaa"
     d="M -72.508521 -23.868429 L -77.416231 -22.825081 L -80.530253 -21.439119 L -76.530497 -14.51086 L -78.000175 -13.856637 L -79.301388 -12.910958 L -83.30166 -19.839217 L -86.059115 -17.835722 L -89.416532 -14.10675 L -89.870768 -13.319718 L -82.98075 -9.3416667 L -84.580652 -6.5707764 L -91.470671 -10.548828 L -91.924906 -9.7617961 L -93.475716 -4.9899943 L -93.831767 -1.6000203 L -85.831738 -1.6000203 L -86.000203 -0.0001180013 L -85.831738 1.5997843 L -93.831767 1.5997843 L -93.475716 4.9897583 L -91.924906 9.7615601 L -91.470671 10.548592 L -84.580652 6.5705404 L -82.98075 9.3419474 L -89.870768 13.319999 L -89.416532 14.107031 L -86.059115 17.835486 L -83.30166 19.838981 L -79.301388 12.910722 L -78.000175 13.856401 L -76.530497 14.510624 L -80.530253 21.438883 L -77.416231 22.825362 L -72.508521 23.868709 L -71.600049 23.868709 L -71.600049 15.912089 L -68.400244 15.912089 L -68.400244 23.868709 L -67.491256 23.868709 L -62.583545 22.825362 L -59.469523 21.438883 L -63.469796 14.510624 L -62.000118 13.856401 L -60.698389 12.910722 L -56.698633 19.838981 L -53.940662 17.835486 L -50.583761 14.107031 L -50.129008 13.319999 L -57.019543 9.3419474 L -55.419641 6.5705404 L -48.529106 10.548592 L -48.07487 9.7615601 L -46.524577 4.9897583 L -46.168009 1.5997843 L -54.168038 1.5997843 L -54.00009 -0.0001180013 L -54.168038 -1.6000203 L -46.168009 -1.6000203 L -46.524577 -4.9899943 L -48.07487 -9.7617961 L -48.529106 -10.548828 L -55.419641 -6.5707764 L -57.019543 -9.3416667 L -50.129008 -13.319718 L -50.583761 -14.10675 L -53.940662 -17.835722 L -56.698633 -19.839217 L -60.698389 -12.910958 L -62.000118 -13.856637 L -63.469796 -14.51086 L -59.469523 -21.439119 L -62.583545 -22.825081 L -67.491256 -23.868429 L -68.400244 -23.868429 L -68.400244 -15.912325 L -71.600049 -15.912325 L -71.600049 -23.868429 L -72.508521 -23.868429 z M -70.927222 -2.8531738 L -69.073071 -2.8531738 L -67.572904 -1.7633179 L -66.999813 -0.0001180013 L -67.572904 1.7635986 L -69.073071 2.8529378 L -70.927222 2.8529378 L -72.426872 1.7635986 L -72.999963 -0.0001180013 L -72.426872 -1.7633179 L -70.927222 -2.8531738 z " />
  <path
     id="path13"
     style="fill:#ffaaaa"
     d="M -143.5538 -33.813558 L -150.50686 -32.336129 L -155.52981 -30.099056 L -151.53005 -23.170797 L -153.00025 -22.516573 L -154.30198 -21.570894 L -158.30225 -28.499154 L -162.75004 -25.266793 L -167.50686 -19.984945 L -168.48406 -18.292542 L -161.59301 -14.31449 L -163.19291 -11.543083 L -170.08396 -15.521134 L -171.06116 -13.829248 L -173.25689 -7.0689372 L -173.83205 -1.6000203 L -165.83202 -1.6000203 L -165.99997 -0.0001180013 L -165.83202 1.5997843 L -173.83205 1.5997843 L -173.25689 7.0692179 L -171.06116 13.829012 L -170.08396 15.521415 L -163.19291 11.542847 L -161.59301 14.314254 L -168.48406 18.292306 L -167.50686 19.984709 L -162.75004 25.267074 L -158.30225 28.499434 L -154.30198 21.571175 L -153.00025 22.516854 L -151.53005 23.171077 L -155.52981 30.099337 L -150.50686 32.335893 L -143.5538 33.813839 L -141.59991 33.813839 L -141.59991 25.857735 L -138.40011 25.857735 L -138.40011 33.813839 L -136.44622 33.813839 L -129.49316 32.335893 L -124.47021 30.099337 L -128.46996 23.171077 L -126.99977 22.516854 L -125.69804 21.571175 L -121.69777 28.499434 L -117.24998 25.267074 L -112.49316 19.984709 L -111.51596 18.292306 L -118.40701 14.314254 L -116.80711 11.542847 L -109.91606 15.521415 L -108.93885 13.829012 L -106.74312 7.0692179 L -106.16796 1.5997843 L -114.16799 1.5997843 L -114.00004 -0.0001180013 L -114.16799 -1.6000203 L -106.16796 -1.6000203 L -106.74312 -7.0689372 L -108.93885 -13.829248 L -109.91606 -15.521134 L -116.80711 -11.543083 L -118.40701 -14.31449 L -111.51596 -18.292542 L -112.49316 -19.984945 L -117.24998 -25.266793 L -121.69777 -28.499154 L -125.69804 -21.570894 L -126.99977 -22.516573 L -128.46996 -23.170797 L -124.47021 -30.099056 L -129.49316 -32.336129 L -136.44622 -33.813558 L -138.40011 -33.813558 L -138.40011 -25.857454 L -141.59991 -25.857454 L -141.59991 -33.813558 L -143.5538 -33.813558 z M -140.92708 -2.8531738 L -139.07293 -2.8531738 L -137.57277 -1.7633179 L -137.00019 -0.0001180013 L -137.57277 1.7635986 L -139.07293 2.8529378 L -140.92708 2.8529378 L -142.42725 1.7635986 L -142.99983 -0.0001180013 L -142.42725 -1.7633179 L -140.92708 -2.8531738 z " />
  <path
     d="m 322.262,229.193 0.039,-12.901 0.17,-7.854 0.357,-9.055 0.618,-10.204 0.954,-11.299 1.366,-12.338 1.848,-13.323 2.409,-14.256 3.042,-15.131 1.966,-9.899 0.92,-5.181 0.547,-4.174 0.653,-9.4276 L 337.488,90 h -27.907 l 0.003,8.4 H 326 v 3.2 h -16.415 l 0.018,56.8 H 316 v 3.2 h -6.396 l 0.022,66.8 H 316 v 3.2 h -6.373 l 0.003,7.842 h 12.67 z"
     id="path22"
     style="fill:#ffaaaa" />
  <path
     d="m 422.262,229.193 0.039,-12.901 0.17,-7.854 0.357,-9.055 0.618,-10.204 0.954,-11.299 1.366,-12.338 1.848,-13.323 2.409,-14.256 3.042,-15.131 1.966,-9.899 0.92,-5.181 0.547,-4.174 0.653,-9.4276 L 437.488,90 h -27.907 l 0.003,8.4 h 16.274 v 3.2 h -16.273 l 0.018,56.8 h 6.309 v 3.2 h -6.308 l 0.022,66.8 h 6.286 v 3.2 h -6.285 l 0.003,7.842 h 12.67 z"
     id="path21"
     style="fill:#ffaaaa" />
  <path
     d="m 522.262,229.193 0.039,-12.901 0.17,-7.854 0.357,-9.055 0.618,-10.204 0.954,-11.299 1.366,-12.338 1.848,-13.323 2.409,-14.256 3.042,-15.131 1.966,-9.899 0.92,-5.181 0.547,-4.174 0.653,-9.4276 L 537.488,90 h -27.907 l 0.003,8.4 H 526 v 3.2 h -16.415 l 0.018,56.8 H 516 v 3.2 h -6.396 l 0.022,66.8 H 516 v 3.2 h -6.373 l 0.003,7.842 h 12.67 z"
     id="path20"
     style="fill:#ffaaaa" />
  <path
     d="m -50,50 h -50 v 50 h 50 z"
     id="path19"
     style="fill:#ffaaaa" />
  <path
     d="m 190.373,231.6 h -6.285 v -3.2 h 6.286 l 0.022,-66.8 h -6.308 v -3.2 h 6.309 l 0.018,-56.8 h -16.273 v -3.2 h 16.274 L 190.419,90 H 171.132 V -30 h 19.297 l -0.02,-68.4 h -16.267 v -3.2 h 16.266 l -0.015,-56.8 h -6.305 v -3.2 h 6.304 l -0.019,-66.8 h -6.285 v -3.2 h 6.284 l -0.002,-6.766 h -11.822 l -0.077,10.138 -0.299,6.494 -0.62,9.281 -1.039,18.503 -0.799,11.467 -1.152,10.932 -1.429,10.459 -1.629,10.047 -1.752,9.696 -1.799,9.408 -3.43,18.194 -2.473,14.956 -2.001,14.1904 -1.57,13.6504 -1.181,13.333 -0.835,13.2432 -0.532,13.376 -0.272,13.7363 -0.053,14.32127 0.086,3.367188 0.199,1.943362 0.547,2.34863 0.119,1.72168 -0.102,1.9043 0.048,0.94336 0.17,0.86811 0.18,0.8985 0.078,1.04 -0.128,1.085 -0.271,1.0312 -0.269,1.0782 -0.124,1.2265 0.124,1.3438 0.285,1.3877 0.306,1.4746 0.186,1.6045 -0.051,1.4179 -0.209,1.1446 -0.22,1.25 -0.088,1.7412 0.209,2.3603 0.434,2.6944 0.461,2.7968 0.285,2.6641 -0.045,2.2891 -0.253,2.0058 -0.253,1.9893 -0.044,2.2402 0.405,2.8447 0.715,3.3428 0.658,3.4151 0.195,1.6015 0.045,1.46 -0.113,5.501 0.058,2.7392 0.191,2.71 0.372,2.708 0.519,2.7529 1.153,5.6904 0.89,6.3692 0.495,6.0957 0.653,9.4276 0.547,4.174 0.92,5.181 1.966,9.899 3.042,15.131 2.409,14.256 1.848,13.323 1.366,12.338 0.954,11.299 0.618,10.204 0.357,9.055 0.17,7.854 0.039,12.901 -0.038,10.249 h 12.67 z"
     id="path12"
     style="fill:#ffaaaa" />
  <path
     d="m 222.262,229.193 0.039,-12.901 0.17,-7.854 0.357,-9.055 0.618,-10.204 0.954,-11.299 1.366,-12.338 1.848,-13.323 2.409,-14.256 3.042,-15.131 1.966,-9.899 0.92,-5.181 0.547,-4.174 0.653,-9.4276 0.495,-6.0957 0.89,-6.3692 1.153,-5.6904 0.519,-2.7529 0.372,-2.708 0.191,-2.71 0.058,-2.7392 -0.113,-5.501 0.045,-1.46 0.195,-1.6015 0.658,-3.4151 0.715,-3.3428 0.405,-2.8447 -0.044,-2.2402 -0.253,-1.9893 -0.253,-2.0058 -0.045,-2.2891 0.285,-2.6641 0.461,-2.7968 0.434,-2.6944 0.209,-2.3603 -0.088,-1.7412 -0.22,-1.25 -0.209,-1.1446 -0.051,-1.4179 0.185,-1.6045 0.307,-1.4746 0.285,-1.3877 0.124,-1.3438 -0.124,-1.2265 -0.269,-1.0782 -0.271,-1.0312 -0.128,-1.085 0.078,-1.04 0.18,-0.8985 0.17,-0.86811 0.048,-0.94336 -0.102,-1.9043 0.119,-1.72168 0.547,-2.34863 0.199,-1.943362 0.086,-3.367188 -0.053,-14.32127 -0.272,-13.7363 -0.532,-13.376 -0.835,-13.2432 -1.182,-13.333 -1.569,-13.6504 -2.001,-14.1904 -2.473,-14.956 -3.43,-18.194 -1.799,-9.408 -1.752,-9.696 -1.629,-10.047 -1.429,-10.459 -1.152,-10.932 -0.799,-11.467 -1.039,-18.503 -0.62,-9.281 -0.299,-6.494 -0.077,-10.138 H 209.63 l -0.002,6.766 h 6.284 v 3.2 h -6.285 l -0.019,66.8 h 6.304 v 3.2 h -6.305 l -0.016,56.8 h 16.267 v 3.2 h -16.267 l -0.02,68.4 h 19.297 V 90 h -19.287 l 0.003,8.4 h 16.274 v 3.2 h -16.273 l 0.018,56.8 h 6.309 v 3.2 h -6.308 l 0.022,66.8 h 6.286 v 3.2 h -6.285 l 0.003,7.842 h 12.67 z"
     id="path11"
     style="fill:#ffaaaa" />
  <path
     d="M 290.373,231.6 H 284 v -3.2 h 6.374 l 0.022,-66.8 H 284 v -3.2 h 6.397 l 0.018,-56.8 H 274 v -3.2 h 16.416 L 290.419,90 H 271.132 V -30 h 19.297 l -0.02,-68.4 H 274 v -3.2 h 16.408 l -0.015,-56.8 H 284 v -3.2 h 6.392 l -0.019,-66.8 H 284 v -3.2 h 6.372 l -0.002,-6.766 h -11.822 l -0.077,10.138 -0.299,6.494 -0.62,9.281 -1.039,18.503 -0.799,11.467 -1.152,10.932 -1.429,10.459 -1.629,10.047 -1.752,9.696 -1.799,9.408 -3.43,18.194 -2.473,14.956 -2.001,14.1904 -1.57,13.6504 -1.181,13.333 -0.835,13.2432 -0.532,13.376 -0.272,13.7363 -0.053,14.32127 0.086,3.367188 0.199,1.943362 0.547,2.34863 0.119,1.72168 -0.102,1.9043 0.048,0.94336 0.17,0.86811 0.18,0.8985 0.078,1.04 -0.128,1.085 -0.271,1.0312 -0.269,1.0782 -0.124,1.2265 0.124,1.3438 0.285,1.3877 0.306,1.4746 0.186,1.6045 -0.051,1.4179 -0.209,1.1446 -0.22,1.25 -0.088,1.7412 0.209,2.3603 0.434,2.6944 0.461,2.7968 0.285,2.6641 -0.045,2.2891 -0.253,2.0058 -0.253,1.9893 -0.044,2.2402 0.405,2.8447 0.715,3.3428 0.658,3.4151 0.195,1.6015 0.045,1.46 -0.113,5.501 0.058,2.7392 0.191,2.71 0.372,2.708 0.519,2.7529 1.153,5.6904 0.89,6.3692 0.495,6.0957 0.653,9.4276 0.547,4.174 0.92,5.181 1.966,9.899 3.042,15.131 2.409,14.256 1.848,13.323 1.366,12.338 0.954,11.299 0.618,10.204 0.357,9.055 0.17,7.854 0.039,12.901 -0.038,10.249 h 12.67 z"
     id="path10"
     style="fill:#ffaaaa" />
  <path
     d="m 328.868,-38 h -4.042 v -54 h 14.082 l -0.958,-6.791 -2.473,-14.956 -3.43,-18.194 -1.799,-9.408 -1.752,-9.696 -1.629,-10.047 -1.429,-10.459 -1.152,-10.932 -0.799,-11.467 -1.039,-18.503 -0.62,-9.281 -0.299,-6.494 -0.077,-10.138 H 309.63 l -0.002,6.766 H 316 v 3.2 h -6.373 l -0.019,66.8 H 316 v 3.2 h -6.393 l -0.016,56.8 H 326 v 3.2 h -16.409 l -0.02,68.4 h 19.297 z"
     id="path9"
     style="fill:#ffaaaa" />
  <path
     d="m 390.373,231.6 h -6.285 v -3.2 h 6.286 l 0.022,-66.8 h -6.308 v -3.2 h 6.309 l 0.018,-56.8 h -16.273 v -3.2 h 16.274 L 390.419,90 H 375 V -30 h 15.429 l -0.02,-68.4 h -16.267 v -3.2 h 16.266 l -0.015,-56.8 h -6.305 v -3.2 h 6.304 l -0.019,-66.8 h -6.285 v -3.2 h 6.284 l -0.002,-6.766 h -11.822 l -0.077,10.138 -0.299,6.494 -0.62,9.281 -1.039,18.503 -0.799,11.467 -1.152,10.932 -1.429,10.459 -1.629,10.047 -1.752,9.696 -1.799,9.408 -3.43,18.194 -2.473,14.956 -2.001,14.1904 -1.57,13.6504 -1.181,13.333 -0.835,13.2432 -0.532,13.376 -0.272,13.7363 -0.053,14.32127 0.086,3.367188 0.199,1.943362 0.547,2.34863 0.119,1.72168 -0.102,1.9043 0.048,0.94336 0.17,0.86811 0.18,0.8985 0.078,1.04 -0.128,1.085 -0.271,1.0312 -0.269,1.0782 -0.124,1.2265 0.124,1.3438 0.285,1.3877 0.306,1.4746 0.186,1.6045 -0.051,1.4179 -0.209,1.1446 -0.22,1.25 -0.088,1.7412 0.209,2.3603 0.434,2.6944 0.461,2.7968 0.285,2.6641 -0.045,2.2891 -0.253,2.0058 -0.253,1.9893 -0.044,2.2402 0.405,2.8447 0.715,3.3428 0.658,3.4151 0.195,1.6015 0.045,1.46 -0.113,5.501 0.058,2.7392 0.191,2.71 0.372,2.708 0.519,2.7529 1.153,5.6904 0.89,6.3692 0.495,6.0957 0.653,9.4276 0.547,4.174 0.92,5.181 1.966,9.899 3.042,15.131 2.409,14.256 1.848,13.323 1.366,12.338 0.954,11.299 0.618,10.204 0.357,9.055 0.17,7.854 0.039,12.901 -0.038,10.249 h 12.67 z"
     id="path8"
     style="fill:#ffaaaa" />
  <path
     d="m 425,-38 h -3.5 v -54 h 17.408 l -0.958,-6.791 -2.473,-14.956 -3.43,-18.194 -1.799,-9.408 -1.752,-9.696 -1.629,-10.047 -1.429,-10.459 -1.152,-10.932 -0.799,-11.467 -1.039,-18.503 -0.62,-9.281 -0.299,-6.494 -0.077,-10.138 H 409.63 l -0.002,6.766 h 6.284 v 3.2 h -6.285 l -0.019,66.8 h 6.304 v 3.2 h -6.305 l -0.016,56.8 h 16.267 v 3.2 h -16.267 l -0.02,68.4 H 425 Z"
     id="path7"
     style="fill:#ffaaaa" />
  <path
     d="M 490.373,231.6 H 484 v -3.2 h 6.374 l 0.022,-66.8 H 484 v -3.2 h 6.397 l 0.018,-56.8 H 474 v -3.2 h 16.416 L 490.419,90 H 471.132 V -30 h 19.297 l -0.02,-68.4 H 474 v -3.2 h 16.408 l -0.015,-56.8 H 484 v -3.2 h 6.392 l -0.019,-66.8 H 484 v -3.2 h 6.372 l -0.002,-6.766 h -11.822 l -0.077,10.138 -0.299,6.494 -0.62,9.281 -1.039,18.503 -0.799,11.467 -1.152,10.932 -1.429,10.459 -1.629,10.047 -1.752,9.696 -1.799,9.408 -3.43,18.194 -2.473,14.956 -2.001,14.1904 -1.57,13.6504 -1.181,13.333 -0.835,13.2432 -0.532,13.376 -0.272,13.7363 -0.053,14.32127 0.086,3.367188 0.199,1.943362 0.547,2.34863 0.119,1.72168 -0.102,1.9043 0.048,0.94336 0.17,0.86811 0.18,0.8985 0.078,1.04 -0.128,1.085 -0.271,1.0312 -0.269,1.0782 -0.124,1.2265 0.124,1.3438 0.285,1.3877 0.306,1.4746 0.186,1.6045 -0.051,1.4179 -0.209,1.1446 -0.22,1.25 -0.088,1.7412 0.209,2.3603 0.434,2.6944 0.461,2.7968 0.285,2.6641 -0.045,2.2891 -0.253,2.0058 -0.253,1.9893 -0.044,2.2402 0.405,2.8447 0.715,3.3428 0.658,3.4151 0.195,1.6015 0.045,1.46 -0.113,5.501 0.058,2.7392 0.191,2.71 0.372,2.708 0.519,2.7529 1.153,5.6904 0.89,6.3692 0.495,6.0957 0.653,9.4276 0.547,4.174 0.92,5.181 1.966,9.899 3.042,15.131 2.409,14.256 1.848,13.323 1.366,12.338 0.954,11.299 0.618,10.204 0.357,9.055 0.17,7.854 0.039,12.901 -0.038,10.249 h 12.67 z"
     id="path6"
     style="fill:#ffaaaa" />
  <path
     d="m 528.868,-38 h -4.042 v -54 h 14.082 l -0.958,-6.791 -2.473,-14.956 -3.43,-18.194 -1.799,-9.408 -1.752,-9.696 -1.629,-10.047 -1.429,-10.459 -1.152,-10.932 -0.799,-11.467 -1.039,-18.503 -0.62,-9.281 -0.299,-6.494 -0.077,-10.138 H 509.63 l -0.002,6.766 H 516 v 3.2 h -6.373 l -0.019,66.8 H 516 v 3.2 h -6.393 l -0.016,56.8 H 526 v 3.2 h -16.409 l -0.02,68.4 h 19.297 z"
     id="path5"
     style="fill:#ffaaaa" />
  <path
     d="m 590.373,231.6 h -6.285 v -3.2 h 6.286 l 0.022,-66.8 h -6.308 v -3.2 h 6.309 l 0.018,-56.8 h -16.273 v -3.2 h 16.274 L 590.419,90 H 571.132 V -30 h 19.297 l -0.02,-68.4 h -16.267 v -3.2 h 16.266 l -0.015,-56.8 h -6.305 v -3.2 h 6.304 l -0.019,-66.8 h -6.285 v -3.2 h 6.284 l -0.002,-6.766 h -11.822 l -0.077,10.138 -0.299,6.494 -0.62,9.281 -1.039,18.503 -0.799,11.467 -1.152,10.932 -1.429,10.459 -1.629,10.047 -1.752,9.696 -1.799,9.408 -3.43,18.194 -2.473,14.956 -2.001,14.1904 -1.57,13.6504 -1.181,13.333 -0.835,13.2432 -0.532,13.376 -0.272,13.7363 -0.053,14.32127 0.086,3.367188 0.199,1.943362 0.547,2.34863 0.119,1.72168 -0.102,1.9043 0.048,0.94336 0.17,0.86811 0.18,0.8985 0.078,1.04 -0.128,1.085 -0.271,1.0312 -0.269,1.0782 -0.124,1.2265 0.124,1.3438 0.285,1.3877 0.306,1.4746 0.186,1.6045 -0.051,1.4179 -0.209,1.1446 -0.22,1.25 -0.088,1.7412 0.209,2.3603 0.434,2.6944 0.461,2.7968 0.285,2.6641 -0.045,2.2891 -0.253,2.0058 -0.253,1.9893 -0.044,2.2402 0.405,2.8447 0.715,3.3428 0.658,3.4151 0.195,1.6015 0.045,1.46 -0.113,5.501 0.058,2.7392 0.191,2.71 0.372,2.708 0.519,2.7529 1.153,5.6904 0.89,6.3692 0.495,6.0957 0.653,9.4276 0.547,4.174 0.92,5.181 1.966,9.899 3.042,15.131 2.409,14.256 1.848,13.323 1.366,12.338 0.954,11.299 0.618,10.204 0.357,9.055 0.17,7.854 0.039,12.901 -0.038,10.249 h 12.67 z"
     id="path4"
     style="fill:#ffaaaa" />
  <path
     d="m 622.262,229.193 0.039,-12.901 0.17,-7.854 0.357,-9.055 0.618,-10.204 0.954,-11.299 1.366,-12.338 1.848,-13.323 2.409,-14.256 3.042,-15.131 1.966,-9.899 0.92,-5.181 0.547,-4.174 0.653,-9.4276 0.495,-6.0957 0.89,-6.3692 1.153,-5.6904 0.519,-2.7529 0.372,-2.708 0.191,-2.71 0.058,-2.7392 -0.113,-5.501 0.045,-1.46 0.195,-1.6015 0.658,-3.4151 0.715,-3.3428 0.405,-2.8447 -0.044,-2.2402 -0.253,-1.9893 -0.253,-2.0058 -0.045,-2.2891 0.285,-2.6641 0.461,-2.7968 0.434,-2.6944 0.209,-2.3603 -0.088,-1.7412 -0.22,-1.25 -0.209,-1.1446 -0.051,-1.4179 0.185,-1.6045 0.307,-1.4746 0.285,-1.3877 0.124,-1.3438 -0.124,-1.2265 -0.269,-1.0782 -0.271,-1.0312 -0.128,-1.085 0.078,-1.04 0.18,-0.8985 0.17,-0.86811 0.048,-0.94336 -0.102,-1.9043 0.119,-1.72168 0.547,-2.34863 0.199,-1.943362 0.086,-3.367188 -0.053,-14.32127 -0.272,-13.7363 -0.532,-13.376 -0.835,-13.2432 -1.182,-13.333 -1.569,-13.6504 -2.001,-14.1904 -2.473,-14.956 -3.43,-18.194 -1.799,-9.408 -1.752,-9.696 -1.629,-10.047 -1.429,-10.459 -1.152,-10.932 -0.799,-11.467 -1.039,-18.503 -0.62,-9.281 -0.299,-6.494 -0.077,-10.138 H 609.63 l -0.002,6.766 h 6.284 v 3.2 h -6.285 l -0.019,66.8 h 6.304 v 3.2 h -6.305 l -0.016,56.8 h 16.267 v 3.2 h -16.267 l -0.02,68.4 h 19.297 V 90 h -19.287 l 0.003,8.4 h 16.274 v 3.2 h -16.273 l 0.018,56.8 h 6.309 v 3.2 h -6.308 l 0.022,66.8 h 6.286 v 3.2 h -6.285 l 0.003,7.842 h 12.67 z"
     id="path3"
     style="fill:#ffaaaa" />
  <path
     d="M 90.3727,231.6 H 84 v -3.2 h 6.3737 l 0.0219,-66.8 H 84 v -3.2 h 6.3967 l 0.0186,-56.8 H 74 V 98.4 H 90.4164 L 90.4191,90 H 75 V -30 H 90.4286 L 90.4094,-98.4 H 74 v -3.2 h 16.4085 l -0.016,-56.8 H 84 v -3.2 h 6.3916 l -0.0187,-66.8 H 84 v -3.2 h 6.372 l -0.0019,-6.766 H 78.5479 l -0.0772,10.138 -0.2988,6.494 -0.6201,9.281 -1.0391,18.503 -0.7988,11.467 -1.1524,10.932 -1.4287,10.459 -1.6289,10.047 -1.7519,9.696 -1.7989,9.408 -3.4297,18.194 -2.4736,14.956 -2.001,14.1904 -1.5693,13.6504 -1.1816,13.333 -0.835,13.2432 -0.5322,13.376 -0.2715,13.7363 -0.0528,14.32127 0.086,3.367188 0.1982,1.943362 0.5469,2.34863 0.1191,1.72168 -0.1015,1.9043 0.0478,0.94336 0.17,0.86811 0.1796,0.8985 0.0782,1.04 -0.128,1.085 -0.2705,1.0312 -0.2695,1.0782 -0.124,1.2265 0.124,1.3438 0.2852,1.3877 0.3066,1.4746 0.1855,1.6045 -0.0507,1.4179 -0.209,1.1446 -0.2207,1.25 -0.0879,1.7412 0.209,2.3603 0.4345,2.6944 0.461,2.7968 0.2851,2.6641 -0.0449,2.2891 -0.2529,2.0058 -0.2539,1.9893 -0.044,2.2402 0.4053,2.8447 0.7148,3.3428 0.6582,3.4151 0.1954,1.6015 0.0449,1.46 -0.1133,5.501 0.0576,2.7392 0.1914,2.71 0.3721,2.708 0.5185,2.7529 1.1534,5.6904 0.8896,6.3692 0.4951,6.0957 0.6534,9.4276 0.5468,4.174 0.92,5.181 1.9658,9.899 3.042,15.131 2.4091,14.256 1.8487,13.323 1.3652,12.338 0.9541,11.299 0.6182,10.204 0.3574,9.055 0.1699,7.854 0.0391,12.901 -0.0381,10.249 h 12.6699 z"
     id="path2"
     style="fill:#ffaaaa" />
  <path
     d="m 122.262,229.193 0.039,-12.901 0.17,-7.854 0.357,-9.055 0.618,-10.204 0.954,-11.299 1.366,-12.338 1.848,-13.323 2.409,-14.256 3.042,-15.131 1.966,-9.899 0.92,-5.181 0.547,-4.174 0.653,-9.4276 0.495,-6.0957 0.89,-6.3692 1.153,-5.6904 0.519,-2.7529 0.372,-2.708 0.191,-2.71 0.058,-2.7392 -0.113,-5.501 0.045,-1.46 0.195,-1.6015 0.658,-3.4151 0.715,-3.3428 0.405,-2.8447 -0.044,-2.2402 -0.253,-1.9893 -0.253,-2.0058 -0.045,-2.2891 0.285,-2.6641 0.461,-2.7968 0.434,-2.6944 0.209,-2.3603 -0.088,-1.7412 -0.22,-1.25 -0.209,-1.1446 -0.051,-1.4179 0.186,-1.6045 0.306,-1.4746 0.285,-1.3877 0.124,-1.3438 -0.124,-1.2265 -0.269,-1.0782 -0.271,-1.0312 -0.128,-1.085 0.078,-1.04 0.18,-0.8985 0.17,-0.86811 0.048,-0.94336 -0.102,-1.9043 0.119,-1.72168 0.547,-2.34863 0.199,-1.943362 0.086,-3.367188 -0.053,-14.32127 -0.272,-13.7363 -0.532,-13.376 -0.835,-13.2432 -1.181,-13.333 -1.57,-13.6504 -2.001,-14.1904 -2.473,-14.956 -3.43,-18.194 -1.799,-9.408 -1.752,-9.696 -1.629,-10.047 -1.429,-10.459 -1.152,-10.932 -0.799,-11.467 -1.039,-18.503 -0.62,-9.281 -0.299,-6.494 -0.077,-10.138 H 109.63 l -0.002,6.766 H 116 v 3.2 h -6.373 l -0.019,66.8 H 116 v 3.2 h -6.393 l -0.016,56.8 H 126 v 3.2 h -16.409 l -0.02,68.4 H 125 V 90 h -15.419 l 0.003,8.4 H 126 v 3.2 h -16.415 l 0.018,56.8 H 116 v 3.2 h -6.396 l 0.022,66.8 H 116 v 3.2 h -6.373 l 0.003,7.842 h 12.67 z"
     id="path1"
     style="fill:#ffaaaa" />
  <path
     id="path23"
     style="fill:#ffaaaa"
     d="m -127.17263,-114.71145 -6.95306,1.47742 -5.02295,2.23708 3.99976,6.92826 -1.4702,0.65422 -1.30173,0.94568 -4.00027,-6.92826 -4.44779,3.23236 -4.75682,5.28185 -0.9772,1.692402 6.89105,3.978052 -1.5999,2.771407 -6.89105,-3.978051 -0.9772,1.691886 -2.19573,6.760311 -0.57516,5.468916 h 8.00003 l -0.16795,1.599903 0.16795,1.599902 h -8.00003 l 0.57516,5.469434 2.19573,6.759794 0.9772,1.692403 6.89105,-3.978568 1.5999,2.771407 -6.89105,3.978052 0.9772,1.692403 4.75682,5.282365 4.44779,3.23236 4.00027,-6.928259 1.30173,0.945679 1.4702,0.654223 -3.99976,6.92826 5.02295,2.236556 6.95306,1.477946 h 1.95389 v -7.956104 h 3.1998 v 7.956104 h 1.95389 l 6.95306,-1.477946 5.02295,-2.236556 -3.99975,-6.92826 1.47019,-0.654223 1.30173,-0.945679 4.00027,6.928259 4.44779,-3.23236 4.756819,-5.282365 0.9772,-1.692403 -6.891049,-3.978052 1.5999,-2.771407 6.891049,3.978568 0.97721,-1.692403 2.19573,-6.759794 0.57516,-5.469434 h -8.00003 l 0.16795,-1.599902 -0.16795,-1.599903 h 8.00003 l -0.57516,-5.468916 -2.19573,-6.760311 -0.97721,-1.691886 -6.891049,3.978051 -1.5999,-2.771407 6.891049,-3.978052 -0.9772,-1.692402 -4.756819,-5.28185 -4.44779,-3.23236 -4.00027,6.92826 -1.30173,-0.94568 -1.47019,-0.65422 3.99975,-6.92826 -5.02295,-2.23708 -6.95306,-1.47742 h -1.95389 v 7.9561 h -3.1998 v -7.9561 z m 2.62672,30.96038 h 1.85415 l 1.50016,1.089856 0.57258,1.7632 -0.57258,1.763716 -1.50016,1.08934 h -1.85415 l -1.50017,-1.08934 -0.57258,-1.763716 0.57258,-1.7632 z" />
  <path
     id="path24"
     style="fill:#ffaaaa"
     d="m -52.508633,-93.242595 -4.90771,1.043348 -3.114022,1.385962 3.999756,6.928259 -1.469678,0.654223 -1.301213,0.945679 -4.000272,-6.928259 -2.757455,2.003495 -3.357417,3.728972 -0.454236,0.787032 6.890018,3.978051 -1.599902,2.770891 -6.890019,-3.978052 -0.454235,0.787032 -1.55081,4.771802 -0.356051,3.389974 h 8.000029 l -0.168465,1.599902 0.168465,1.599902 h -8.000029 l 0.356051,3.389974 1.55081,4.771802 0.454235,0.787032 6.890019,-3.978051 1.599902,2.771407 -6.890018,3.978051 0.454236,0.787032 3.357417,3.728455 2.757455,2.003495 4.000272,-6.928259 1.301213,0.945679 1.469678,0.654223 -3.999756,6.928259 3.114022,1.386479 4.90771,1.043347 h 0.908472 v -7.95662 h 3.199805 v 7.95662 h 0.908988 l 4.907711,-1.043347 3.114022,-1.386479 -4.000273,-6.928259 1.469678,-0.654223 1.301729,-0.945679 3.999756,6.928259 2.757971,-2.003495 3.356901,-3.728455 0.454753,-0.787032 -6.890535,-3.978051 1.599902,-2.771407 6.890535,3.978051 0.454236,-0.787032 1.550293,-4.771802 0.356568,-3.389974 h -8.000029 l 0.167948,-1.599902 -0.167948,-1.599902 h 8.000029 l -0.356568,-3.389974 -1.550293,-4.771802 -0.454236,-0.787032 -6.890535,3.978052 -1.599902,-2.770891 6.890535,-3.978051 -0.454753,-0.787032 -3.356901,-3.728972 -2.757971,-2.003495 -3.999756,6.928259 -1.301729,-0.945679 -1.469678,-0.654223 4.000273,-6.928259 -3.114022,-1.385962 -4.907711,-1.043348 h -0.908988 v 7.956104 h -3.199805 v -7.956104 z m 1.581299,21.015255 h 1.854151 l 1.500167,1.089856 0.573091,1.7632 -0.573091,1.763717 -1.500167,1.089339 h -1.854151 l -1.49965,-1.089339 -0.573091,-1.763717 0.573091,-1.7632 z" />
  <path
     id="path25"
     style="fill:#ffaaaa"
     d="m -2.0905965,-74.659108 -4.0896729,0.869198 -2.3502441,1.046448 2.0003947,3.463871 -1.4696777,0.654223 -1.3017294,0.945679 -1.9998781,-3.463871 -2.08101,1.512052 -2.797762,3.107304 -0.245463,0.42478 3.445268,1.989026 -1.599902,2.770891 -3.445268,-1.989026 -0.245463,0.425297 -1.291911,3.976501 -0.268717,2.557984 h 3.999755 l -0.167948,1.599902 0.167948,1.599902 h -3.999755 l 0.268717,2.5585 1.291911,3.976502 0.245463,0.42478 3.445268,-1.989026 1.599902,2.771407 -3.445268,1.989026 0.245463,0.424781 2.797762,3.107303 2.08101,1.512053 1.9998781,-3.464388 1.3017294,0.945679 1.4696777,0.654223 -2.0003947,3.464388 2.3502441,1.045931 4.0896729,0.869715 h 0.4904093 v -3.978569 h 3.2003215 v 3.978569 h 0.4904093 l 4.0896729,-0.869715 2.3502441,-1.045931 -2.0003947,-3.464388 1.4696778,-0.654223 1.3017293,-0.945679 1.999878,3.464388 2.08101,-1.512053 2.797762,-3.107303 0.245463,-0.424781 -3.445268,-1.989026 1.600419,-2.771407 3.444751,1.989026 0.245463,-0.42478 1.291911,-3.976502 0.268718,-2.5585 h -3.999756 l 0.167948,-1.599902 -0.167948,-1.599902 h 3.999756 l -0.268718,-2.557984 -1.291911,-3.976501 -0.245463,-0.425297 -3.444751,1.989026 -1.600419,-2.770891 3.445268,-1.989026 -0.245463,-0.42478 -2.797762,-3.107304 -2.08101,-1.512052 -1.999878,3.463871 -1.3017293,-0.945679 -1.4696778,-0.654223 2.0003947,-3.463871 -2.3502441,-1.046448 -4.0896729,-0.869198 H 1.6001343 v 3.978052 h -3.2003215 v -3.978052 z m 1.16375324,17.037203 h 1.85363362 l 1.50016684,1.089856 0.5730916,1.7632 -0.5730916,1.763717 -1.50016684,1.089339 h -1.85363362 l -1.50016684,-1.089339 -0.5730916,-1.763717 0.5730916,-1.7632 z" />
  <metadata
     id="metadata25">
    <rdf:RDF>
      <cc:Work
         rdf:about="">
        <dc:title>OpenSCAD Model</dc:title>
      </cc:Work>
    </rdf:RDF>
  </metadata>
  <text
     xml:space="preserve"
     style="font-size:19.7556px;font-family:Uroob;-inkscape-font-specification:'Uroob, Normal';fill:#00ff00;stroke:#000000;stroke-width:0.1;stroke-linecap:square"
     x="-106.16797"
     y="-178.51149"
     id="text25"><tspan
       sodipodi:role="line"
       id="tspan25"
       style="stroke-width:0.1"
       x="-106.16797"
       y="-178.51149">3.3mm</tspan></text>
</svg>
