<?xml version="1.0" encoding="UTF-8" standalone="no"?>
<!-- Created with Inkscape (http://www.inkscape.org/) -->

<svg
   width="478.30801mm"
   height="938.76971mm"
   viewBox="0 0 478.30801 938.76971"
   version="1.1"
   id="svg5"
   inkscape:version="1.3 (1:1.3+202307231459+0e150ed6c4)"
   xml:space="preserve"
   sodipodi:docname="plaque_complete_3mm.svg"
   xmlns:inkscape="http://www.inkscape.org/namespaces/inkscape"
   xmlns:sodipodi="http://sodipodi.sourceforge.net/DTD/sodipodi-0.dtd"
   xmlns:xlink="http://www.w3.org/1999/xlink"
   xmlns="http://www.w3.org/2000/svg"
   xmlns:svg="http://www.w3.org/2000/svg"><sodipodi:namedview
     id="namedview7"
     pagecolor="#ffffff"
     bordercolor="#000000"
     borderopacity="0.25"
     inkscape:showpageshadow="2"
     inkscape:pageopacity="0.0"
     inkscape:pagecheckerboard="0"
     inkscape:deskcolor="#d1d1d1"
     inkscape:document-units="mm"
     showgrid="true"
     inkscape:zoom="0.23415625"
     inkscape:cx="548.77886"
     inkscape:cy="702.52235"
     inkscape:window-width="1920"
     inkscape:window-height="1031"
     inkscape:window-x="0"
     inkscape:window-y="25"
     inkscape:window-maximized="1"
     inkscape:current-layer="layer1" /><defs
     id="defs2" /><g
     inkscape:label="Layer 1"
     inkscape:groupmode="layer"
     id="layer1"
     transform="translate(-10.85983,319.39867)"><path
       d="m 21.35883,236.989 12.901,0.039 7.854,0.17 9.055,0.357 10.204,0.618 11.299,0.954 12.338,1.366 13.323,1.848 14.256,2.409 15.131,3.042 9.899,1.966 5.181,0.92 4.174,0.547 9.4276,0.653 4.1504,0.337 v -27.907 l -8.55,0.003 v 16.416 h -2.9 v -16.415 l -57.1,0.018 v 6.397 h -2.9 v -6.396 l -67.1,0.022 v 6.374 h -2.9 v -6.373 l -7.992,0.003 v 12.67 z"
       id="path18"
       style="fill:#c8beb7;stroke:#000000;stroke-width:0.1;stroke-dasharray:none" /><path
       d="m 21.35883,356.989 12.901,0.039 7.854,0.17 9.055,0.357 10.204,0.618 11.299,0.954 12.338,1.366 13.323,1.848 14.256,2.409 15.131,3.042 9.899,1.966 5.181,0.92 4.174,0.547 9.4276,0.653 4.1504,0.337 v -27.907 l -8.55,0.003 v 16.274 h -2.9 v -16.273 l -57.1,0.018 v 6.309 h -2.9 v -6.308 l -67.1,0.022 v 6.286 h -2.9 v -6.285 l -7.992,0.003 v 12.67 z"
       id="path17"
       style="fill:#c8beb7;stroke:#000000;stroke-width:0.1;stroke-dasharray:none" /><path
       d="m 21.35883,476.989 12.901,0.039 7.854,0.17 9.055,0.357 10.204,0.618 11.299,0.954 12.338,1.366 13.323,1.848 14.256,2.409 15.131,3.042 9.899,1.966 5.181,0.92 4.174,0.547 9.4276,0.653 4.1504,0.337 v -27.907 l -8.55,0.003 v 16.416 h -2.9 v -16.415 l -57.1,0.018 v 6.397 h -2.9 v -6.396 l -67.1,0.022 v 6.374 h -2.9 v -6.373 l -7.992,0.003 v 12.67 z"
       id="path16"
       style="fill:#c8beb7;stroke:#000000;stroke-width:0.1;stroke-dasharray:none" /><path
       d="m 51.208472,-134.4186 v 2.9 h -3.9781 v 0.64056 l 0.8693,4.08977 1.1076,2.48773 3.4641,-2 0.593,1.33194 0.857,1.17953 -3.4641,1.99997 1.6006,2.2031 3.1072,2.7977 0.5548,0.3203 1.989,-3.4451 2.51148,1.45 -1.98905,3.4451 0.55475,0.3203 3.97649,1.292 2.70823,0.2847 v -4 l 1.45,0.1524 1.45,-0.1524 v 4 l 2.70823,-0.2847 3.97649,-1.292 0.55475,-0.3203 -1.98905,-3.4451 2.51148,-1.45 1.989,3.4451 0.5548,-0.3203 3.1072,-2.7977 1.6006,-2.2031 -3.4641,-1.99997 0.857,-1.17953 0.593,-1.33194 3.4641,2 1.1076,-2.48773 0.8693,-4.08977 v -0.64056 h -3.9781 v -2.9 h 3.9781 v -0.64056 l -0.8693,-4.08977 -1.1076,-2.48773 -3.4641,2 -0.593,-1.33194 -0.857,-1.17953 3.4641,-1.99997 -1.6006,-2.2031 -3.1072,-2.7977 -0.5548,-0.3203 -1.989,3.4451 -2.51148,-1.45 1.98905,-3.4451 -0.55475,-0.3203 -3.97649,-1.292 -2.70823,-0.2847 v 4 l -1.45,-0.1524 -1.45,0.1524 v -4 l -2.70823,0.2847 -3.97649,1.292 -0.55475,0.3203 1.98905,3.4451 -2.51148,1.45 -1.989,-3.4451 -0.5548,0.3203 -3.1072,2.7977 -1.6006,2.2031 3.4641,1.99997 -0.857,1.17953 -0.593,1.33194 -3.4641,-2 -1.1076,2.48773 -0.8693,4.08977 v 0.64056 z"
       id="path15"
       style="fill:#c8beb7;stroke:#000000;stroke-width:0.1;stroke-dasharray:none" /><path
       d="m 51.208472,-204.4186 v 2.9 h -7.9562 v 1.0587 l 1.0432,4.9077 1.4477,3.2517 6.9282,-4 0.593,1.3319 0.857,1.1796 -6.9282,4 2.0921,2.8795 3.7287,3.3573 0.9168,0.5294 3.9781,-6.8903 2.51148,1.45 -3.97808,6.8903 0.91683,0.5293 4.7718,1.5505 3.53987,0.372 v -8 l 1.45,0.1524 1.45,-0.1524 v 8 l 3.53987,-0.372 4.7718,-1.5505 0.91683,-0.5293 -3.97808,-6.8903 2.51148,-1.45 3.9781,6.8903 0.9168,-0.5294 3.7287,-3.3573 2.0921,-2.8795 -6.9282,-4 0.857,-1.1796 0.593,-1.3319 6.9282,4 1.4477,-3.2517 1.0432,-4.9077 v -1.0587 h -7.9562 v -2.9 h 7.9562 v -1.0587 l -1.0432,-4.9077 -1.4477,-3.2517 -6.9282,4 -0.593,-1.3319 -0.857,-1.1795 6.9282,-4 -2.0921,-2.8796 -3.7287,-3.3573 -0.9168,-0.5293 -3.9781,6.8902 -2.51148,-1.45 3.97808,-6.8902 -0.91683,-0.5294 -4.7718,-1.5504 -3.53987,-0.3721 v 8 l -1.45,-0.1524 -1.45,0.1524 v -8 l -3.53987,0.3721 -4.7718,1.5504 -0.91683,0.5294 3.97808,6.8902 -2.51148,1.45 -3.9781,-6.8902 -0.9168,0.5293 -3.7287,3.3573 -2.0921,2.8796 6.9282,4 -0.857,1.1795 -0.593,1.3319 -6.9282,-4 -1.4477,3.2517 -1.0432,4.9077 v 1.0587 z"
       id="path14"
       style="fill:#c8beb7;stroke:#000000;stroke-width:0.1;stroke-dasharray:none" /><path
       d="m 41.263172,-274.4186 v 2.9 h -7.9561 v 2.104 l 1.4778,6.953 2.298,5.161 6.9282,-4 0.5931,1.332 0.8569,1.18 -6.9282,4 3.321,4.57 5.2822,4.757 1.8221,1.052 3.9781,-6.891 2.5115,1.45 -3.9781,6.891 1.8221,1.052 6.76002,2.196 5.61898,0.591 v -8 l 1.45,0.152 1.45,-0.152 v 8 l 5.61898,-0.591 6.76002,-2.196 1.8221,-1.052 -3.9781,-6.891 2.5115,-1.45 3.9781,6.891 1.8221,-1.052 5.2822,-4.757 3.321,-4.57 -6.9282,-4 0.8569,-1.18 0.5931,-1.332 6.9282,4 2.298,-5.161 1.477798,-6.953 v -2.104 h -7.956098 v -2.9 h 7.956098 v -2.104 l -1.477798,-6.953 -2.298,-5.161 -6.9282,4 -0.5931,-1.332 -0.8569,-1.18 6.9282,-4 -3.321,-4.57 -5.2822,-4.757 -1.8221,-1.052 -3.9781,6.891 -2.5115,-1.45 3.9781,-6.891 -1.8221,-1.052 -6.76002,-2.196 -5.61898,-0.591 v 8 l -1.45,-0.152 -1.45,0.152 v -8 l -5.61898,0.591 -6.76002,2.196 -1.8221,1.052 3.9781,6.891 -2.5115,1.45 -3.9781,-6.891 -1.8221,1.052 -5.2822,4.757 -3.321,4.57 6.9282,4 -0.8569,1.18 -0.5931,1.332 -6.9282,-4 -2.298,5.161 -1.4778,6.953 v 2.104 z"
       id="path13"
       style="fill:#c8beb7;stroke:#000000;stroke-width:0.1;stroke-dasharray:none" /><path
       d="m 19.10183,85.1 v -6.285 h 2.9 v 6.286 l 67.1,0.022 v -6.308 h 2.9 v 6.309 l 57.1,0.018 V 68.869 h 2.9 v 16.274 l 8.55,0.003 V 65.859 h 120 v 19.297 l 68.55,-0.02 V 68.869 h 2.9 v 16.267 l 57.1,-0.016 v -6.305 h 2.9 v 6.304 l 67.1,-0.019 v -6.285 h 2.9 v 6.284 l 6.916,-0.002 V 73.275 l -10.138,-0.077 -6.494,-0.299 -9.281,-0.62 -18.503,-1.039 -11.467,-0.799 -10.932,-1.152 -10.459,-1.429 -10.047,-1.629 -9.696,-1.752 -9.408,-1.799 -18.194,-3.43 -14.956,-2.473 -14.1904,-2.001 -13.6504,-1.57 -13.333,-1.181 -13.2432,-0.835 -13.376,-0.532 -13.7363,-0.272 -14.32127,-0.053 -3.36718,0.086 -1.94337,0.199 -2.34863,0.547 -1.72168,0.119 -1.9043,-0.102 -0.94336,0.048 -0.86811,0.17 -0.8985,0.18 -1.04,0.078 -1.085,-0.128 -1.0312,-0.271 -1.0782,-0.269 -1.2265,-0.124 -1.3438,0.124 -1.3877,0.285 -1.4746,0.306 -1.6045,0.186 -1.4179,-0.051 -1.1446,-0.209 -1.25,-0.22 -1.7412,-0.088 -2.3603,0.209 -2.6944,0.434 -2.7968,0.461 -2.6641,0.285 -2.2891,-0.045 -2.0058,-0.253 -1.9893,-0.253 -2.2402,-0.044 -2.8447,0.405 -3.3428,0.715 -3.4151,0.658 -1.6015,0.195 -1.46,0.045 -5.501,-0.113 -2.7392,0.058 -2.71,0.191 -2.708,0.372 -2.7529,0.519 -5.6904,1.153 -6.3692,0.89 -6.0957,0.495 -9.4276,0.653 -4.174,0.547 -5.181,0.92 -9.899,1.966 -15.131,3.042 -14.256,2.409 -13.323,1.848 -12.338,1.366 -11.299,0.954 -10.204,0.618 -9.055,0.357 -7.854,0.17 -12.901,0.039 -10.249,-0.038 v 12.67 z"
       id="path12"
       style="fill:#c8beb7;stroke:#000000;stroke-width:0.1;stroke-dasharray:none" /><path
       d="m 21.35883,116.989 12.901,0.039 7.854,0.17 9.055,0.357 10.204,0.618 11.299,0.954 12.338,1.366 13.323,1.848 14.256,2.409 15.131,3.042 9.899,1.966 5.181,0.92 4.174,0.547 9.4276,0.653 6.0957,0.495 6.3692,0.89 5.6904,1.153 2.7529,0.519 2.708,0.372 2.71,0.191 2.7392,0.058 5.501,-0.113 1.46,0.045 1.6015,0.195 3.4151,0.658 3.3428,0.715 2.8447,0.405 2.2402,-0.044 1.9893,-0.253 2.0058,-0.253 2.2891,-0.045 2.6641,0.285 2.7968,0.461 2.6944,0.434 2.3603,0.209 1.7412,-0.088 1.25,-0.22 1.1446,-0.209 1.4179,-0.051 1.6045,0.185 1.4746,0.307 1.3877,0.285 1.3438,0.124 1.2265,-0.124 1.0782,-0.269 1.0312,-0.271 1.085,-0.128 1.04,0.078 0.8985,0.18 0.86811,0.17 0.94336,0.048 1.9043,-0.102 1.72168,0.119 2.34863,0.547 1.94337,0.199 3.36718,0.086 14.32127,-0.053 13.7363,-0.272 13.376,-0.532 13.2432,-0.835 13.333,-1.182 13.6504,-1.569 14.1904,-2.001 14.956,-2.473 18.194,-3.43 9.408,-1.799 9.696,-1.752 10.047,-1.629 10.459,-1.429 10.932,-1.152 11.467,-0.799 18.503,-1.039 9.281,-0.62 6.494,-0.299 10.138,-0.077 v -11.822 l -6.916,-0.002 v 6.284 h -2.9 v -6.285 l -67.1,-0.019 v 6.304 h -2.9 v -6.305 l -57.1,-0.016 v 16.267 h -2.9 v -16.267 l -68.55,-0.02 v 19.297 h -120 v -19.287 l -8.55,0.003 v 16.274 h -2.9 v -16.273 l -57.1,0.018 v 6.309 h -2.9 v -6.308 l -67.1,0.022 v 6.286 h -2.9 v -6.285 l -7.992,0.003 v 12.67 z"
       id="path11"
       style="fill:#c8beb7;stroke:#000000;stroke-width:0.1;stroke-dasharray:none" /><path
       d="m 19.10183,205.1 v -6.373 h 2.9 v 6.374 l 67.1,0.022 v -6.396 h 2.9 v 6.397 l 57.1,0.018 v -16.415 h 2.9 v 16.416 l 8.55,0.003 v -19.287 h 120 v 19.297 l 68.55,-0.02 v -16.409 h 2.9 v 16.409 l 57.1,-0.016 v -6.393 h 2.9 v 6.392 l 67.1,-0.019 v -6.373 h 2.9 v 6.372 l 6.916,-0.002 v -11.822 l -10.138,-0.077 -6.494,-0.299 -9.281,-0.62 -18.503,-1.039 -11.467,-0.799 -10.932,-1.152 -10.459,-1.429 -10.047,-1.629 -9.696,-1.752 -9.408,-1.799 -18.194,-3.43 -14.956,-2.473 -14.1904,-2.001 -13.6504,-1.57 -13.333,-1.181 -13.2432,-0.835 -13.376,-0.532 -13.7363,-0.272 -14.32127,-0.053 -3.36718,0.086 -1.94337,0.199 -2.34863,0.547 -1.72168,0.119 -1.9043,-0.102 -0.94336,0.048 -0.86811,0.17 -0.8985,0.18 -1.04,0.078 -1.085,-0.128 -1.0312,-0.271 -1.0782,-0.269 -1.2265,-0.124 -1.3438,0.124 -1.3877,0.285 -1.4746,0.306 -1.6045,0.186 -1.4179,-0.051 -1.1446,-0.209 -1.25,-0.22 -1.7412,-0.088 -2.3603,0.209 -2.6944,0.434 -2.7968,0.461 -2.6641,0.285 -2.2891,-0.045 -2.0058,-0.253 -1.9893,-0.253 -2.2402,-0.044 -2.8447,0.405 -3.3428,0.715 -3.4151,0.658 -1.6015,0.195 -1.46,0.045 -5.501,-0.113 -2.7392,0.058 -2.71,0.191 -2.708,0.372 -2.7529,0.519 -5.6904,1.153 -6.3692,0.89 -6.0957,0.495 -9.4276,0.653 -4.174,0.547 -5.181,0.92 -9.899,1.966 -15.131,3.042 -14.256,2.409 -13.323,1.848 -12.338,1.366 -11.299,0.954 -10.204,0.618 -9.055,0.357 -7.854,0.17 -12.901,0.039 -10.249,-0.038 v 12.67 z"
       id="path10"
       style="fill:#c8beb7;stroke:#000000;stroke-width:0.1;stroke-dasharray:none" /><path
       d="m 288.55183,243.595 v -4.042 h 54 v 14.082 l 6.791,-0.958 14.956,-2.473 18.194,-3.43 9.408,-1.799 9.696,-1.752 10.047,-1.629 10.459,-1.429 10.932,-1.152 11.467,-0.799 18.503,-1.039 9.281,-0.62 6.494,-0.299 10.138,-0.077 v -11.822 l -6.916,-0.002 v 6.372 h -2.9 v -6.373 l -67.1,-0.019 v 6.392 h -2.9 v -6.393 l -57.1,-0.016 v 16.409 h -2.9 v -16.409 l -68.55,-0.02 v 19.297 z"
       id="path9"
       style="fill:#c8beb7;stroke:#000000;stroke-width:0.1;stroke-dasharray:none" /><path
       d="m 19.10183,325.1 v -6.285 h 2.9 v 6.286 l 67.1,0.022 v -6.308 h 2.9 v 6.309 l 57.1,0.018 v -16.273 h 2.9 v 16.274 l 8.55,0.003 v -15.419 h 120 v 15.429 l 68.55,-0.02 v -16.267 h 2.9 v 16.267 l 57.1,-0.016 v -6.305 h 2.9 v 6.304 l 67.1,-0.019 v -6.285 h 2.9 v 6.284 l 6.916,-0.002 v -11.822 l -10.138,-0.077 -6.494,-0.299 -9.281,-0.62 -18.503,-1.039 -11.467,-0.799 -10.932,-1.152 -10.459,-1.429 -10.047,-1.629 -9.696,-1.752 -9.408,-1.799 -18.194,-3.43 -14.956,-2.473 -14.1904,-2.001 -13.6504,-1.57 -13.333,-1.181 -13.2432,-0.835 -13.376,-0.532 -13.7363,-0.272 -14.32127,-0.053 -3.36718,0.086 -1.94337,0.199 -2.34863,0.547 -1.72168,0.119 -1.9043,-0.102 -0.94336,0.048 -0.86811,0.17 -0.8985,0.18 -1.04,0.078 -1.085,-0.128 -1.0312,-0.271 -1.0782,-0.269 -1.2265,-0.124 -1.3438,0.124 -1.3877,0.285 -1.4746,0.306 -1.6045,0.186 -1.4179,-0.051 -1.1446,-0.209 -1.25,-0.22 -1.7412,-0.088 -2.3603,0.209 -2.6944,0.434 -2.7968,0.461 -2.6641,0.285 -2.2891,-0.045 -2.0058,-0.253 -1.9893,-0.253 -2.2402,-0.044 -2.8447,0.405 -3.3428,0.715 -3.4151,0.658 -1.6015,0.195 -1.46,0.045 -5.501,-0.113 -2.7392,0.058 -2.71,0.191 -2.708,0.372 -2.7529,0.519 -5.6904,1.153 -6.3692,0.89 -6.0957,0.495 -9.4276,0.653 -4.174,0.547 -5.181,0.92 -9.899,1.966 -15.131,3.042 -14.256,2.409 -13.323,1.848 -12.338,1.366 -11.299,0.954 -10.204,0.618 -9.055,0.357 -7.854,0.17 -12.901,0.039 -10.249,-0.038 v 12.67 z"
       id="path8"
       style="fill:#c8beb7;stroke:#000000;stroke-width:0.1;stroke-dasharray:none" /><path
       d="m 288.55183,359.727 v -3.5 h 54 v 17.408 l 6.791,-0.958 14.956,-2.473 18.194,-3.43 9.408,-1.799 9.696,-1.752 10.047,-1.629 10.459,-1.429 10.932,-1.152 11.467,-0.799 18.503,-1.039 9.281,-0.62 6.494,-0.299 10.138,-0.077 v -11.822 l -6.916,-0.002 v 6.284 h -2.9 v -6.285 l -67.1,-0.019 v 6.304 h -2.9 v -6.305 l -57.1,-0.016 v 16.267 h -2.9 v -16.267 l -68.55,-0.02 v 15.429 z"
       id="path7"
       style="fill:#c8beb7;stroke:#000000;stroke-width:0.1;stroke-dasharray:none" /><path
       d="m 19.10183,445.1 v -6.373 h 2.9 v 6.374 l 67.1,0.022 v -6.396 h 2.9 v 6.397 l 57.1,0.018 v -16.415 h 2.9 v 16.416 l 8.55,0.003 v -19.287 h 120 v 19.297 l 68.55,-0.02 v -16.409 h 2.9 v 16.409 l 57.1,-0.016 v -6.393 h 2.9 v 6.392 l 67.1,-0.019 v -6.373 h 2.9 v 6.372 l 6.916,-0.002 v -11.822 l -10.138,-0.077 -6.494,-0.299 -9.281,-0.62 -18.503,-1.039 -11.467,-0.799 -10.932,-1.152 -10.459,-1.429 -10.047,-1.629 -9.696,-1.752 -9.408,-1.799 -18.194,-3.43 -14.956,-2.473 -14.1904,-2.001 -13.6504,-1.57 -13.333,-1.181 -13.2432,-0.835 -13.376,-0.532 -13.7363,-0.272 -14.32127,-0.053 -3.36718,0.086 -1.94337,0.199 -2.34863,0.547 -1.72168,0.119 -1.9043,-0.102 -0.94336,0.048 -0.86811,0.17 -0.8985,0.18 -1.04,0.078 -1.085,-0.128 -1.0312,-0.271 -1.0782,-0.269 -1.2265,-0.124 -1.3438,0.124 -1.3877,0.285 -1.4746,0.306 -1.6045,0.186 -1.4179,-0.051 -1.1446,-0.209 -1.25,-0.22 -1.7412,-0.088 -2.3603,0.209 -2.6944,0.434 -2.7968,0.461 -2.6641,0.285 -2.2891,-0.045 -2.0058,-0.253 -1.9893,-0.253 -2.2402,-0.044 -2.8447,0.405 -3.3428,0.715 -3.4151,0.658 -1.6015,0.195 -1.46,0.045 -5.501,-0.113 -2.7392,0.058 -2.71,0.191 -2.708,0.372 -2.7529,0.519 -5.6904,1.153 -6.3692,0.89 -6.0957,0.495 -9.4276,0.653 -4.174,0.547 -5.181,0.92 -9.899,1.966 -15.131,3.042 -14.256,2.409 -13.323,1.848 -12.338,1.366 -11.299,0.954 -10.204,0.618 -9.055,0.357 -7.854,0.17 -12.901,0.039 -10.249,-0.038 v 12.67 z"
       id="path6"
       style="fill:#c8beb7;stroke:#000000;stroke-width:0.1;stroke-dasharray:none" /><path
       d="m 288.55183,483.595 v -4.042 h 54 v 14.082 l 6.791,-0.958 14.956,-2.473 18.194,-3.43 9.408,-1.799 9.696,-1.752 10.047,-1.629 10.459,-1.429 10.932,-1.152 11.467,-0.799 18.503,-1.039 9.281,-0.62 6.494,-0.299 10.138,-0.077 v -11.822 l -6.916,-0.002 v 6.372 h -2.9 v -6.373 l -67.1,-0.019 v 6.392 h -2.9 v -6.393 l -57.1,-0.016 v 16.409 h -2.9 v -16.409 l -68.55,-0.02 v 19.297 z"
       id="path5"
       style="fill:#c8beb7;stroke:#000000;stroke-width:0.1;stroke-dasharray:none" /><path
       d="m 19.10183,565.1 v -6.285 h 2.9 v 6.286 l 67.1,0.022 v -6.308 h 2.9 v 6.309 l 57.1,0.018 v -16.273 h 2.9 v 16.274 l 8.55,0.003 v -19.287 h 120 v 19.297 l 68.55,-0.02 v -16.267 h 2.9 v 16.267 l 57.1,-0.016 v -6.305 h 2.9 v 6.304 l 67.1,-0.019 v -6.285 h 2.9 v 6.284 l 6.916,-0.002 v -11.822 l -10.138,-0.077 -6.494,-0.299 -9.281,-0.62 -18.503,-1.039 -11.467,-0.799 -10.932,-1.152 -10.459,-1.429 -10.047,-1.629 -9.696,-1.752 -9.408,-1.799 -18.194,-3.43 -14.956,-2.473 -14.1904,-2.001 -13.6504,-1.57 -13.333,-1.181 -13.2432,-0.835 -13.376,-0.532 -13.7363,-0.272 -14.32127,-0.053 -3.36718,0.086 -1.94337,0.199 -2.34863,0.547 -1.72168,0.119 -1.9043,-0.102 -0.94336,0.048 -0.86811,0.17 -0.8985,0.18 -1.04,0.078 -1.085,-0.128 -1.0312,-0.271 -1.0782,-0.269 -1.2265,-0.124 -1.3438,0.124 -1.3877,0.285 -1.4746,0.306 -1.6045,0.186 -1.4179,-0.051 -1.1446,-0.209 -1.25,-0.22 -1.7412,-0.088 -2.3603,0.209 -2.6944,0.434 -2.7968,0.461 -2.6641,0.285 -2.2891,-0.045 -2.0058,-0.253 -1.9893,-0.253 -2.2402,-0.044 -2.8447,0.405 -3.3428,0.715 -3.4151,0.658 -1.6015,0.195 -1.46,0.045 -5.501,-0.113 -2.7392,0.058 -2.71,0.191 -2.708,0.372 -2.7529,0.519 -5.6904,1.153 -6.3692,0.89 -6.0957,0.495 -9.4276,0.653 -4.174,0.547 -5.181,0.92 -9.899,1.966 -15.131,3.042 -14.256,2.409 -13.323,1.848 -12.338,1.366 -11.299,0.954 -10.204,0.618 -9.055,0.357 -7.854,0.17 -12.901,0.039 -10.249,-0.038 v 12.67 z"
       id="path4"
       style="fill:#c8beb7;stroke:#000000;stroke-width:0.1;stroke-dasharray:none" /><path
       d="m 21.35883,596.989 12.901,0.039 7.854,0.17 9.055,0.357 10.204,0.618 11.299,0.954 12.338,1.366 13.323,1.848 14.256,2.409 15.131,3.042 9.899,1.966 5.181,0.92 4.174,0.547 9.4276,0.653 6.0957,0.495 6.3692,0.89 5.6904,1.153 2.7529,0.519 2.708,0.372 2.71,0.191 2.7392,0.058 5.501,-0.113 1.46,0.045 1.6015,0.195 3.4151,0.658 3.3428,0.715 2.8447,0.405 2.2402,-0.044 1.9893,-0.253 2.0058,-0.253 2.2891,-0.045 2.6641,0.285 2.7968,0.461 2.6944,0.434 2.3603,0.209 1.7412,-0.088 1.25,-0.22 1.1446,-0.209 1.4179,-0.051 1.6045,0.185 1.4746,0.307 1.3877,0.285 1.3438,0.124 1.2265,-0.124 1.0782,-0.269 1.0312,-0.271 1.085,-0.128 1.04,0.078 0.8985,0.18 0.86811,0.17 0.94336,0.048 1.9043,-0.102 1.72168,0.119 2.34863,0.547 1.94337,0.199 3.36718,0.086 14.32127,-0.053 13.7363,-0.272 13.376,-0.532 13.2432,-0.835 13.333,-1.182 13.6504,-1.569 14.1904,-2.001 14.956,-2.473 18.194,-3.43 9.408,-1.799 9.696,-1.752 10.047,-1.629 10.459,-1.429 10.932,-1.152 11.467,-0.799 18.503,-1.039 9.281,-0.62 6.494,-0.299 10.138,-0.077 v -11.822 l -6.916,-0.002 v 6.284 h -2.9 v -6.285 l -67.1,-0.019 v 6.304 h -2.9 v -6.305 l -57.1,-0.016 v 16.267 h -2.9 v -16.267 l -68.55,-0.02 v 19.297 h -120 v -19.287 l -8.55,0.003 v 16.274 h -2.9 v -16.273 l -57.1,0.018 v 6.309 h -2.9 v -6.308 l -67.1,0.022 v 6.286 h -2.9 v -6.285 l -7.992,0.003 v 12.67 z"
       id="path3"
       style="fill:#c8beb7;stroke:#000000;stroke-width:0.1;stroke-dasharray:none" /><path
       d="m 19.10183,-34.899999 v -6.373 h 2.9 v 6.374 l 67.1,0.022 v -6.396 h 2.9 v 6.397 l 57.1,0.018 v -16.415 h 2.9 v 16.416 l 8.55,0.003 v -15.419 h 120 v 15.429 l 68.55,-0.02 v -16.409 h 2.9 v 16.409 l 57.1,-0.016 v -6.393 h 2.9 v 6.392 l 67.1,-0.019 v -6.373 h 2.9 v 6.372 l 6.916,-0.002 v -11.8221 l -10.138,-0.0772 -6.494,-0.2988 -9.281,-0.6201 -18.503,-1.0391 -11.467,-0.7988 -10.932,-1.1524 -10.459,-1.4287 -10.047,-1.6289 -9.696,-1.7519 -9.408,-1.7989 -18.194,-3.4297 -14.956,-2.4736 -14.1904,-2.001 -13.6504,-1.5693 -13.333,-1.1816 -13.2432,-0.835 -13.376,-0.5322 -13.7363,-0.2715 -14.32127,-0.0528 -3.36718,0.086 -1.94337,0.1982 -2.34863,0.5469 -1.72168,0.1191 -1.9043,-0.1015 -0.94336,0.0478 -0.86811,0.17 -0.8985,0.1796 -1.04,0.0782 -1.085,-0.128 -1.0312,-0.2705 -1.0782,-0.2695 -1.2265,-0.124 -1.3438,0.124 -1.3877,0.2852 -1.4746,0.3066 -1.6045,0.1855 -1.4179,-0.0507 -1.1446,-0.209 -1.25,-0.2207 -1.7412,-0.0879 -2.3603,0.209 -2.6944,0.4345 -2.7968,0.461 -2.6641,0.2851 -2.2891,-0.0449 -2.0058,-0.2529 -1.9893,-0.2539 -2.2402,-0.044 -2.8447,0.4053 -3.3428,0.7148 -3.4151,0.6582 -1.6015,0.1954 -1.46,0.0449 -5.501,-0.1133 -2.7392,0.0576 -2.71,0.1914 -2.708,0.3721 -2.7529,0.5185 -5.6904,1.1534 -6.3692,0.8896 -6.0957,0.4951 -9.4276,0.6534 -4.174,0.5468 -5.181,0.92 -9.899,1.9658 -15.131,3.042 -14.256,2.4091 -13.323,1.8487 -12.338,1.3652 -11.299,0.9541 -10.204,0.6182 -9.055,0.3574 -7.854,0.1699 -12.901,0.0391 -10.249,-0.0381 v 12.6698 z"
       id="path2"
       style="fill:#c8beb7;stroke:#000000;stroke-width:0.1;stroke-dasharray:none" /><path
       d="m 21.35883,-3.010999 12.901,0.039 7.854,0.17 9.055,0.357 10.204,0.618 11.299,0.954 12.338,1.365999 13.323,1.848 14.256,2.409 15.131,3.042 9.899,1.966 5.181,0.92 4.174,0.547 9.4276,0.653 6.0957,0.495 6.3692,0.89 5.6904,1.153 2.7529,0.519 2.708,0.372 2.71,0.191 2.7392,0.058 5.501,-0.113 1.46,0.045 1.6015,0.195 3.4151,0.658 3.3428,0.715 2.8447,0.405 2.2402,-0.044 1.9893,-0.253 2.0058,-0.253 2.2891,-0.045 2.6641,0.285 2.7968,0.461 2.6944,0.434 2.3603,0.209 1.7412,-0.088 1.25,-0.22 1.1446,-0.209 1.4179,-0.051 1.6045,0.186 1.4746,0.306 1.3877,0.285 1.3438,0.124 1.2265,-0.124 1.0782,-0.269 1.0312,-0.271 1.085,-0.128 1.04,0.078 0.8985,0.18 0.86811,0.17 0.94336,0.048 1.9043,-0.102 1.72168,0.119 2.34863,0.547 1.94337,0.199 3.36718,0.086 14.32127,-0.053 13.7363,-0.272 13.376,-0.532 13.2432,-0.835 13.333,-1.181 13.6504,-1.57 14.1904,-2.001 14.956,-2.473 18.194,-3.43 9.408,-1.799 9.696,-1.752 10.047,-1.629 10.459,-1.429 10.932,-1.151999 11.467,-0.799 18.503,-1.039 9.281,-0.62 6.494,-0.299 10.138,-0.077 v -11.822 l -6.916,-0.002 v 6.372 h -2.9 v -6.373 l -67.1,-0.019 v 6.392 h -2.9 v -6.393 l -57.1,-0.016 V 0.727 h -2.9 v -16.408999 l -68.55,-0.02 v 15.429 h -120 v -15.419 l -8.55,0.003 V 0.727 h -2.9 v -16.414999 l -57.1,0.018 v 6.397 h -2.9 v -6.396 l -67.1,0.022 v 6.374 h -2.9 v -6.373 l -7.992,0.003 v 12.67 z"
       id="path1"
       style="fill:#c8beb7;stroke:#000000;stroke-width:0.1;stroke-dasharray:none" /><path
       d="m 144.63953,-134.4186 v 2.9 h -3.9781 v 0.64056 l 0.8693,4.08977 1.1076,2.48773 3.4641,-2 0.593,1.33194 0.857,1.17953 -3.4641,1.99997 1.6006,2.2031 3.1072,2.7977 0.5548,0.3203 1.989,-3.4451 2.51148,1.45 -1.98905,3.4451 0.55475,0.3203 3.97649,1.292 2.70823,0.2847 v -4 l 1.45,0.1524 1.45,-0.1524 v 4 l 2.70823,-0.2847 3.97649,-1.292 0.55475,-0.3203 -1.98905,-3.4451 2.51148,-1.45 1.989,3.4451 0.5548,-0.3203 3.1072,-2.7977 1.6006,-2.2031 -3.4641,-1.99997 0.857,-1.17953 0.593,-1.33194 3.4641,2 1.1076,-2.48773 0.8693,-4.08977 v -0.64056 h -3.9781 v -2.9 h 3.9781 v -0.64056 l -0.8693,-4.08977 -1.1076,-2.48773 -3.4641,2 -0.593,-1.33194 -0.857,-1.17953 3.4641,-1.99997 -1.6006,-2.2031 -3.1072,-2.7977 -0.5548,-0.3203 -1.989,3.4451 -2.51148,-1.45 1.98905,-3.4451 -0.55475,-0.3203 -3.97649,-1.292 -2.70823,-0.2847 v 4 l -1.45,-0.1524 -1.45,0.1524 v -4 l -2.70823,0.2847 -3.97649,1.292 -0.55475,0.3203 1.98905,3.4451 -2.51148,1.45 -1.989,-3.4451 -0.5548,0.3203 -3.1072,2.7977 -1.6006,2.2031 3.4641,1.99997 -0.857,1.17953 -0.593,1.33194 -3.4641,-2 -1.1076,2.48773 -0.8693,4.08977 v 0.64056 z"
       id="path19"
       style="fill:#c8beb7;stroke:#000000;stroke-width:0.1;stroke-dasharray:none" /><path
       d="m 144.63953,-204.4186 v 2.9 h -7.9562 v 1.0587 l 1.0432,4.9077 1.4477,3.2517 6.9282,-4 0.593,1.3319 0.857,1.1796 -6.9282,4 2.0921,2.8795 3.7287,3.3573 0.9168,0.5294 3.9781,-6.8903 2.51148,1.45 -3.97808,6.8903 0.91683,0.5293 4.7718,1.5505 3.53987,0.372 v -8 l 1.45,0.1524 1.45,-0.1524 v 8 l 3.53987,-0.372 4.7718,-1.5505 0.91683,-0.5293 -3.97808,-6.8903 2.51148,-1.45 3.9781,6.8903 0.9168,-0.5294 3.7287,-3.3573 2.0921,-2.8795 -6.9282,-4 0.857,-1.1796 0.593,-1.3319 6.9282,4 1.4477,-3.2517 1.0432,-4.9077 v -1.0587 h -7.9562 v -2.9 h 7.9562 v -1.0587 l -1.0432,-4.9077 -1.4477,-3.2517 -6.9282,4 -0.593,-1.3319 -0.857,-1.1795 6.9282,-4 -2.0921,-2.8796 -3.7287,-3.3573 -0.9168,-0.5293 -3.9781,6.8902 -2.51148,-1.45 3.97808,-6.8902 -0.91683,-0.5294 -4.7718,-1.5504 -3.53987,-0.3721 v 8 l -1.45,-0.1524 -1.45,0.1524 v -8 l -3.53987,0.3721 -4.7718,1.5504 -0.91683,0.5294 3.97808,6.8902 -2.51148,1.45 -3.9781,-6.8902 -0.9168,0.5293 -3.7287,3.3573 -2.0921,2.8796 6.9282,4 -0.857,1.1795 -0.593,1.3319 -6.9282,-4 -1.4477,3.2517 -1.0432,4.9077 v 1.0587 z"
       id="path20"
       style="fill:#c8beb7;stroke:#000000;stroke-width:0.1;stroke-dasharray:none" /><path
       d="m 134.69423,-274.4186 v 2.9 h -7.9561 v 2.104 l 1.4778,6.953 2.298,5.161 6.9282,-4 0.5931,1.332 0.8569,1.18 -6.9282,4 3.321,4.57 5.2822,4.757 1.8221,1.052 3.9781,-6.891 2.5115,1.45 -3.9781,6.891 1.8221,1.052 6.76002,2.196 5.61898,0.591 v -8 l 1.45,0.152 1.45,-0.152 v 8 l 5.61898,-0.591 6.76002,-2.196 1.8221,-1.052 -3.9781,-6.891 2.5115,-1.45 3.9781,6.891 1.8221,-1.052 5.2822,-4.757 3.321,-4.57 -6.9282,-4 0.8569,-1.18 0.5931,-1.332 6.9282,4 2.298,-5.161 1.4778,-6.953 v -2.104 h -7.9561 v -2.9 h 7.9561 v -2.104 l -1.4778,-6.953 -2.298,-5.161 -6.9282,4 -0.5931,-1.332 -0.8569,-1.18 6.9282,-4 -3.321,-4.57 -5.2822,-4.757 -1.8221,-1.052 -3.9781,6.891 -2.5115,-1.45 3.9781,-6.891 -1.8221,-1.052 -6.76002,-2.196 -5.61898,-0.591 v 8 l -1.45,-0.152 -1.45,0.152 v -8 l -5.61898,0.591 -6.76002,2.196 -1.8221,1.052 3.9781,6.891 -2.5115,1.45 -3.9781,-6.891 -1.8221,1.052 -5.2822,4.757 -3.321,4.57 6.9282,4 -0.8569,1.18 -0.5931,1.332 -6.9282,-4 -2.298,5.161 -1.4778,6.953 v 2.104 z"
       id="path21"
       style="fill:#c8beb7;stroke:#000000;stroke-width:0.1;stroke-dasharray:none" /><image
       preserveAspectRatio="none"
       inkscape:svg-dpi="96"
       width="50.099915"
       height="54.099884"
       xlink:href="plaque_logo.svg"
       id="image1"
       x="256.56357"
       y="-266.17053" /></g></svg>
