  0
SECTION
  2
HEADER
  9
$ACADVER
  1
AC1014
  9
$HANDSEED
  5
FFFF
  9
$INSUNITS
 70
     4
  9
$MEASUREMENT
 70
     1
  0
ENDSEC
  0
SECTION
  2
TABLES
  0
TABLE
  2
VPORT
  5
8
330
0
100
AcDbSymbolTable
 70
     4
  0
VPORT
  5
2E
330
8
100
AcDbSymbolTableRecord
100
AcDbViewportTableRecord
  2
*ACTIVE
 70
     0
 10
0.0
 20
0.0
 11
1.0
 21
1.0
 12
210.0
 22
148.5
 13
0.0
 23
0.0
 14
10.0
 24
10.0
 15
10.0
 25
10.0
 16
0.0
 26
0.0
 36
1.0
 17
0.0
 27
0.0
 37
0.0
 40
341.0
 41
1.24
 42
50.0
 43
0.0
 44
0.0
 50
0.0
 51
0.0
 71
     0
 72
   100
 73
     1
 74
     3
 75
     0
 76
     0
 77
     0
 78
     0
  0
ENDTAB
  0
TABLE
  2
LTYPE
  5
5
330
0
100
AcDbSymbolTable
 70
     1
  0
LTYPE
  5
14
330
5
100
AcDbSymbolTableRecord
100
AcDbLinetypeTableRecord
  2
BYBLOCK
 70
     0
  3

 72
    65
 73
     0
 40
0.0
  0
LTYPE
  5
15
330
5
100
AcDbSymbolTableRecord
100
AcDbLinetypeTableRecord
  2
BYLAYER
 70
     0
  3

 72
    65
 73
     0
 40
0.0
  0
LTYPE
  5
16
330
5
100
AcDbSymbolTableRecord
100
AcDbLinetypeTableRecord
  2
CONTINUOUS
 70
     0
  3
Solid line
 72
    65
 73
     0
 40
0.0
  0
ENDTAB
  0
TABLE
  2
LAYER
  5
2
100
AcDbSymbolTable
 70
2
  0
LAYER
  5
50
100
AcDbSymbolTableRecord
100
AcDbLayerTableRecord
  2
0
 70
0
  6
CONTINUOUS
  0
LAYER
  5
51
100
AcDbSymbolTableRecord
100
AcDbLayerTableRecord
  2
Paris2024_Nouvel_embleme_Dossier_de_presse
 70
0
  6
CONTINUOUS
  0
ENDTAB
  0
TABLE
  2
STYLE
  5
3
330
0
100
AcDbSymbolTable
 70
     1
  0
STYLE
  5
11
330
3
100
AcDbSymbolTableRecord
100
AcDbTextStyleTableRecord
  2
STANDARD
 70
     0
 40
0.0
 41
1.0
 50
0.0
 71
     0
 42
2.5
  3
txt
  4

  0
ENDTAB
  0
TABLE
  2
VIEW
  5
6
330
0
100
AcDbSymbolTable
 70
     0
  0
ENDTAB
  0
TABLE
  2
UCS
  5
7
330
0
100
AcDbSymbolTable
 70
     0
  0
ENDTAB
  0
TABLE
  2
APPID
  5
9
330
0
100
AcDbSymbolTable
 70
     2
  0
APPID
  5
12
330
9
100
AcDbSymbolTableRecord
100
AcDbRegAppTableRecord
  2
ACAD
 70
     0
  0
ENDTAB
  0
TABLE
  2
DIMSTYLE
  5
A
330
0
100
AcDbSymbolTable
 70
     1
  0
DIMSTYLE
105
27
330
A
100
AcDbSymbolTableRecord
100
AcDbDimStyleTableRecord
  2
ISO-25
 70
     0
  3

  4

  5

  6

  7

 40
1.0
 41
2.5
 42
0.625
 43
3.75
 44
1.25
 45
0.0
 46
0.0
 47
0.0
 48
0.0
140
2.5
141
2.5
142
0.0
143
0.03937007874016
144
1.0
145
0.0
146
1.0
147
0.625
 71
     0
 72
     0
 73
     0
 74
     0
 75
     0
 76
     0
 77
     1
 78
     8
170
     0
171
     3
172
     1
173
     0
174
     0
175
     0
176
     0
177
     0
178
     0
270
     2
271
     2
272
     2
273
     2
274
     3
340
11
275
     0
280
     0
281
     0
282
     0
283
     0
284
     8
285
     0
286
     0
287
     3
288
     0
  0
ENDTAB
  0
TABLE
  2
BLOCK_RECORD
  5
1
330
0
100
AcDbSymbolTable
 70
     1
  0
BLOCK_RECORD
  5
1F
330
1
100
AcDbSymbolTableRecord
100
AcDbBlockTableRecord
  2
*MODEL_SPACE
  0
BLOCK_RECORD
  5
1B
330
1
100
AcDbSymbolTableRecord
100
AcDbBlockTableRecord
  2
*PAPER_SPACE
  0
ENDTAB
  0
ENDSEC
  0
SECTION
  2
BLOCKS
  0
BLOCK
  5
20
330
1F
100
AcDbEntity
  8
0
100
AcDbBlockBegin
  2
*MODEL_SPACE
 70
     0
 10
0.0
 20
0.0
 30
0.0
  3
*MODEL_SPACE
  1

  0
ENDBLK
  5
21
330
1F
100
AcDbEntity
  8
0
100
AcDbBlockEnd
  0
BLOCK
  5
1C
330
1B
100
AcDbEntity
 67
     1
  8
0
100
AcDbBlockBegin
  2
*PAPER_SPACE
  1

  0
ENDBLK
  5
1D
330
1B
100
AcDbEntity
 67
     1
  8
0
100
AcDbBlockEnd
  0
ENDSEC
  0
SECTION
  2
ENTITIES
  0
LWPOLYLINE
  5
100
100
AcDbEntity
  8
Paris2024_Nouvel_embleme_Dossier_de_presse
 62
7
100
AcDbPolyline
 90
13
 70
1
 10
3.494660
 20
19.748595
 30
0.0
 10
2.473371
 20
19.921808
 30
0.0
 10
1.322612
 20
19.921808
 30
0.0
 10
1.322612
 20
15.591119
 30
0.0
 10
1.995358
 20
15.591119
 30
0.0
 10
2.084258
 20
16.319956
 30
0.0
 10
2.473415
 20
16.751975
 30
0.0
 10
2.994069
 20
17.032918
 30
0.0
 10
3.553706
 20
17.320078
 30
0.0
 10
4.019945
 20
17.733180
 30
0.0
 10
4.232096
 20
18.251498
 30
0.0
 10
4.233375
 20
18.814794
 30
0.0
 10
3.978582
 20
19.370726
 30
0.0
  0
LWPOLYLINE
  5
101
100
AcDbEntity
  8
Paris2024_Nouvel_embleme_Dossier_de_presse
 62
7
100
AcDbPolyline
 90
8
 70
1
 10
3.461499
 20
18.093013
 30
0.0
 10
2.780992
 20
17.594539
 30
0.0
 10
1.995358
 20
17.117937
 30
0.0
 10
1.995358
 20
19.295629
 30
0.0
 10
2.633179
 20
19.295629
 30
0.0
 10
3.159875
 20
19.194911
 30
0.0
 10
3.524646
 20
18.819027
 30
0.0
 10
3.575754
 20
18.447950
 30
0.0
  0
LWPOLYLINE
  5
102
100
AcDbEntity
  8
Paris2024_Nouvel_embleme_Dossier_de_presse
 62
7
100
AcDbPolyline
 90
18
 70
1
 10
8.441650
 20
19.801864
 30
0.0
 10
7.967160
 20
19.969207
 30
0.0
 10
7.457712
 20
19.978032
 30
0.0
 10
6.973068
 20
19.829893
 30
0.0
 10
6.572991
 20
19.526345
 30
0.0
 10
6.323269
 20
19.111039
 30
0.0
 10
6.223036
 20
18.635936
 30
0.0
 10
6.219861
 20
15.591119
 30
0.0
 10
6.885904
 20
15.591119
 30
0.0
 10
6.885904
 20
17.025862
 30
0.0
 10
7.489902
 20
17.020438
 30
0.0
 10
8.046540
 20
16.798321
 30
0.0
 10
8.369419
 20
16.397787
 30
0.0
 10
8.471636
 20
15.890626
 30
0.0
 10
8.471636
 20
15.591119
 30
0.0
 10
9.138032
 20
15.591119
 30
0.0
 10
9.138032
 20
18.495178
 30
0.0
 10
8.968567
 20
19.247078
 30
0.0
  0
LWPOLYLINE
  5
103
100
AcDbEntity
  8
Paris2024_Nouvel_embleme_Dossier_de_presse
 62
7
100
AcDbPolyline
 90
13
 70
1
 10
8.434948
 20
17.216715
 30
0.0
 10
7.716782
 20
17.627303
 30
0.0
 10
6.885904
 20
17.671444
 30
0.0
 10
6.885904
 20
18.379115
 30
0.0
 10
6.916243
 20
18.766816
 30
0.0
 10
7.094880
 20
19.091195
 30
0.0
 10
7.405545
 20
19.292807
 30
0.0
 10
7.795760
 20
19.327732
 30
0.0
 10
8.157665
 20
19.180624
 30
0.0
 10
8.393629
 20
18.886540
 30
0.0
 10
8.471636
 20
18.515992
 30
0.0
 10
8.471636
 20
17.906041
 30
0.0
 10
8.471636
 20
17.174734
 30
0.0
  0
LWPOLYLINE
  5
104
100
AcDbEntity
  8
Paris2024_Nouvel_embleme_Dossier_de_presse
 62
7
100
AcDbPolyline
 90
22
 70
1
 10
13.718487
 20
17.200134
 30
0.0
 10
13.473307
 20
17.302087
 30
0.0
 10
14.048334
 20
17.760344
 30
0.0
 10
14.291044
 20
18.378056
 30
0.0
 10
14.209950
 20
19.056049
 30
0.0
 10
13.796804
 20
19.595137
 30
0.0
 10
12.935455
 20
19.903464
 30
0.0
 10
12.006108
 20
19.921808
 30
0.0
 10
11.370052
 20
19.921808
 30
0.0
 10
11.370052
 20
15.591119
 30
0.0
 10
12.042797
 20
15.591119
 30
0.0
 10
12.044208
 20
15.977409
 30
0.0
 10
12.150350
 20
16.384999
 30
0.0
 10
12.434027
 20
16.692841
 30
0.0
 10
12.847393
 20
16.817636
 30
0.0
 10
13.272930
 20
16.742935
 30
0.0
 10
13.593428
 20
16.478441
 30
0.0
 10
13.748826
 20
16.091709
 30
0.0
 10
13.761879
 20
15.591119
 30
0.0
 10
14.441327
 20
15.591119
 30
0.0
 10
14.401816
 20
16.304434
 30
0.0
 10
14.157915
 20
16.826896
 30
0.0
  0
LWPOLYLINE
  5
105
100
AcDbEntity
  8
Paris2024_Nouvel_embleme_Dossier_de_presse
 62
7
100
AcDbPolyline
 90
8
 70
1
 10
12.702490
 20
19.295629
 30
0.0
 10
13.299653
 20
19.132470
 30
0.0
 10
13.509236
 20
18.921476
 30
0.0
 10
13.610538
 20
18.617945
 30
0.0
 10
13.433796
 20
17.995999
 30
0.0
 10
12.803737
 20
17.586072
 30
0.0
 10
12.042797
 20
17.119701
 30
0.0
 10
12.042797
 20
19.295629
 30
0.0
  0
LWPOLYLINE
  5
106
100
AcDbEntity
  8
Paris2024_Nouvel_embleme_Dossier_de_presse
 62
7
100
AcDbPolyline
 90
4
 70
1
 10
16.533294
 20
19.315385
 30
0.0
 10
17.206040
 20
19.415220
 30
0.0
 10
17.206040
 20
19.921808
 30
0.0
 10
16.533294
 20
19.921808
 30
0.0
  0
LWPOLYLINE
  5
107
100
AcDbEntity
  8
Paris2024_Nouvel_embleme_Dossier_de_presse
 62
7
100
AcDbPolyline
 90
4
 70
1
 10
16.533294
 20
18.935797
 30
0.0
 10
16.533294
 20
15.591119
 30
0.0
 10
17.206040
 20
15.591119
 30
0.0
 10
17.206040
 20
19.035632
 30
0.0
  0
LWPOLYLINE
  5
108
100
AcDbEntity
  8
Paris2024_Nouvel_embleme_Dossier_de_presse
 62
7
100
AcDbPolyline
 90
40
 70
1
 10
21.696537
 20
17.669680
 30
0.0
 10
20.880917
 20
18.072551
 30
0.0
 10
20.471696
 20
18.235093
 30
0.0
 10
20.117508
 20
18.489181
 30
0.0
 10
20.005369
 20
18.847955
 30
0.0
 10
20.162310
 20
19.192971
 30
0.0
 10
20.509311
 20
19.369756
 30
0.0
 10
20.901025
 20
19.345723
 30
0.0
 10
21.230607
 20
19.105967
 30
0.0
 10
21.350110
 20
18.715664
 30
0.0
 10
22.016153
 20
18.715664
 30
0.0
 10
21.938057
 20
19.175288
 30
0.0
 10
21.696184
 20
19.572206
 30
0.0
 10
21.326959
 20
19.842742
 30
0.0
 10
20.887620
 20
19.973313
 30
0.0
 10
20.410665
 20
19.969124
 30
0.0
 10
19.961228
 20
19.813858
 30
0.0
 10
19.608230
 20
19.527624
 30
0.0
 10
19.381968
 20
19.134763
 30
0.0
 10
19.331036
 20
18.684708
 30
0.0
 10
19.454993
 20
18.249998
 30
0.0
 10
19.775932
 20
17.896251
 30
0.0
 10
20.197941
 20
17.663683
 30
0.0
 10
21.174075
 20
17.238940
 30
0.0
 10
21.419607
 20
16.910504
 30
0.0
 10
21.376921
 20
16.490700
 30
0.0
 10
21.007476
 20
16.180344
 30
0.0
 10
20.516851
 20
16.147801
 30
0.0
 10
20.077291
 20
16.401403
 30
0.0
 10
19.904430
 20
16.876991
 30
0.0
 10
19.244738
 20
16.876991
 30
0.0
 10
19.333593
 20
16.371108
 30
0.0
 10
19.611626
 20
15.941426
 30
0.0
 10
20.047085
 20
15.652811
 30
0.0
 10
20.556362
 20
15.530088
 30
0.0
 10
21.102020
 20
15.568232
 30
0.0
 10
21.600582
 20
15.788674
 30
0.0
 10
21.942202
 20
16.156532
 30
0.0
 10
22.102583
 20
16.631811
 30
0.0
 10
22.035159
 20
17.205514
 30
0.0
  0
LWPOLYLINE
  5
109
100
AcDbEntity
  8
Paris2024_Nouvel_embleme_Dossier_de_presse
 62
7
100
AcDbPolyline
 90
24
 70
1
 10
27.966088
 20
17.576547
 30
0.0
 10
28.358376
 20
18.173446
 30
0.0
 10
28.464209
 20
18.859244
 30
0.0
 10
28.216516
 20
19.456407
 30
0.0
 10
27.705033
 20
19.857250
 30
0.0
 10
27.037447
 20
19.991085
 30
0.0
 10
26.376476
 20
19.830439
 30
0.0
 10
25.873416
 20
19.393921
 30
0.0
 10
25.656105
 20
18.767169
 30
0.0
 10
25.790028
 20
18.111533
 30
0.0
 10
26.220548
 20
17.596655
 30
0.0
 10
26.600136
 20
18.082782
 30
0.0
 10
26.324970
 20
18.559736
 30
0.0
 10
26.436801
 20
19.075496
 30
0.0
 10
26.885489
 20
19.356615
 30
0.0
 10
27.413287
 20
19.295629
 30
0.0
 10
27.767828
 20
18.901930
 30
0.0
 10
27.723025
 20
18.345954
 30
0.0
 10
27.405173
 20
17.881346
 30
0.0
 10
26.056154
 20
16.194014
 30
0.0
 10
25.574261
 20
15.591119
 30
0.0
 10
28.619078
 20
15.591119
 30
0.0
 10
28.619078
 20
16.210595
 30
0.0
 10
26.872480
 20
16.210595
 30
0.0
  0
LWPOLYLINE
  5
10a
100
AcDbEntity
  8
Paris2024_Nouvel_embleme_Dossier_de_presse
 62
7
100
AcDbPolyline
 90
21
 70
1
 10
34.295612
 20
19.342196
 30
0.0
 10
33.730187
 20
19.742757
 30
0.0
 10
33.076591
 20
19.955101
 30
0.0
 10
32.389128
 20
19.970794
 30
0.0
 10
31.722104
 20
19.781403
 30
0.0
 10
31.146075
 20
19.394991
 30
0.0
 10
30.723040
 20
18.861008
 30
0.0
 10
30.477805
 20
18.225161
 30
0.0
 10
30.435174
 20
17.533156
 30
0.0
 10
30.607335
 20
16.873479
 30
0.0
 10
30.967911
 20
16.303596
 30
0.0
 10
31.479895
 20
15.863953
 30
0.0
 10
32.106278
 20
15.594999
 30
0.0
 10
32.795400
 20
15.526979
 30
0.0
 10
33.466895
 20
15.659381
 30
0.0
 10
34.070060
 20
15.979372
 30
0.0
 10
34.554197
 20
16.474119
 30
0.0
 10
34.858721
 20
17.103765
 30
0.0
 10
34.953100
 20
17.790462
 30
0.0
 10
34.838061
 20
18.473918
 30
0.0
 10
34.514333
 20
19.093841
 30
0.0
  0
LWPOLYLINE
  5
10b
100
AcDbEntity
  8
Paris2024_Nouvel_embleme_Dossier_de_presse
 62
7
100
AcDbPolyline
 90
18
 70
1
 10
34.145682
 20
17.133459
 30
0.0
 10
33.521619
 20
16.400389
 30
0.0
 10
33.080174
 20
16.208644
 30
0.0
 10
32.590641
 20
16.160501
 30
0.0
 10
32.122842
 20
16.265556
 30
0.0
 10
31.714475
 20
16.505384
 30
0.0
 10
31.185178
 20
17.286565
 30
0.0
 10
31.117406
 20
17.772382
 30
0.0
 10
31.196775
 20
18.250263
 30
0.0
 10
31.411545
 20
18.684355
 30
0.0
 10
31.749974
 20
19.038807
 30
0.0
 10
32.182952
 20
19.269264
 30
0.0
 10
32.658991
 20
19.352911
 30
0.0
 10
33.138338
 20
19.289384
 30
0.0
 10
33.581238
 20
19.078318
 30
0.0
 10
33.969221
 20
18.691984
 30
0.0
 10
34.203052
 20
18.204578
 30
0.0
 10
34.267086
 20
17.667828
 30
0.0
  0
LWPOLYLINE
  5
10c
100
AcDbEntity
  8
Paris2024_Nouvel_embleme_Dossier_de_presse
 62
7
100
AcDbPolyline
 90
24
 70
1
 10
39.239427
 20
17.576547
 30
0.0
 10
39.631715
 20
18.173446
 30
0.0
 10
39.737548
 20
18.859244
 30
0.0
 10
39.489723
 20
19.456407
 30
0.0
 10
38.978372
 20
19.857250
 30
0.0
 10
38.310786
 20
19.991085
 30
0.0
 10
37.649815
 20
19.830439
 30
0.0
 10
37.146755
 20
19.393921
 30
0.0
 10
36.929444
 20
18.767169
 30
0.0
 10
37.063235
 20
18.111533
 30
0.0
 10
37.493887
 20
17.596655
 30
0.0
 10
37.873475
 20
18.082782
 30
0.0
 10
37.598309
 20
18.559736
 30
0.0
 10
37.710139
 20
19.075496
 30
0.0
 10
38.158828
 20
19.356615
 30
0.0
 10
38.686626
 20
19.295629
 30
0.0
 10
39.041167
 20
18.901930
 30
0.0
 10
38.996364
 20
18.345954
 30
0.0
 10
38.678159
 20
17.881346
 30
0.0
 10
37.329493
 20
16.194014
 30
0.0
 10
36.847600
 20
15.591119
 30
0.0
 10
39.892417
 20
15.591119
 30
0.0
 10
39.892417
 20
16.210595
 30
0.0
 10
38.145819
 20
16.210595
 30
0.0
  0
LWPOLYLINE
  5
10d
100
AcDbEntity
  8
Paris2024_Nouvel_embleme_Dossier_de_presse
 62
7
100
AcDbPolyline
 90
16
 70
1
 10
43.982866
 20
18.762583
 30
0.0
 10
43.982866
 20
17.294678
 30
0.0
 10
42.927004
 20
17.793152
 30
0.0
 10
42.627364
 20
18.136316
 30
0.0
 10
42.543889
 20
18.590075
 30
0.0
 10
42.543889
 20
19.921808
 30
0.0
 10
41.870790
 20
19.921808
 30
0.0
 10
41.870790
 20
18.569614
 30
0.0
 10
41.975433
 20
17.903130
 30
0.0
 10
42.362914
 20
17.359942
 30
0.0
 10
43.153487
 20
16.966949
 30
0.0
 10
43.834347
 20
16.562314
 30
0.0
 10
43.982866
 20
15.997165
 30
0.0
 10
43.982866
 20
15.591119
 30
0.0
 10
44.629153
 20
15.591119
 30
0.0
 10
44.629153
 20
18.762583
 30
0.0
  0
LWPOLYLINE
  5
10e
100
AcDbEntity
  8
Paris2024_Nouvel_embleme_Dossier_de_presse
 62
7
100
AcDbPolyline
 90
16
 70
1
 10
22.679726
 20
4.878695
 30
0.0
 10
22.400173
 20
3.494696
 30
0.0
 10
21.637888
 20
2.364366
 30
0.0
 10
20.507436
 20
1.602202
 30
0.0
 10
19.123382
 20
1.322704
 30
0.0
 10
17.739345
 20
1.602202
 30
0.0
 10
16.609274
 20
2.364366
 30
0.0
 10
15.847435
 20
3.494696
 30
0.0
 10
15.568097
 20
4.878695
 30
0.0
 10
15.847435
 20
6.262788
 30
0.0
 10
16.609274
 20
7.392980
 30
0.0
 10
17.739345
 20
8.154940
 30
0.0
 10
19.123382
 20
8.434334
 30
0.0
 10
20.507436
 20
8.154940
 30
0.0
 10
21.637888
 20
7.392980
 30
0.0
 10
22.400173
 20
6.262788
 30
0.0
  0
LWPOLYLINE
  5
10f
100
AcDbEntity
  8
Paris2024_Nouvel_embleme_Dossier_de_presse
 62
7
100
AcDbPolyline
 90
16
 70
1
 10
19.123382
 20
7.841668
 30
0.0
 10
17.970210
 20
7.608792
 30
0.0
 10
17.028505
 20
6.973749
 30
0.0
 10
16.393584
 20
6.031923
 30
0.0
 10
16.160762
 20
4.878695
 30
0.0
 10
16.393584
 20
3.725467
 30
0.0
 10
17.028505
 20
2.783641
 30
0.0
 10
17.970210
 20
2.148599
 30
0.0
 10
19.123382
 20
1.915722
 30
0.0
 10
20.277018
 20
2.148599
 30
0.0
 10
21.219054
 20
2.783641
 30
0.0
 10
21.854173
 20
3.725467
 30
0.0
 10
22.087061
 20
4.878695
 30
0.0
 10
21.854173
 20
6.031923
 30
0.0
 10
21.219054
 20
6.973749
 30
0.0
 10
20.277018
 20
7.608792
 30
0.0
  0
LWPOLYLINE
  5
110
100
AcDbEntity
  8
Paris2024_Nouvel_embleme_Dossier_de_presse
 62
7
100
AcDbPolyline
 90
16
 70
1
 10
30.384374
 20
4.878695
 30
0.0
 10
30.104876
 20
3.494696
 30
0.0
 10
29.342712
 20
2.364366
 30
0.0
 10
28.212382
 20
1.602202
 30
0.0
 10
26.828383
 20
1.322704
 30
0.0
 10
25.444235
 20
1.602202
 30
0.0
 10
24.313921
 20
2.364366
 30
0.0
 10
23.551841
 20
3.494696
 30
0.0
 10
23.272392
 20
4.878695
 30
0.0
 10
23.551841
 20
6.262788
 30
0.0
 10
24.313921
 20
7.392980
 30
0.0
 10
25.444235
 20
8.154940
 30
0.0
 10
26.828383
 20
8.434334
 30
0.0
 10
28.212382
 20
8.154940
 30
0.0
 10
29.342712
 20
7.392980
 30
0.0
 10
30.104876
 20
6.262788
 30
0.0
  0
LWPOLYLINE
  5
111
100
AcDbEntity
  8
Paris2024_Nouvel_embleme_Dossier_de_presse
 62
7
100
AcDbPolyline
 90
16
 70
1
 10
26.828383
 20
7.841668
 30
0.0
 10
25.674858
 20
7.608792
 30
0.0
 10
24.733064
 20
6.973749
 30
0.0
 10
24.098187
 20
6.031923
 30
0.0
 10
23.865410
 20
4.878695
 30
0.0
 10
24.098187
 20
3.725467
 30
0.0
 10
24.733064
 20
2.783641
 30
0.0
 10
25.674858
 20
2.148599
 30
0.0
 10
26.828383
 20
1.915722
 30
0.0
 10
27.981815
 20
2.148599
 30
0.0
 10
28.923745
 20
2.783641
 30
0.0
 10
29.558827
 20
3.725467
 30
0.0
 10
29.791709
 20
4.878695
 30
0.0
 10
29.558827
 20
6.031923
 30
0.0
 10
28.923745
 20
6.973749
 30
0.0
 10
27.981815
 20
7.608792
 30
0.0
  0
LWPOLYLINE
  5
112
100
AcDbEntity
  8
Paris2024_Nouvel_embleme_Dossier_de_presse
 62
7
100
AcDbPolyline
 90
38
 70
1
 10
15.272470
 20
11.692581
 30
0.0
 10
13.888173
 20
11.413298
 30
0.0
 10
12.757876
 20
10.651581
 30
0.0
 10
11.995878
 20
9.521631
 30
0.0
 10
11.716478
 20
8.137648
 30
0.0
 10
11.995878
 20
6.753704
 30
0.0
 10
12.757876
 20
5.623495
 30
0.0
 10
13.888173
 20
4.861453
 30
0.0
 10
15.272470
 20
4.582010
 30
0.0
 10
15.580091
 20
4.596474
 30
0.0
 10
15.568097
 20
4.878342
 30
0.0
 10
15.582561
 20
5.190550
 30
0.0
 10
15.272470
 20
5.175380
 30
0.0
 10
14.118834
 20
5.408097
 30
0.0
 10
13.176798
 20
6.042815
 30
0.0
 10
12.541679
 20
6.984382
 30
0.0
 10
12.308791
 20
8.137648
 30
0.0
 10
12.541679
 20
9.291284
 30
0.0
 10
13.176798
 20
10.233319
 30
0.0
 10
14.118834
 20
10.868439
 30
0.0
 10
15.272470
 20
11.101327
 30
0.0
 10
16.425697
 20
10.868439
 30
0.0
 10
17.367524
 20
10.233319
 30
0.0
 10
18.002566
 20
9.291284
 30
0.0
 10
18.235443
 20
8.137648
 30
0.0
 10
18.083198
 20
7.197911
 30
0.0
 10
17.659358
 20
6.382627
 30
0.0
 10
17.013269
 20
5.740976
 30
0.0
 10
16.194276
 20
5.322136
 30
0.0
 10
16.160762
 20
4.878342
 30
0.0
 10
16.166759
 20
4.695957
 30
0.0
 10
17.228248
 20
5.168931
 30
0.0
 10
18.071093
 20
5.945845
 30
0.0
 10
18.626932
 20
6.958238
 30
0.0
 10
18.827403
 20
8.137648
 30
0.0
 10
18.548069
 20
9.521631
 30
0.0
 10
17.786270
 20
10.651581
 30
0.0
 10
16.656303
 20
11.413298
 30
0.0
  0
LWPOLYLINE
  5
113
100
AcDbEntity
  8
Paris2024_Nouvel_embleme_Dossier_de_presse
 62
7
100
AcDbPolyline
 90
34
 70
1
 10
30.680001
 20
11.693287
 30
0.0
 10
29.358460
 20
11.439552
 30
0.0
 10
28.261848
 20
10.743964
 30
0.0
 10
27.488489
 20
9.704948
 30
0.0
 10
27.136710
 20
8.420928
 30
0.0
 10
27.723025
 20
8.320034
 30
0.0
 10
28.003334
 20
9.409155
 30
0.0
 10
28.646286
 20
10.292498
 30
0.0
 10
29.566852
 20
10.884931
 30
0.0
 10
30.680001
 20
11.101327
 30
0.0
 10
31.833786
 20
10.868450
 30
0.0
 10
32.775805
 20
10.233408
 30
0.0
 10
33.410842
 20
9.291581
 30
0.0
 10
33.643680
 20
8.138354
 30
0.0
 10
33.410842
 20
6.984680
 30
0.0
 10
32.775805
 20
6.042903
 30
0.0
 10
31.833786
 20
5.408109
 30
0.0
 10
30.680001
 20
5.175380
 30
0.0
 10
29.625871
 20
5.368476
 30
0.0
 10
28.738493
 20
5.900205
 30
0.0
 10
28.089505
 20
6.699228
 30
0.0
 10
27.750542
 20
7.694208
 30
0.0
 10
27.138827
 20
7.824382
 30
0.0
 10
27.497716
 20
6.551596
 30
0.0
 10
28.272166
 20
5.522160
 30
0.0
 10
29.365240
 20
4.833242
 30
0.0
 10
30.680001
 20
4.582010
 30
0.0
 10
32.063945
 20
4.861464
 30
0.0
 10
33.194154
 20
5.623584
 30
0.0
 10
33.956196
 20
6.754002
 30
0.0
 10
34.235640
 20
8.138354
 30
0.0
 10
33.956196
 20
9.522038
 30
0.0
 10
33.194154
 20
10.652022
 30
0.0
 10
32.063945
 20
11.413904
 30
0.0
  0
LWPOLYLINE
  5
114
100
AcDbEntity
  8
Paris2024_Nouvel_embleme_Dossier_de_presse
 62
7
100
AcDbPolyline
 90
27
 70
1
 10
22.976412
 20
11.693287
 30
0.0
 10
21.654413
 20
11.439304
 30
0.0
 10
20.557509
 20
10.743303
 30
0.0
 10
19.784056
 20
9.704204
 30
0.0
 10
19.432415
 20
8.420928
 30
0.0
 10
20.019436
 20
8.320034
 30
0.0
 10
20.299645
 20
9.409155
 30
0.0
 10
20.942432
 20
10.292498
 30
0.0
 10
21.862965
 20
10.884931
 30
0.0
 10
22.976412
 20
11.101327
 30
0.0
 10
24.129788
 20
10.868450
 30
0.0
 10
25.071598
 20
10.233408
 30
0.0
 10
25.706558
 20
9.291581
 30
0.0
 10
25.939385
 20
8.138354
 30
0.0
 10
25.787151
 20
7.198209
 30
0.0
 10
25.363389
 20
6.382715
 30
0.0
 10
24.717509
 20
5.740987
 30
0.0
 10
23.898923
 20
5.322136
 30
0.0
 10
23.865410
 20
4.878342
 30
0.0
 10
23.871407
 20
4.695957
 30
0.0
 10
24.932598
 20
5.168942
 30
0.0
 10
25.775476
 20
5.945933
 30
0.0
 10
26.331480
 20
6.958535
 30
0.0
 10
26.532050
 20
8.138354
 30
0.0
 10
26.252656
 20
9.522038
 30
0.0
 10
25.490697
 20
10.652022
 30
0.0
 10
24.360504
 20
11.413904
 30
0.0
  0
LWPOLYLINE
  5
115
100
AcDbEntity
  8
Paris2024_Nouvel_embleme_Dossier_de_presse
 62
7
100
AcDbPolyline
 90
13
 70
1
 10
23.272392
 20
4.878695
 30
0.0
 10
23.286855
 20
5.190903
 30
0.0
 10
22.976059
 20
5.175733
 30
0.0
 10
21.921460
 20
5.368824
 30
0.0
 10
21.033978
 20
5.900513
 30
0.0
 10
20.384819
 20
6.699432
 30
0.0
 10
20.045188
 20
7.694208
 30
0.0
 10
19.434884
 20
7.824030
 30
0.0
 10
19.793725
 20
6.551651
 30
0.0
 10
20.568092
 20
5.522425
 30
0.0
 10
21.661149
 20
4.833584
 30
0.0
 10
22.976059
 20
4.582363
 30
0.0
 10
23.283681
 20
4.596826
 30
0.0
  0
LWPOLYLINE
  5
116
100
AcDbEntity
  8
Paris2024_Nouvel_embleme_Dossier_de_presse
 62
7
100
AcDbPolyline
 90
14
 70
1
 10
24.502172
 20
27.338590
 30
0.0
 10
23.797985
 20
27.412144
 30
0.0
 10
22.976059
 20
27.059190
 30
0.0
 10
22.154133
 20
27.412144
 30
0.0
 10
21.449946
 20
27.338590
 30
0.0
 10
20.437476
 20
27.149501
 30
0.0
 10
20.868261
 20
26.500794
 30
0.0
 10
21.457531
 20
25.995789
 30
0.0
 10
22.171419
 20
25.668119
 30
0.0
 10
22.976059
 20
25.551422
 30
0.0
 10
23.780699
 20
25.668119
 30
0.0
 10
24.494587
 20
25.995789
 30
0.0
 10
25.083857
 20
26.500794
 30
0.0
 10
25.514642
 20
27.149501
 30
0.0
  0
LWPOLYLINE
  5
117
100
AcDbEntity
  8
Paris2024_Nouvel_embleme_Dossier_de_presse
 62
7
100
AcDbPolyline
 90
76
 70
1
 10
22.976412
 20
51.102348
 30
0.0
 10
20.183540
 20
50.820793
 30
0.0
 10
17.582205
 20
50.013281
 30
0.0
 10
15.228147
 20
48.735540
 30
0.0
 10
13.177107
 20
47.043297
 30
0.0
 10
11.484825
 20
44.992279
 30
0.0
 10
10.207040
 20
42.638216
 30
0.0
 10
9.399493
 20
40.036833
 30
0.0
 10
9.117924
 20
37.243860
 30
0.0
 10
9.325805
 20
34.839380
 30
0.0
 10
9.926042
 20
32.569792
 30
0.0
 10
10.883523
 20
30.470206
 30
0.0
 10
12.163138
 20
28.575734
 30
0.0
 10
13.729776
 20
26.921487
 30
0.0
 10
15.548325
 20
25.542575
 30
0.0
 10
17.583675
 20
24.474109
 30
0.0
 10
19.800714
 20
23.751201
 30
0.0
 10
18.113935
 20
24.876686
 30
0.0
 10
16.714302
 20
26.266920
 30
0.0
 10
15.618791
 20
27.871101
 30
0.0
 10
14.844375
 20
29.638431
 30
0.0
 10
14.408030
 20
31.518109
 30
0.0
 10
14.326730
 20
33.459335
 30
0.0
 10
14.617450
 20
35.411311
 30
0.0
 10
15.297164
 20
37.323235
 30
0.0
 10
15.747600
 20
35.892575
 30
0.0
 10
16.513054
 20
34.601781
 30
0.0
 10
17.568028
 20
33.510019
 30
0.0
 10
18.887022
 20
32.676457
 30
0.0
 10
18.148470
 20
34.916980
 30
0.0
 10
17.806246
 20
37.205876
 30
0.0
 10
17.848328
 20
39.494945
 30
0.0
 10
18.262695
 20
41.735989
 30
0.0
 10
19.037324
 20
43.880807
 30
0.0
 10
20.160194
 20
45.881200
 30
0.0
 10
21.619282
 20
47.688969
 30
0.0
 10
23.402566
 20
49.255914
 30
0.0
 10
23.140158
 20
47.963052
 30
0.0
 10
23.110599
 20
46.703661
 30
0.0
 10
23.304613
 20
45.483427
 30
0.0
 10
23.712922
 20
44.308041
 30
0.0
 10
24.326249
 20
43.183190
 30
0.0
 10
25.135318
 20
42.114562
 30
0.0
 10
26.130852
 20
41.107847
 30
0.0
 10
27.303573
 20
40.168733
 30
0.0
 10
28.570725
 20
39.011791
 30
0.0
 10
29.494770
 20
37.649934
 30
0.0
 10
30.077189
 20
36.147029
 30
0.0
 10
30.319463
 20
34.566945
 30
0.0
 10
30.223071
 20
32.973548
 30
0.0
 10
29.789493
 20
31.430708
 30
0.0
 10
29.020209
 20
30.002292
 30
0.0
 10
27.916700
 20
28.752167
 30
0.0
 10
28.904740
 20
29.066750
 30
0.0
 10
29.836688
 20
29.538462
 30
0.0
 10
30.691643
 20
30.164096
 30
0.0
 10
31.448702
 20
30.940442
 30
0.0
 10
30.779451
 20
28.778355
 30
0.0
 10
29.655184
 20
26.804618
 30
0.0
 10
28.103352
 20
25.101483
 30
0.0
 10
26.151404
 20
23.751201
 30
0.0
 10
28.368545
 20
24.474109
 30
0.0
 10
30.403942
 20
25.542575
 30
0.0
 10
32.222498
 20
26.921487
 30
0.0
 10
33.789112
 20
28.575734
 30
0.0
 10
35.068688
 20
30.470206
 30
0.0
 10
36.026126
 20
32.569792
 30
0.0
 10
36.626327
 20
34.839380
 30
0.0
 10
36.834194
 20
37.243860
 30
0.0
 10
36.552656
 20
40.036833
 30
0.0
 10
35.745189
 20
42.638216
 30
0.0
 10
34.467517
 20
44.992279
 30
0.0
 10
32.775364
 20
47.043297
 30
0.0
 10
30.724453
 20
48.735540
 30
0.0
 10
28.370509
 20
50.013281
 30
0.0
 10
25.769254
 20
50.820793
 30
0.0
  0
ENDSEC
  0
SECTION
  2
OBJECTS
  0
DICTIONARY
  5
C
330
0
100
AcDbDictionary
  3
ACAD_GROUP
350
D
  3
ACAD_MLINESTYLE
350
17
  0
DICTIONARY
  5
D
330
C
100
AcDbDictionary
  0
DICTIONARY
  5
1A
330
C
100
AcDbDictionary
  0
DICTIONARY
  5
17
330
C
100
AcDbDictionary
  3
STANDARD
350
18
  0
DICTIONARY
  5
19
330
C
100
AcDbDictionary
  0
ENDSEC
  0
EOF
