  0
SECTION
  2
HEADER
  9
$ACADVER
  1
AC1014
  9
$HANDSEED
  5
FFFF
  9
$INSUNITS
 70
     1
  9
$MEASUREMENT
 70
     1
  0
ENDSEC
  0
SECTION
  2
TABLES
  0
TABLE
  2
VPORT
  5
8
330
0
100
AcDbSymbolTable
 70
     4
  0
VPORT
  5
2E
330
8
100
AcDbSymbolTableRecord
100
AcDbViewportTableRecord
  2
*ACTIVE
 70
     0
 10
0.0
 20
0.0
 11
1.0
 21
1.0
 12
210.0
 22
148.5
 13
0.0
 23
0.0
 14
10.0
 24
10.0
 15
10.0
 25
10.0
 16
0.0
 26
0.0
 36
1.0
 17
0.0
 27
0.0
 37
0.0
 40
341.0
 41
1.24
 42
50.0
 43
0.0
 44
0.0
 50
0.0
 51
0.0
 71
     0
 72
   100
 73
     1
 74
     3
 75
     0
 76
     0
 77
     0
 78
     0
  0
ENDTAB
  0
TABLE
  2
LTYPE
  5
5
330
0
100
AcDbSymbolTable
 70
     1
  0
LTYPE
  5
14
330
5
100
AcDbSymbolTableRecord
100
AcDbLinetypeTableRecord
  2
BYBLOCK
 70
     0
  3

 72
    65
 73
     0
 40
0.0
  0
LTYPE
  5
15
330
5
100
AcDbSymbolTableRecord
100
AcDbLinetypeTableRecord
  2
BYLAYER
 70
     0
  3

 72
    65
 73
     0
 40
0.0
  0
LTYPE
  5
16
330
5
100
AcDbSymbolTableRecord
100
AcDbLinetypeTableRecord
  2
CONTINUOUS
 70
     0
  3
Solid line
 72
    65
 73
     0
 40
0.0
  0
ENDTAB
  0
TABLE
  2
LAYER
  5
2
100
AcDbSymbolTable
 70
2
  0
LAYER
  5
50
100
AcDbSymbolTableRecord
100
AcDbLayerTableRecord
  2
0
 70
0
  6
CONTINUOUS
  0
LAYER
  5
51
100
AcDbSymbolTableRecord
100
AcDbLayerTableRecord
  2
main
 70
0
  6
CONTINUOUS
  0
ENDTAB
  0
TABLE
  2
STYLE
  5
3
330
0
100
AcDbSymbolTable
 70
     1
  0
STYLE
  5
11
330
3
100
AcDbSymbolTableRecord
100
AcDbTextStyleTableRecord
  2
STANDARD
 70
     0
 40
0.0
 41
1.0
 50
0.0
 71
     0
 42
2.5
  3
txt
  4

  0
ENDTAB
  0
TABLE
  2
VIEW
  5
6
330
0
100
AcDbSymbolTable
 70
     0
  0
ENDTAB
  0
TABLE
  2
UCS
  5
7
330
0
100
AcDbSymbolTable
 70
     0
  0
ENDTAB
  0
TABLE
  2
APPID
  5
9
330
0
100
AcDbSymbolTable
 70
     2
  0
APPID
  5
12
330
9
100
AcDbSymbolTableRecord
100
AcDbRegAppTableRecord
  2
ACAD
 70
     0
  0
ENDTAB
  0
TABLE
  2
DIMSTYLE
  5
A
330
0
100
AcDbSymbolTable
 70
     1
  0
DIMSTYLE
105
27
330
A
100
AcDbSymbolTableRecord
100
AcDbDimStyleTableRecord
  2
ISO-25
 70
     0
  3

  4

  5

  6

  7

 40
1.0
 41
2.5
 42
0.625
 43
3.75
 44
1.25
 45
0.0
 46
0.0
 47
0.0
 48
0.0
140
2.5
141
2.5
142
0.0
143
0.03937007874016
144
1.0
145
0.0
146
1.0
147
0.625
 71
     0
 72
     0
 73
     0
 74
     0
 75
     0
 76
     0
 77
     1
 78
     8
170
     0
171
     3
172
     1
173
     0
174
     0
175
     0
176
     0
177
     0
178
     0
270
     2
271
     2
272
     2
273
     2
274
     3
340
11
275
     0
280
     0
281
     0
282
     0
283
     0
284
     8
285
     0
286
     0
287
     3
288
     0
  0
ENDTAB
  0
TABLE
  2
BLOCK_RECORD
  5
1
330
0
100
AcDbSymbolTable
 70
     1
  0
BLOCK_RECORD
  5
1F
330
1
100
AcDbSymbolTableRecord
100
AcDbBlockTableRecord
  2
*MODEL_SPACE
  0
BLOCK_RECORD
  5
1B
330
1
100
AcDbSymbolTableRecord
100
AcDbBlockTableRecord
  2
*PAPER_SPACE
  0
ENDTAB
  0
ENDSEC
  0
SECTION
  2
BLOCKS
  0
BLOCK
  5
20
330
1F
100
AcDbEntity
  8
0
100
AcDbBlockBegin
  2
*MODEL_SPACE
 70
     0
 10
0.0
 20
0.0
 30
0.0
  3
*MODEL_SPACE
  1

  0
ENDBLK
  5
21
330
1F
100
AcDbEntity
  8
0
100
AcDbBlockEnd
  0
BLOCK
  5
1C
330
1B
100
AcDbEntity
 67
     1
  8
0
100
AcDbBlockBegin
  2
*PAPER_SPACE
  1

  0
ENDBLK
  5
1D
330
1B
100
AcDbEntity
 67
     1
  8
0
100
AcDbBlockEnd
  0
ENDSEC
  0
SECTION
  2
ENTITIES
  0
LWPOLYLINE
  5
100
100
AcDbEntity
  8
main
 62
7
100
AcDbPolyline
 90
79
 70
1
 10
12.452099
 20
478.365844
 30
0.0
 10
12.529654
 20
468.227180
 30
0.0
 10
12.828527
 20
461.734262
 30
0.0
 10
13.448033
 20
452.453356
 30
0.0
 10
14.487401
 20
433.950642
 30
0.0
 10
15.286485
 20
422.483473
 30
0.0
 10
16.438714
 20
411.551144
 30
0.0
 10
17.867549
 20
401.092186
 30
0.0
 10
19.496197
 20
391.044877
 30
0.0
 10
21.248119
 20
381.348850
 30
0.0
 10
23.046524
 20
371.941537
 30
0.0
 10
26.476117
 20
353.747517
 30
0.0
 10
28.950331
 20
338.791150
 30
0.0
 10
30.951004
 20
324.600170
 30
0.0
 10
32.520724
 20
310.950210
 30
0.0
 10
33.701993
 20
297.616903
 30
0.0
 10
34.537315
 20
284.374190
 30
0.0
 10
35.069275
 20
270.997703
 30
0.0
 10
35.340378
 20
257.261383
 30
0.0
 10
35.393210
 20
242.940863
 30
0.0
 10
35.308035
 20
239.572823
 30
0.0
 10
35.109407
 20
237.629723
 30
0.0
 10
34.562969
 20
235.281070
 30
0.0
 10
34.443335
 20
233.559797
 30
0.0
 10
34.544596
 20
231.655643
 30
0.0
 10
34.496844
 20
230.711610
 30
0.0
 10
34.327511
 20
229.843777
 30
0.0
 10
34.147848
 20
228.945463
 30
0.0
 10
34.068939
 20
227.905757
 30
0.0
 10
34.196870
 20
226.820330
 30
0.0
 10
34.467634
 20
225.789090
 30
0.0
 10
34.737213
 20
224.711283
 30
0.0
 10
34.861673
 20
223.484463
 30
0.0
 10
34.737551
 20
222.140803
 30
0.0
 10
34.451717
 20
220.753117
 30
0.0
 10
34.145477
 20
219.278223
 30
0.0
 10
33.960311
 20
217.673790
 30
0.0
 10
34.010688
 20
216.255623
 30
0.0
 10
34.219391
 20
215.111777
 30
0.0
 10
34.440456
 20
213.861250
 30
0.0
 10
34.528001
 20
212.119657
 30
0.0
 10
34.319552
 20
209.759997
 30
0.0
 10
33.884281
 20
207.065057
 30
0.0
 10
33.423525
 20
204.268517
 30
0.0
 10
33.138706
 20
201.604903
 30
0.0
 10
33.183325
 20
199.315517
 30
0.0
 10
33.436902
 20
197.309763
 30
0.0
 10
33.690394
 20
195.320097
 30
0.0
 10
33.734505
 20
193.079817
 30
0.0
 10
33.328783
 20
190.235017
 30
0.0
 10
32.614704
 20
186.892377
 30
0.0
 10
31.955828
 20
183.477770
 30
0.0
 10
31.760671
 20
181.875877
 30
0.0
 10
31.715713
 20
180.416223
 30
0.0
 10
31.829082
 20
174.914583
 30
0.0
 10
31.771255
 20
172.175617
 30
0.0
 10
31.580416
 20
169.465437
 30
0.0
 10
31.208306
 20
166.757797
 30
0.0
 10
30.689130
 20
164.005283
 30
0.0
 10
29.536393
 20
158.313990
 30
0.0
 10
28.646547
 20
151.945363
 30
0.0
 10
28.151077
 20
145.849363
 30
0.0
 10
27.497789
 20
136.421730
 30
0.0
 10
26.951435
 20
132.247663
 30
0.0
 10
26.031532
 20
127.067756
 30
0.0
 10
24.065572
 20
117.167683
 30
0.0
 10
21.023329
 20
102.036903
 30
0.0
 10
18.614732
 20
87.781576
 30
0.0
 10
16.765273
 20
74.458430
 30
0.0
 10
15.400616
 20
62.119956
 30
0.0
 10
14.446253
 20
50.821190
 30
0.0
 10
13.827848
 20
40.617163
 30
0.0
 10
13.470978
 20
31.561216
 30
0.0
 10
13.301137
 20
23.708383
 30
0.0
 10
13.262021
 20
10.806876
 30
0.0
 10
13.299951
 20
0.557976
 30
0.0
 10
0.629597
 20
0.557976
 30
0.0
 10
0.558064
 20
220.871650
 30
0.0
 10
0.629553
 20
478.365844
 30
0.0
  0
ENDSEC
  0
SECTION
  2
OBJECTS
  0
DICTIONARY
  5
C
330
0
100
AcDbDictionary
  3
ACAD_GROUP
350
D
  3
ACAD_MLINESTYLE
350
17
  0
DICTIONARY
  5
D
330
C
100
AcDbDictionary
  0
DICTIONARY
  5
1A
330
C
100
AcDbDictionary
  0
DICTIONARY
  5
17
330
C
100
AcDbDictionary
  3
STANDARD
350
18
  0
DICTIONARY
  5
19
330
C
100
AcDbDictionary
  0
ENDSEC
  0
EOF
