<?xml version="1.0" encoding="UTF-8" standalone="no"?>
<svg
   width="35.951294mm"
   height="478.92816mm"
   viewBox="0 0 424.62174 5656.6318"
   version="1.1"
   id="svg1"
   sodipodi:docname="torche_contour.svg"
   inkscape:version="1.3 (1:1.3+202307231459+0e150ed6c4)"
   xml:space="preserve"
   xmlns:inkscape="http://www.inkscape.org/namespaces/inkscape"
   xmlns:sodipodi="http://sodipodi.sourceforge.net/DTD/sodipodi-0.dtd"
   xmlns="http://www.w3.org/2000/svg"
   xmlns:svg="http://www.w3.org/2000/svg"><sodipodi:namedview
     id="namedview1"
     pagecolor="#ffffff"
     bordercolor="#000000"
     borderopacity="0.25"
     inkscape:showpageshadow="2"
     inkscape:pageopacity="0.0"
     inkscape:pagecheckerboard="0"
     inkscape:deskcolor="#d1d1d1"
     inkscape:document-units="in"
     inkscape:zoom="0.56151819"
     inkscape:cx="-46.303041"
     inkscape:cy="611.73441"
     inkscape:window-width="1920"
     inkscape:window-height="1031"
     inkscape:window-x="0"
     inkscape:window-y="25"
     inkscape:window-maximized="1"
     inkscape:current-layer="layer2"
     showguides="true"><sodipodi:guide
       position="1870.1446,1860.1587"
       orientation="0,-1"
       id="guide5"
       inkscape:locked="false" /><sodipodi:guide
       position="1976.5701,1860.1587"
       orientation="1,0"
       id="guide6"
       inkscape:locked="false" /><sodipodi:guide
       position="1971.9439,5873.5467"
       orientation="0,-1"
       id="guide7"
       inkscape:locked="false" /></sodipodi:namedview><defs
     id="defs1" /><g
     inkscape:groupmode="layer"
     id="layer2"
     inkscape:label="main"
     style="opacity:0.518"
     transform="translate(6.4640373,6.6415252)"><path
       style="font-variation-settings:normal;fill:none;fill-opacity:1;stroke:#000000;stroke-width:13.1826;stroke-linecap:square;stroke-linejoin:miter;stroke-miterlimit:4;stroke-dasharray:none;stroke-dashoffset:0;stroke-opacity:1;stop-color:#000000"
       d="m 140.608,0 0.916,119.748 3.53,76.688 7.317,109.617 12.276,218.536 9.438,135.439 13.609,129.122 16.876,123.531 19.236,118.669 20.692,114.52 21.241,111.11 40.507,214.89 29.223,176.65 23.63,167.61 18.54,161.22 13.952,157.48 9.866,156.41 6.283,157.99 3.202,162.24 0.624,169.14 -1.006,39.78 -2.346,22.95 -6.454,27.74 -1.413,20.33 1.196,22.49 -0.564,11.15 -2,10.25 -2.122,10.61 -0.932,12.28 1.511,12.82 3.198,12.18 3.184,12.73 1.47,14.49 -1.466,15.87 -3.376,16.39 -3.617,17.42 -2.187,18.95 0.595,16.75 2.465,13.51 2.611,14.77 1.034,20.57 -2.462,27.87 -5.141,31.83 -5.442,33.03 -3.364,31.46 0.527,27.04 2.995,23.69 2.994,23.5 0.521,26.46 -4.792,33.6 -8.434,39.48 -7.782,40.33 -2.305,18.92 -0.531,17.24 1.339,64.98 -0.683,32.35 -2.254,32.01 -4.395,31.98 -6.132,32.51 -13.615,67.22 -10.51,75.22 -5.852,72 -7.716,111.35 -6.453,49.3 -10.865,61.18 -23.22,116.93 -35.932,178.71 -28.448,168.37 -21.844,157.36 -16.118,145.73 -11.272,133.45 -7.304,120.52 -4.215,106.96 -2.006,92.75 -0.462,152.38 0.448,121.05 H 0.972145 L 0.127263,3041.27 0.971622,0 H 140.608"
       id="path5"
       sodipodi:nodetypes="csssszzzzzzzzzzzzzzcccc" /></g></svg>
