<?xml version="1.0" standalone="no"?>
<!DOCTYPE svg PUBLIC "-//W3C//DTD SVG 1.1//EN" "http://www.w3.org/Graphics/SVG/1.1/DTD/svg11.dtd">
<svg width="819mm" height="479mm" viewBox="-174 -239 819 479" xmlns="http://www.w3.org/2000/svg" version="1.1">
<title>OpenSCAD Model</title>
<path d="
M 122.262,229.193 L 122.301,216.292 L 122.471,208.438 L 122.828,199.383 L 123.446,189.179 L 124.4,177.88
 L 125.766,165.542 L 127.614,152.219 L 130.023,137.963 L 133.065,122.832 L 135.031,112.933 L 135.951,107.752
 L 136.498,103.578 L 137.151,94.1504 L 137.646,88.0547 L 138.536,81.6855 L 139.689,75.9951 L 140.208,73.2422
 L 140.58,70.5342 L 140.771,67.8242 L 140.829,65.085 L 140.716,59.584 L 140.761,58.124 L 140.956,56.5225
 L 141.614,53.1074 L 142.329,49.7646 L 142.734,46.9199 L 142.69,44.6797 L 142.437,42.6904 L 142.184,40.6846
 L 142.139,38.3955 L 142.424,35.7314 L 142.885,32.9346 L 143.319,30.2402 L 143.528,27.8799 L 143.44,26.1387
 L 143.22,24.8887 L 143.011,23.7441 L 142.96,22.3262 L 143.146,20.7217 L 143.452,19.2471 L 143.737,17.8594
 L 143.861,16.5156 L 143.737,15.2891 L 143.468,14.2109 L 143.197,13.1797 L 143.069,12.0947 L 143.147,11.0547
 L 143.327,10.1562 L 143.497,9.28809 L 143.545,8.34473 L 143.443,6.44043 L 143.562,4.71875 L 144.109,2.37012
 L 144.308,0.426758 L 144.394,-2.94043 L 144.341,-17.2617 L 144.069,-30.998 L 143.537,-44.374 L 142.702,-57.6172
 L 141.521,-70.9502 L 139.951,-84.6006 L 137.95,-98.791 L 135.477,-113.747 L 132.047,-131.941 L 130.248,-141.349
 L 128.496,-151.045 L 126.867,-161.092 L 125.438,-171.551 L 124.286,-182.483 L 123.487,-193.95 L 122.448,-212.453
 L 121.828,-221.734 L 121.529,-228.228 L 121.452,-238.366 L 109.63,-238.366 L 109.628,-231.6 L 116,-231.6
 L 116,-228.4 L 109.627,-228.4 L 109.608,-161.6 L 116,-161.6 L 116,-158.4 L 109.607,-158.4
 L 109.591,-101.6 L 126,-101.6 L 126,-98.4 L 109.591,-98.4 L 109.571,-30 L 125,-30
 L 125,90 L 109.581,90 L 109.584,98.4 L 126,98.4 L 126,101.6 L 109.585,101.6
 L 109.603,158.4 L 116,158.4 L 116,161.6 L 109.604,161.6 L 109.626,228.4 L 116,228.4
 L 116,231.6 L 109.627,231.6 L 109.63,239.442 L 122.3,239.442 z
M 90.3727,231.6 L 84,231.6 L 84,228.4 L 90.3737,228.4 L 90.3956,161.6 L 84,161.6
 L 84,158.4 L 90.3967,158.4 L 90.4153,101.6 L 74,101.6 L 74,98.4 L 90.4164,98.4
 L 90.4191,90 L 75,90 L 75,-30 L 90.4286,-30 L 90.4094,-98.4 L 74,-98.4
 L 74,-101.6 L 90.4085,-101.6 L 90.3925,-158.4 L 84,-158.4 L 84,-161.6 L 90.3916,-161.6
 L 90.3729,-228.4 L 84,-228.4 L 84,-231.6 L 90.372,-231.6 L 90.3701,-238.366 L 78.5479,-238.366
 L 78.4707,-228.228 L 78.1719,-221.734 L 77.5518,-212.453 L 76.5127,-193.95 L 75.7139,-182.483 L 74.5615,-171.551
 L 73.1328,-161.092 L 71.5039,-151.045 L 69.752,-141.349 L 67.9531,-131.941 L 64.5234,-113.747 L 62.0498,-98.791
 L 60.0488,-84.6006 L 58.4795,-70.9502 L 57.2979,-57.6172 L 56.4629,-44.374 L 55.9307,-30.998 L 55.6592,-17.2617
 L 55.6064,-2.94043 L 55.6924,0.426758 L 55.8906,2.37012 L 56.4375,4.71875 L 56.5566,6.44043 L 56.4551,8.34473
 L 56.5029,9.28809 L 56.6729,10.1562 L 56.8525,11.0547 L 56.9307,12.0947 L 56.8027,13.1797 L 56.5322,14.2109
 L 56.2627,15.2891 L 56.1387,16.5156 L 56.2627,17.8594 L 56.5479,19.2471 L 56.8545,20.7217 L 57.04,22.3262
 L 56.9893,23.7441 L 56.7803,24.8887 L 56.5596,26.1387 L 56.4717,27.8799 L 56.6807,30.2402 L 57.1152,32.9346
 L 57.5762,35.7314 L 57.8613,38.3955 L 57.8164,40.6846 L 57.5635,42.6904 L 57.3096,44.6797 L 57.2656,46.9199
 L 57.6709,49.7646 L 58.3857,53.1074 L 59.0439,56.5225 L 59.2393,58.124 L 59.2842,59.584 L 59.1709,65.085
 L 59.2285,67.8242 L 59.4199,70.5342 L 59.792,73.2422 L 60.3105,75.9951 L 61.4639,81.6855 L 62.3535,88.0547
 L 62.8486,94.1504 L 63.502,103.578 L 64.0488,107.752 L 64.9688,112.933 L 66.9346,122.832 L 69.9766,137.963
 L 72.3857,152.219 L 74.2344,165.542 L 75.5996,177.88 L 76.5537,189.179 L 77.1719,199.383 L 77.5293,208.438
 L 77.6992,216.292 L 77.7383,229.193 L 77.7002,239.442 L 90.3701,239.442 z
M 622.262,229.193 L 622.301,216.292 L 622.471,208.438 L 622.828,199.383 L 623.446,189.179 L 624.4,177.88
 L 625.766,165.542 L 627.614,152.219 L 630.023,137.963 L 633.065,122.832 L 635.031,112.933 L 635.951,107.752
 L 636.498,103.578 L 637.151,94.1504 L 637.646,88.0547 L 638.536,81.6855 L 639.689,75.9951 L 640.208,73.2422
 L 640.58,70.5342 L 640.771,67.8242 L 640.829,65.085 L 640.716,59.584 L 640.761,58.124 L 640.956,56.5225
 L 641.614,53.1074 L 642.329,49.7646 L 642.734,46.9199 L 642.69,44.6797 L 642.437,42.6904 L 642.184,40.6846
 L 642.139,38.3955 L 642.424,35.7314 L 642.885,32.9346 L 643.319,30.2402 L 643.528,27.8799 L 643.44,26.1387
 L 643.22,24.8887 L 643.011,23.7441 L 642.96,22.3262 L 643.145,20.7217 L 643.452,19.2471 L 643.737,17.8594
 L 643.861,16.5156 L 643.737,15.2891 L 643.468,14.2109 L 643.197,13.1797 L 643.069,12.0947 L 643.147,11.0547
 L 643.327,10.1562 L 643.497,9.28809 L 643.545,8.34473 L 643.443,6.44043 L 643.562,4.71875 L 644.109,2.37012
 L 644.308,0.426758 L 644.394,-2.94043 L 644.341,-17.2617 L 644.069,-30.998 L 643.537,-44.374 L 642.702,-57.6172
 L 641.52,-70.9502 L 639.951,-84.6006 L 637.95,-98.791 L 635.477,-113.747 L 632.047,-131.941 L 630.248,-141.349
 L 628.496,-151.045 L 626.867,-161.092 L 625.438,-171.551 L 624.286,-182.483 L 623.487,-193.95 L 622.448,-212.453
 L 621.828,-221.734 L 621.529,-228.228 L 621.452,-238.366 L 609.63,-238.366 L 609.628,-231.6 L 615.912,-231.6
 L 615.912,-228.4 L 609.627,-228.4 L 609.608,-161.6 L 615.912,-161.6 L 615.912,-158.4 L 609.607,-158.4
 L 609.591,-101.6 L 625.858,-101.6 L 625.858,-98.4 L 609.591,-98.4 L 609.571,-30 L 628.868,-30
 L 628.868,90 L 609.581,90 L 609.584,98.4 L 625.858,98.4 L 625.858,101.6 L 609.585,101.6
 L 609.603,158.4 L 615.912,158.4 L 615.912,161.6 L 609.604,161.6 L 609.626,228.4 L 615.912,228.4
 L 615.912,231.6 L 609.627,231.6 L 609.63,239.442 L 622.3,239.442 z
M 590.373,231.6 L 584.088,231.6 L 584.088,228.4 L 590.374,228.4 L 590.396,161.6 L 584.088,161.6
 L 584.088,158.4 L 590.397,158.4 L 590.415,101.6 L 574.142,101.6 L 574.142,98.4 L 590.416,98.4
 L 590.419,90 L 571.132,90 L 571.132,-30 L 590.429,-30 L 590.409,-98.4 L 574.142,-98.4
 L 574.142,-101.6 L 590.408,-101.6 L 590.393,-158.4 L 584.088,-158.4 L 584.088,-161.6 L 590.392,-161.6
 L 590.373,-228.4 L 584.088,-228.4 L 584.088,-231.6 L 590.372,-231.6 L 590.37,-238.366 L 578.548,-238.366
 L 578.471,-228.228 L 578.172,-221.734 L 577.552,-212.453 L 576.513,-193.95 L 575.714,-182.483 L 574.562,-171.551
 L 573.133,-161.092 L 571.504,-151.045 L 569.752,-141.349 L 567.953,-131.941 L 564.523,-113.747 L 562.05,-98.791
 L 560.049,-84.6006 L 558.479,-70.9502 L 557.298,-57.6172 L 556.463,-44.374 L 555.931,-30.998 L 555.659,-17.2617
 L 555.606,-2.94043 L 555.692,0.426758 L 555.891,2.37012 L 556.438,4.71875 L 556.557,6.44043 L 556.455,8.34473
 L 556.503,9.28809 L 556.673,10.1562 L 556.853,11.0547 L 556.931,12.0947 L 556.803,13.1797 L 556.532,14.2109
 L 556.263,15.2891 L 556.139,16.5156 L 556.263,17.8594 L 556.548,19.2471 L 556.854,20.7217 L 557.04,22.3262
 L 556.989,23.7441 L 556.78,24.8887 L 556.56,26.1387 L 556.472,27.8799 L 556.681,30.2402 L 557.115,32.9346
 L 557.576,35.7314 L 557.861,38.3955 L 557.816,40.6846 L 557.563,42.6904 L 557.31,44.6797 L 557.266,46.9199
 L 557.671,49.7646 L 558.386,53.1074 L 559.044,56.5225 L 559.239,58.124 L 559.284,59.584 L 559.171,65.085
 L 559.229,67.8242 L 559.42,70.5342 L 559.792,73.2422 L 560.311,75.9951 L 561.464,81.6855 L 562.354,88.0547
 L 562.849,94.1504 L 563.502,103.578 L 564.049,107.752 L 564.969,112.933 L 566.935,122.832 L 569.977,137.963
 L 572.386,152.219 L 574.234,165.542 L 575.6,177.88 L 576.554,189.179 L 577.172,199.383 L 577.529,208.438
 L 577.699,216.292 L 577.738,229.193 L 577.7,239.442 L 590.37,239.442 z
M 528.868,-38 L 524.826,-38 L 524.826,-92 L 538.908,-92 L 537.95,-98.791 L 535.477,-113.747
 L 532.047,-131.941 L 530.248,-141.349 L 528.496,-151.045 L 526.867,-161.092 L 525.438,-171.551 L 524.286,-182.483
 L 523.487,-193.95 L 522.448,-212.453 L 521.828,-221.734 L 521.529,-228.228 L 521.452,-238.366 L 509.63,-238.366
 L 509.628,-231.6 L 516,-231.6 L 516,-228.4 L 509.627,-228.4 L 509.608,-161.6 L 516,-161.6
 L 516,-158.4 L 509.607,-158.4 L 509.591,-101.6 L 526,-101.6 L 526,-98.4 L 509.591,-98.4
 L 509.571,-30 L 528.868,-30 z
M 490.373,231.6 L 484,231.6 L 484,228.4 L 490.374,228.4 L 490.396,161.6 L 484,161.6
 L 484,158.4 L 490.397,158.4 L 490.415,101.6 L 474,101.6 L 474,98.4 L 490.416,98.4
 L 490.419,90 L 471.132,90 L 471.132,-30 L 490.429,-30 L 490.409,-98.4 L 474,-98.4
 L 474,-101.6 L 490.408,-101.6 L 490.393,-158.4 L 484,-158.4 L 484,-161.6 L 490.392,-161.6
 L 490.373,-228.4 L 484,-228.4 L 484,-231.6 L 490.372,-231.6 L 490.37,-238.366 L 478.548,-238.366
 L 478.471,-228.228 L 478.172,-221.734 L 477.552,-212.453 L 476.513,-193.95 L 475.714,-182.483 L 474.562,-171.551
 L 473.133,-161.092 L 471.504,-151.045 L 469.752,-141.349 L 467.953,-131.941 L 464.523,-113.747 L 462.05,-98.791
 L 460.049,-84.6006 L 458.479,-70.9502 L 457.298,-57.6172 L 456.463,-44.374 L 455.931,-30.998 L 455.659,-17.2617
 L 455.606,-2.94043 L 455.692,0.426758 L 455.891,2.37012 L 456.438,4.71875 L 456.557,6.44043 L 456.455,8.34473
 L 456.503,9.28809 L 456.673,10.1562 L 456.853,11.0547 L 456.931,12.0947 L 456.803,13.1797 L 456.532,14.2109
 L 456.263,15.2891 L 456.139,16.5156 L 456.263,17.8594 L 456.548,19.2471 L 456.854,20.7217 L 457.04,22.3262
 L 456.989,23.7441 L 456.78,24.8887 L 456.56,26.1387 L 456.472,27.8799 L 456.681,30.2402 L 457.115,32.9346
 L 457.576,35.7314 L 457.861,38.3955 L 457.816,40.6846 L 457.563,42.6904 L 457.31,44.6797 L 457.266,46.9199
 L 457.671,49.7646 L 458.386,53.1074 L 459.044,56.5225 L 459.239,58.124 L 459.284,59.584 L 459.171,65.085
 L 459.229,67.8242 L 459.42,70.5342 L 459.792,73.2422 L 460.311,75.9951 L 461.464,81.6855 L 462.354,88.0547
 L 462.849,94.1504 L 463.502,103.578 L 464.049,107.752 L 464.969,112.933 L 466.935,122.832 L 469.977,137.963
 L 472.386,152.219 L 474.234,165.542 L 475.6,177.88 L 476.554,189.179 L 477.172,199.383 L 477.529,208.438
 L 477.699,216.292 L 477.738,229.193 L 477.7,239.442 L 490.37,239.442 z
M 425,-38 L 421.5,-38 L 421.5,-92 L 438.908,-92 L 437.95,-98.791 L 435.477,-113.747
 L 432.047,-131.941 L 430.248,-141.349 L 428.496,-151.045 L 426.867,-161.092 L 425.438,-171.551 L 424.286,-182.483
 L 423.487,-193.95 L 422.448,-212.453 L 421.828,-221.734 L 421.529,-228.228 L 421.452,-238.366 L 409.63,-238.366
 L 409.628,-231.6 L 415.912,-231.6 L 415.912,-228.4 L 409.627,-228.4 L 409.608,-161.6 L 415.912,-161.6
 L 415.912,-158.4 L 409.607,-158.4 L 409.591,-101.6 L 425.858,-101.6 L 425.858,-98.4 L 409.591,-98.4
 L 409.571,-30 L 425,-30 z
M 390.373,231.6 L 384.088,231.6 L 384.088,228.4 L 390.374,228.4 L 390.396,161.6 L 384.088,161.6
 L 384.088,158.4 L 390.397,158.4 L 390.415,101.6 L 374.142,101.6 L 374.142,98.4 L 390.416,98.4
 L 390.419,90 L 375,90 L 375,-30 L 390.429,-30 L 390.409,-98.4 L 374.142,-98.4
 L 374.142,-101.6 L 390.408,-101.6 L 390.393,-158.4 L 384.088,-158.4 L 384.088,-161.6 L 390.392,-161.6
 L 390.373,-228.4 L 384.088,-228.4 L 384.088,-231.6 L 390.372,-231.6 L 390.37,-238.366 L 378.548,-238.366
 L 378.471,-228.228 L 378.172,-221.734 L 377.552,-212.453 L 376.513,-193.95 L 375.714,-182.483 L 374.562,-171.551
 L 373.133,-161.092 L 371.504,-151.045 L 369.752,-141.349 L 367.953,-131.941 L 364.523,-113.747 L 362.05,-98.791
 L 360.049,-84.6006 L 358.479,-70.9502 L 357.298,-57.6172 L 356.463,-44.374 L 355.931,-30.998 L 355.659,-17.2617
 L 355.606,-2.94043 L 355.692,0.426758 L 355.891,2.37012 L 356.438,4.71875 L 356.557,6.44043 L 356.455,8.34473
 L 356.503,9.28809 L 356.673,10.1562 L 356.853,11.0547 L 356.931,12.0947 L 356.803,13.1797 L 356.532,14.2109
 L 356.263,15.2891 L 356.139,16.5156 L 356.263,17.8594 L 356.548,19.2471 L 356.854,20.7217 L 357.04,22.3262
 L 356.989,23.7441 L 356.78,24.8887 L 356.56,26.1387 L 356.472,27.8799 L 356.681,30.2402 L 357.115,32.9346
 L 357.576,35.7314 L 357.861,38.3955 L 357.816,40.6846 L 357.563,42.6904 L 357.31,44.6797 L 357.266,46.9199
 L 357.671,49.7646 L 358.386,53.1074 L 359.044,56.5225 L 359.239,58.124 L 359.284,59.584 L 359.171,65.085
 L 359.229,67.8242 L 359.42,70.5342 L 359.792,73.2422 L 360.311,75.9951 L 361.464,81.6855 L 362.354,88.0547
 L 362.849,94.1504 L 363.502,103.578 L 364.049,107.752 L 364.969,112.933 L 366.935,122.832 L 369.977,137.963
 L 372.386,152.219 L 374.234,165.542 L 375.6,177.88 L 376.554,189.179 L 377.172,199.383 L 377.529,208.438
 L 377.699,216.292 L 377.738,229.193 L 377.7,239.442 L 390.37,239.442 z
M 328.868,-38 L 324.826,-38 L 324.826,-92 L 338.908,-92 L 337.95,-98.791 L 335.477,-113.747
 L 332.047,-131.941 L 330.248,-141.349 L 328.496,-151.045 L 326.867,-161.092 L 325.438,-171.551 L 324.286,-182.483
 L 323.487,-193.95 L 322.448,-212.453 L 321.828,-221.734 L 321.529,-228.228 L 321.452,-238.366 L 309.63,-238.366
 L 309.628,-231.6 L 316,-231.6 L 316,-228.4 L 309.627,-228.4 L 309.608,-161.6 L 316,-161.6
 L 316,-158.4 L 309.607,-158.4 L 309.591,-101.6 L 326,-101.6 L 326,-98.4 L 309.591,-98.4
 L 309.571,-30 L 328.868,-30 z
M 290.373,231.6 L 284,231.6 L 284,228.4 L 290.374,228.4 L 290.396,161.6 L 284,161.6
 L 284,158.4 L 290.397,158.4 L 290.415,101.6 L 274,101.6 L 274,98.4 L 290.416,98.4
 L 290.419,90 L 271.132,90 L 271.132,-30 L 290.429,-30 L 290.409,-98.4 L 274,-98.4
 L 274,-101.6 L 290.408,-101.6 L 290.393,-158.4 L 284,-158.4 L 284,-161.6 L 290.392,-161.6
 L 290.373,-228.4 L 284,-228.4 L 284,-231.6 L 290.372,-231.6 L 290.37,-238.366 L 278.548,-238.366
 L 278.471,-228.228 L 278.172,-221.734 L 277.552,-212.453 L 276.513,-193.95 L 275.714,-182.483 L 274.562,-171.551
 L 273.133,-161.092 L 271.504,-151.045 L 269.752,-141.349 L 267.953,-131.941 L 264.523,-113.747 L 262.05,-98.791
 L 260.049,-84.6006 L 258.479,-70.9502 L 257.298,-57.6172 L 256.463,-44.374 L 255.931,-30.998 L 255.659,-17.2617
 L 255.606,-2.94043 L 255.692,0.426758 L 255.891,2.37012 L 256.438,4.71875 L 256.557,6.44043 L 256.455,8.34473
 L 256.503,9.28809 L 256.673,10.1562 L 256.853,11.0547 L 256.931,12.0947 L 256.803,13.1797 L 256.532,14.2109
 L 256.263,15.2891 L 256.139,16.5156 L 256.263,17.8594 L 256.548,19.2471 L 256.854,20.7217 L 257.04,22.3262
 L 256.989,23.7441 L 256.78,24.8887 L 256.56,26.1387 L 256.472,27.8799 L 256.681,30.2402 L 257.115,32.9346
 L 257.576,35.7314 L 257.861,38.3955 L 257.816,40.6846 L 257.563,42.6904 L 257.31,44.6797 L 257.266,46.9199
 L 257.671,49.7646 L 258.386,53.1074 L 259.044,56.5225 L 259.239,58.124 L 259.284,59.584 L 259.171,65.085
 L 259.229,67.8242 L 259.42,70.5342 L 259.792,73.2422 L 260.311,75.9951 L 261.464,81.6855 L 262.354,88.0547
 L 262.849,94.1504 L 263.502,103.578 L 264.049,107.752 L 264.969,112.933 L 266.935,122.832 L 269.977,137.963
 L 272.386,152.219 L 274.234,165.542 L 275.6,177.88 L 276.554,189.179 L 277.172,199.383 L 277.529,208.438
 L 277.699,216.292 L 277.738,229.193 L 277.7,239.442 L 290.37,239.442 z
M 222.262,229.193 L 222.301,216.292 L 222.471,208.438 L 222.828,199.383 L 223.446,189.179 L 224.4,177.88
 L 225.766,165.542 L 227.614,152.219 L 230.023,137.963 L 233.065,122.832 L 235.031,112.933 L 235.951,107.752
 L 236.498,103.578 L 237.151,94.1504 L 237.646,88.0547 L 238.536,81.6855 L 239.689,75.9951 L 240.208,73.2422
 L 240.58,70.5342 L 240.771,67.8242 L 240.829,65.085 L 240.716,59.584 L 240.761,58.124 L 240.956,56.5225
 L 241.614,53.1074 L 242.329,49.7646 L 242.734,46.9199 L 242.69,44.6797 L 242.437,42.6904 L 242.184,40.6846
 L 242.139,38.3955 L 242.424,35.7314 L 242.885,32.9346 L 243.319,30.2402 L 243.528,27.8799 L 243.44,26.1387
 L 243.22,24.8887 L 243.011,23.7441 L 242.96,22.3262 L 243.145,20.7217 L 243.452,19.2471 L 243.737,17.8594
 L 243.861,16.5156 L 243.737,15.2891 L 243.468,14.2109 L 243.197,13.1797 L 243.069,12.0947 L 243.147,11.0547
 L 243.327,10.1562 L 243.497,9.28809 L 243.545,8.34473 L 243.443,6.44043 L 243.562,4.71875 L 244.109,2.37012
 L 244.308,0.426758 L 244.394,-2.94043 L 244.341,-17.2617 L 244.069,-30.998 L 243.537,-44.374 L 242.702,-57.6172
 L 241.52,-70.9502 L 239.951,-84.6006 L 237.95,-98.791 L 235.477,-113.747 L 232.047,-131.941 L 230.248,-141.349
 L 228.496,-151.045 L 226.867,-161.092 L 225.438,-171.551 L 224.286,-182.483 L 223.487,-193.95 L 222.448,-212.453
 L 221.828,-221.734 L 221.529,-228.228 L 221.452,-238.366 L 209.63,-238.366 L 209.628,-231.6 L 215.912,-231.6
 L 215.912,-228.4 L 209.627,-228.4 L 209.608,-161.6 L 215.912,-161.6 L 215.912,-158.4 L 209.607,-158.4
 L 209.591,-101.6 L 225.858,-101.6 L 225.858,-98.4 L 209.591,-98.4 L 209.571,-30 L 228.868,-30
 L 228.868,90 L 209.581,90 L 209.584,98.4 L 225.858,98.4 L 225.858,101.6 L 209.585,101.6
 L 209.603,158.4 L 215.912,158.4 L 215.912,161.6 L 209.604,161.6 L 209.626,228.4 L 215.912,228.4
 L 215.912,231.6 L 209.627,231.6 L 209.63,239.442 L 222.3,239.442 z
M 190.373,231.6 L 184.088,231.6 L 184.088,228.4 L 190.374,228.4 L 190.396,161.6 L 184.088,161.6
 L 184.088,158.4 L 190.397,158.4 L 190.415,101.6 L 174.142,101.6 L 174.142,98.4 L 190.416,98.4
 L 190.419,90 L 171.132,90 L 171.132,-30 L 190.429,-30 L 190.409,-98.4 L 174.142,-98.4
 L 174.142,-101.6 L 190.408,-101.6 L 190.393,-158.4 L 184.088,-158.4 L 184.088,-161.6 L 190.392,-161.6
 L 190.373,-228.4 L 184.088,-228.4 L 184.088,-231.6 L 190.372,-231.6 L 190.37,-238.366 L 178.548,-238.366
 L 178.471,-228.228 L 178.172,-221.734 L 177.552,-212.453 L 176.513,-193.95 L 175.714,-182.483 L 174.562,-171.551
 L 173.133,-161.092 L 171.504,-151.045 L 169.752,-141.349 L 167.953,-131.941 L 164.523,-113.747 L 162.05,-98.791
 L 160.049,-84.6006 L 158.479,-70.9502 L 157.298,-57.6172 L 156.463,-44.374 L 155.931,-30.998 L 155.659,-17.2617
 L 155.606,-2.94043 L 155.692,0.426758 L 155.891,2.37012 L 156.438,4.71875 L 156.557,6.44043 L 156.455,8.34473
 L 156.503,9.28809 L 156.673,10.1562 L 156.853,11.0547 L 156.931,12.0947 L 156.803,13.1797 L 156.532,14.2109
 L 156.263,15.2891 L 156.139,16.5156 L 156.263,17.8594 L 156.548,19.2471 L 156.854,20.7217 L 157.04,22.3262
 L 156.989,23.7441 L 156.78,24.8887 L 156.56,26.1387 L 156.472,27.8799 L 156.681,30.2402 L 157.115,32.9346
 L 157.576,35.7314 L 157.861,38.3955 L 157.816,40.6846 L 157.563,42.6904 L 157.31,44.6797 L 157.266,46.9199
 L 157.671,49.7646 L 158.386,53.1074 L 159.044,56.5225 L 159.239,58.124 L 159.284,59.584 L 159.171,65.085
 L 159.229,67.8242 L 159.42,70.5342 L 159.792,73.2422 L 160.311,75.9951 L 161.464,81.6855 L 162.354,88.0547
 L 162.849,94.1504 L 163.502,103.578 L 164.049,107.752 L 164.969,112.933 L 166.935,122.832 L 169.977,137.963
 L 172.386,152.219 L 174.234,165.542 L 175.6,177.88 L 176.554,189.179 L 177.172,199.383 L 177.529,208.438
 L 177.699,216.292 L 177.738,229.193 L 177.7,239.442 L 190.37,239.442 z
M -141.6,25.8576 L -138.4,25.8576 L -138.4,33.8137 L -136.446,33.8137 L -129.493,32.3359 L -124.47,30.0992
 L -128.47,23.171 L -127,22.5166 L -125.698,21.571 L -121.698,28.4992 L -117.25,25.2669 L -112.493,19.9847
 L -111.516,18.2925 L -118.407,14.3144 L -116.807,11.5431 L -109.916,15.5212 L -108.939,13.829 L -106.743,7.06898
 L -106.168,1.59999 L -114.168,1.59999 L -114,-0 L -114.168,-1.59999 L -106.168,-1.59999 L -106.743,-7.06898
 L -108.939,-13.829 L -109.916,-15.5212 L -116.807,-11.5431 L -118.407,-14.3144 L -111.516,-18.2925 L -112.493,-19.9847
 L -117.25,-25.2669 L -121.698,-28.4992 L -125.698,-21.571 L -127,-22.5166 L -128.47,-23.171 L -124.47,-30.0992
 L -129.493,-32.3359 L -136.446,-33.8137 L -138.4,-33.8137 L -138.4,-25.8576 L -141.6,-25.8576 L -141.6,-33.8137
 L -143.554,-33.8137 L -150.507,-32.3359 L -155.53,-30.0992 L -151.53,-23.171 L -153,-22.5166 L -154.302,-21.571
 L -158.302,-28.4992 L -162.75,-25.2669 L -167.507,-19.9847 L -168.484,-18.2925 L -161.593,-14.3144 L -163.193,-11.5431
 L -170.084,-15.5212 L -171.061,-13.829 L -173.257,-7.06898 L -173.832,-1.59999 L -165.832,-1.59999 L -166,-0
 L -165.832,1.59999 L -173.832,1.59999 L -173.257,7.06898 L -171.061,13.829 L -170.084,15.5212 L -163.193,11.5431
 L -161.593,14.3144 L -168.484,18.2925 L -167.507,19.9847 L -162.75,25.2669 L -158.302,28.4992 L -154.302,21.571
 L -153,22.5166 L -151.53,23.171 L -155.53,30.0992 L -150.507,32.3359 L -143.554,33.8137 L -141.6,33.8137
 z
M -140.927,2.85316 L -142.427,1.76335 L -143,-0 L -142.427,-1.76335 L -140.927,-2.85316 L -139.073,-2.85316
 L -137.573,-1.76335 L -137,-0 L -137.573,1.76335 L -139.073,2.85316 z
M -71.6,15.9123 L -68.4,15.9123 L -68.4,23.8685 L -67.4913,23.8685 L -62.5836,22.8253 L -59.4697,21.439
 L -63.4697,14.5108 L -62,13.8564 L -60.6984,12.9108 L -56.6984,19.839 L -53.9409,17.8355 L -50.5836,14.1068
 L -50.1292,13.3199 L -57.0195,9.34181 L -55.4195,6.57053 L -48.5292,10.5486 L -48.0749,9.76167 L -46.5244,4.98987
 L -46.1682,1.59999 L -54.1682,1.59999 L -54,-0 L -54.1682,-1.59999 L -46.1682,-1.59999 L -46.5244,-4.98987
 L -48.0749,-9.76167 L -48.5292,-10.5486 L -55.4195,-6.57053 L -57.0195,-9.34181 L -50.1292,-13.3199 L -50.5836,-14.1068
 L -53.9409,-17.8355 L -56.6984,-19.839 L -60.6984,-12.9108 L -62,-13.8564 L -63.4697,-14.5108 L -59.4697,-21.439
 L -62.5836,-22.8253 L -67.4913,-23.8685 L -68.4,-23.8685 L -68.4,-15.9123 L -71.6,-15.9123 L -71.6,-23.8685
 L -72.5087,-23.8685 L -77.4164,-22.8253 L -80.5303,-21.439 L -76.5303,-14.5108 L -78,-13.8564 L -79.3015,-12.9108
 L -83.3015,-19.839 L -86.0591,-17.8355 L -89.4164,-14.1068 L -89.8707,-13.3199 L -82.9805,-9.34181 L -84.5805,-6.57053
 L -91.4707,-10.5486 L -91.9251,-9.76167 L -93.4755,-4.98987 L -93.8318,-1.59999 L -85.8318,-1.59999 L -86,-0
 L -85.8318,1.59999 L -93.8318,1.59999 L -93.4755,4.98987 L -91.9251,9.76167 L -91.4707,10.5486 L -84.5805,6.57053
 L -82.9805,9.34181 L -89.8707,13.3199 L -89.4164,14.1068 L -86.0591,17.8355 L -83.3015,19.839 L -79.3015,12.9108
 L -78,13.8564 L -76.5303,14.5108 L -80.5303,21.439 L -77.4164,22.8253 L -72.5087,23.8685 L -71.6,23.8685
 z
M -70.927,2.85316 L -72.427,1.76335 L -73,-0 L -72.427,-1.76335 L -70.927,-2.85316 L -69.0729,-2.85316
 L -67.5729,-1.76335 L -67,-0 L -67.5729,1.76335 L -69.0729,2.85316 z
M -1.59999,15.9123 L 1.59999,15.9123 L 1.59999,19.8904 L 2.09056,19.8904 L 6.18033,19.0211 L 8.53027,17.9749
 L 6.53027,14.5108 L 8,13.8564 L 9.30154,12.9108 L 11.3015,16.3749 L 13.3826,14.8629 L 16.1803,11.7557
 L 16.4256,11.3309 L 12.9805,9.34181 L 14.5805,6.57053 L 18.0256,8.55957 L 18.2709,8.13472 L 19.5629,4.15823
 L 19.8318,1.59999 L 15.8318,1.59999 L 16,-0 L 15.8318,-1.59999 L 19.8318,-1.59999 L 19.5629,-4.15823
 L 18.2709,-8.13472 L 18.0256,-8.55957 L 14.5805,-6.57053 L 12.9805,-9.34181 L 16.4256,-11.3309 L 16.1803,-11.7557
 L 13.3826,-14.8629 L 11.3015,-16.3749 L 9.30154,-12.9108 L 8,-13.8564 L 6.53027,-14.5108 L 8.53027,-17.9749
 L 6.18033,-19.0211 L 2.09056,-19.8904 L 1.59999,-19.8904 L 1.59999,-15.9123 L -1.59999,-15.9123 L -1.59999,-19.8904
 L -2.09056,-19.8904 L -6.18033,-19.0211 L -8.53027,-17.9749 L -6.53027,-14.5108 L -8,-13.8564 L -9.30154,-12.9108
 L -11.3015,-16.3749 L -13.3826,-14.8629 L -16.1803,-11.7557 L -16.4256,-11.3309 L -12.9805,-9.34181 L -14.5805,-6.57053
 L -18.0256,-8.55957 L -18.2709,-8.13472 L -19.5629,-4.15823 L -19.8318,-1.59999 L -15.8318,-1.59999 L -16,-0
 L -15.8318,1.59999 L -19.8318,1.59999 L -19.5629,4.15823 L -18.2709,8.13472 L -18.0256,8.55957 L -14.5805,6.57053
 L -12.9805,9.34181 L -16.4256,11.3309 L -16.1803,11.7557 L -13.3826,14.8629 L -11.3015,16.3749 L -9.30154,12.9108
 L -8,13.8564 L -6.53027,14.5108 L -8.53027,17.9749 L -6.18033,19.0211 L -2.09056,19.8904 L -1.59999,19.8904
 z
M -0.927048,2.85316 L -2.42705,1.76335 L -3,-0 L -2.42705,-1.76335 L -0.927048,-2.85316 L 0.927048,-2.85316
 L 2.42705,-1.76335 L 3,-0 L 2.42705,1.76335 L 0.927048,2.85316 z
M -50,50 L -100,50 L -100,100 L -50,100 z
M 522.262,229.193 L 522.301,216.292 L 522.471,208.438 L 522.828,199.383 L 523.446,189.179 L 524.4,177.88
 L 525.766,165.542 L 527.614,152.219 L 530.023,137.963 L 533.065,122.832 L 535.031,112.933 L 535.951,107.752
 L 536.498,103.578 L 537.151,94.1504 L 537.488,90 L 509.581,90 L 509.584,98.4 L 526,98.4
 L 526,101.6 L 509.585,101.6 L 509.603,158.4 L 516,158.4 L 516,161.6 L 509.604,161.6
 L 509.626,228.4 L 516,228.4 L 516,231.6 L 509.627,231.6 L 509.63,239.442 L 522.3,239.442
 z
M 422.262,229.193 L 422.301,216.292 L 422.471,208.438 L 422.828,199.383 L 423.446,189.179 L 424.4,177.88
 L 425.766,165.542 L 427.614,152.219 L 430.023,137.963 L 433.065,122.832 L 435.031,112.933 L 435.951,107.752
 L 436.498,103.578 L 437.151,94.1504 L 437.488,90 L 409.581,90 L 409.584,98.4 L 425.858,98.4
 L 425.858,101.6 L 409.585,101.6 L 409.603,158.4 L 415.912,158.4 L 415.912,161.6 L 409.604,161.6
 L 409.626,228.4 L 415.912,228.4 L 415.912,231.6 L 409.627,231.6 L 409.63,239.442 L 422.3,239.442
 z
M 322.262,229.193 L 322.301,216.292 L 322.471,208.438 L 322.828,199.383 L 323.446,189.179 L 324.4,177.88
 L 325.766,165.542 L 327.614,152.219 L 330.023,137.963 L 333.065,122.832 L 335.031,112.933 L 335.951,107.752
 L 336.498,103.578 L 337.151,94.1504 L 337.488,90 L 309.581,90 L 309.584,98.4 L 326,98.4
 L 326,101.6 L 309.585,101.6 L 309.603,158.4 L 316,158.4 L 316,161.6 L 309.604,161.6
 L 309.626,228.4 L 316,228.4 L 316,231.6 L 309.627,231.6 L 309.63,239.442 L 322.3,239.442
 z
" stroke="black" fill="lightgray" stroke-width="0.5"/>
</svg>
