<?xml version="1.0" standalone="no"?>
<!DOCTYPE svg PUBLIC "-//W3C//DTD SVG 1.1//EN" "http://www.w3.org/Graphics/SVG/1.1/DTD/svg11.dtd">
<svg width="939mm" height="479mm" viewBox="-174 -239 939 479" xmlns="http://www.w3.org/2000/svg" version="1.1">
<title>OpenSCAD Model</title>
<path d="
M 142.262,229.193 L 142.301,216.292 L 142.471,208.438 L 142.828,199.383 L 143.446,189.179 L 144.4,177.88
 L 145.766,165.542 L 147.614,152.219 L 150.023,137.963 L 153.065,122.832 L 155.031,112.933 L 155.951,107.752
 L 156.498,103.578 L 157.151,94.1504 L 157.646,88.0547 L 158.536,81.6855 L 159.689,75.9951 L 160.208,73.2422
 L 160.58,70.5342 L 160.771,67.8242 L 160.829,65.085 L 160.716,59.584 L 160.761,58.124 L 160.956,56.5225
 L 161.614,53.1074 L 162.329,49.7646 L 162.734,46.9199 L 162.69,44.6797 L 162.437,42.6904 L 162.184,40.6846
 L 162.139,38.3955 L 162.424,35.7314 L 162.885,32.9346 L 163.319,30.2402 L 163.528,27.8799 L 163.44,26.1387
 L 163.22,24.8887 L 163.011,23.7441 L 162.96,22.3262 L 163.146,20.7217 L 163.452,19.2471 L 163.737,17.8594
 L 163.861,16.5156 L 163.737,15.2891 L 163.468,14.2109 L 163.197,13.1797 L 163.069,12.0947 L 163.147,11.0547
 L 163.327,10.1562 L 163.497,9.28809 L 163.545,8.34473 L 163.443,6.44043 L 163.562,4.71875 L 164.109,2.37012
 L 164.308,0.426758 L 164.394,-2.94043 L 164.341,-17.2617 L 164.069,-30.998 L 163.537,-44.374 L 162.702,-57.6172
 L 161.521,-70.9502 L 159.951,-84.6006 L 157.95,-98.791 L 155.477,-113.747 L 152.047,-131.941 L 150.248,-141.349
 L 148.496,-151.045 L 146.867,-161.092 L 145.438,-171.551 L 144.286,-182.483 L 143.487,-193.95 L 142.448,-212.453
 L 141.828,-221.734 L 141.529,-228.228 L 141.452,-238.366 L 129.63,-238.366 L 129.628,-231.45 L 136,-231.45
 L 136,-228.55 L 129.627,-228.55 L 129.608,-161.45 L 136,-161.45 L 136,-158.55 L 129.607,-158.55
 L 129.591,-101.45 L 146,-101.45 L 146,-98.55 L 129.591,-98.55 L 129.571,-30 L 145,-30
 L 145,90 L 129.581,90 L 129.584,98.55 L 146,98.55 L 146,101.45 L 129.585,101.45
 L 129.603,158.55 L 136,158.55 L 136,161.45 L 129.604,161.45 L 129.626,228.55 L 136,228.55
 L 136,231.45 L 129.627,231.45 L 129.63,239.442 L 142.3,239.442 z
M 110.373,231.45 L 104,231.45 L 104,228.55 L 110.374,228.55 L 110.396,161.45 L 104,161.45
 L 104,158.55 L 110.397,158.55 L 110.415,101.45 L 94,101.45 L 94,98.55 L 110.416,98.55
 L 110.419,90 L 95,90 L 95,-30 L 110.429,-30 L 110.409,-98.55 L 94,-98.55
 L 94,-101.45 L 110.409,-101.45 L 110.393,-158.55 L 104,-158.55 L 104,-161.45 L 110.392,-161.45
 L 110.373,-228.55 L 104,-228.55 L 104,-231.45 L 110.372,-231.45 L 110.37,-238.366 L 98.5479,-238.366
 L 98.4707,-228.228 L 98.1719,-221.734 L 97.5518,-212.453 L 96.5127,-193.95 L 95.7139,-182.483 L 94.5615,-171.551
 L 93.1328,-161.092 L 91.5039,-151.045 L 89.752,-141.349 L 87.9531,-131.941 L 84.5234,-113.747 L 82.0498,-98.791
 L 80.0488,-84.6006 L 78.4795,-70.9502 L 77.2979,-57.6172 L 76.4629,-44.374 L 75.9307,-30.998 L 75.6592,-17.2617
 L 75.6064,-2.94043 L 75.6924,0.426758 L 75.8906,2.37012 L 76.4375,4.71875 L 76.5566,6.44043 L 76.4551,8.34473
 L 76.5029,9.28809 L 76.6729,10.1562 L 76.8525,11.0547 L 76.9307,12.0947 L 76.8027,13.1797 L 76.5322,14.2109
 L 76.2627,15.2891 L 76.1387,16.5156 L 76.2627,17.8594 L 76.5479,19.2471 L 76.8545,20.7217 L 77.04,22.3262
 L 76.9893,23.7441 L 76.7803,24.8887 L 76.5596,26.1387 L 76.4717,27.8799 L 76.6807,30.2402 L 77.1152,32.9346
 L 77.5762,35.7314 L 77.8613,38.3955 L 77.8164,40.6846 L 77.5635,42.6904 L 77.3096,44.6797 L 77.2656,46.9199
 L 77.6709,49.7646 L 78.3857,53.1074 L 79.0439,56.5225 L 79.2393,58.124 L 79.2842,59.584 L 79.1709,65.085
 L 79.2285,67.8242 L 79.4199,70.5342 L 79.792,73.2422 L 80.3105,75.9951 L 81.4639,81.6855 L 82.3535,88.0547
 L 82.8486,94.1504 L 83.502,103.578 L 84.0488,107.752 L 84.9688,112.933 L 86.9346,122.832 L 89.9766,137.963
 L 92.3857,152.219 L 94.2344,165.542 L 95.5996,177.88 L 96.5537,189.179 L 97.1719,199.383 L 97.5293,208.438
 L 97.6992,216.292 L 97.7383,229.193 L 97.7002,239.442 L 110.37,239.442 z
M 742.262,229.193 L 742.301,216.292 L 742.471,208.438 L 742.828,199.383 L 743.446,189.179 L 744.4,177.88
 L 745.766,165.542 L 747.614,152.219 L 750.023,137.963 L 753.065,122.832 L 755.031,112.933 L 755.951,107.752
 L 756.498,103.578 L 757.151,94.1504 L 757.646,88.0547 L 758.536,81.6855 L 759.689,75.9951 L 760.208,73.2422
 L 760.58,70.5342 L 760.771,67.8242 L 760.829,65.085 L 760.716,59.584 L 760.761,58.124 L 760.956,56.5225
 L 761.614,53.1074 L 762.329,49.7646 L 762.734,46.9199 L 762.69,44.6797 L 762.437,42.6904 L 762.184,40.6846
 L 762.139,38.3955 L 762.424,35.7314 L 762.885,32.9346 L 763.319,30.2402 L 763.528,27.8799 L 763.44,26.1387
 L 763.22,24.8887 L 763.011,23.7441 L 762.96,22.3262 L 763.145,20.7217 L 763.452,19.2471 L 763.737,17.8594
 L 763.861,16.5156 L 763.737,15.2891 L 763.468,14.2109 L 763.197,13.1797 L 763.069,12.0947 L 763.147,11.0547
 L 763.327,10.1562 L 763.497,9.28809 L 763.545,8.34473 L 763.443,6.44043 L 763.562,4.71875 L 764.109,2.37012
 L 764.308,0.426758 L 764.394,-2.94043 L 764.341,-17.2617 L 764.069,-30.998 L 763.537,-44.374 L 762.702,-57.6172
 L 761.52,-70.9502 L 759.951,-84.6006 L 757.95,-98.791 L 755.477,-113.747 L 752.047,-131.941 L 750.248,-141.349
 L 748.496,-151.045 L 746.867,-161.092 L 745.438,-171.551 L 744.286,-182.483 L 743.487,-193.95 L 742.448,-212.453
 L 741.828,-221.734 L 741.529,-228.228 L 741.452,-238.366 L 729.63,-238.366 L 729.628,-231.45 L 735.912,-231.45
 L 735.912,-228.55 L 729.627,-228.55 L 729.608,-161.45 L 735.912,-161.45 L 735.912,-158.55 L 729.607,-158.55
 L 729.591,-101.45 L 745.858,-101.45 L 745.858,-98.55 L 729.591,-98.55 L 729.571,-30 L 748.868,-30
 L 748.868,90 L 729.581,90 L 729.584,98.55 L 745.858,98.55 L 745.858,101.45 L 729.585,101.45
 L 729.603,158.55 L 735.912,158.55 L 735.912,161.45 L 729.604,161.45 L 729.626,228.55 L 735.912,228.55
 L 735.912,231.45 L 729.627,231.45 L 729.63,239.442 L 742.3,239.442 z
M 710.373,231.45 L 704.088,231.45 L 704.088,228.55 L 710.374,228.55 L 710.396,161.45 L 704.088,161.45
 L 704.088,158.55 L 710.397,158.55 L 710.415,101.45 L 694.142,101.45 L 694.142,98.55 L 710.416,98.55
 L 710.419,90 L 691.132,90 L 691.132,-30 L 710.429,-30 L 710.409,-98.55 L 694.142,-98.55
 L 694.142,-101.45 L 710.409,-101.45 L 710.393,-158.55 L 704.088,-158.55 L 704.088,-161.45 L 710.392,-161.45
 L 710.373,-228.55 L 704.088,-228.55 L 704.088,-231.45 L 710.372,-231.45 L 710.37,-238.366 L 698.548,-238.366
 L 698.471,-228.228 L 698.172,-221.734 L 697.552,-212.453 L 696.513,-193.95 L 695.714,-182.483 L 694.562,-171.551
 L 693.133,-161.092 L 691.504,-151.045 L 689.752,-141.349 L 687.953,-131.941 L 684.523,-113.747 L 682.05,-98.791
 L 680.049,-84.6006 L 678.479,-70.9502 L 677.298,-57.6172 L 676.463,-44.374 L 675.931,-30.998 L 675.659,-17.2617
 L 675.606,-2.94043 L 675.692,0.426758 L 675.891,2.37012 L 676.438,4.71875 L 676.557,6.44043 L 676.455,8.34473
 L 676.503,9.28809 L 676.673,10.1562 L 676.853,11.0547 L 676.931,12.0947 L 676.803,13.1797 L 676.532,14.2109
 L 676.263,15.2891 L 676.139,16.5156 L 676.263,17.8594 L 676.548,19.2471 L 676.854,20.7217 L 677.04,22.3262
 L 676.989,23.7441 L 676.78,24.8887 L 676.56,26.1387 L 676.472,27.8799 L 676.681,30.2402 L 677.115,32.9346
 L 677.576,35.7314 L 677.861,38.3955 L 677.816,40.6846 L 677.563,42.6904 L 677.31,44.6797 L 677.266,46.9199
 L 677.671,49.7646 L 678.386,53.1074 L 679.044,56.5225 L 679.239,58.124 L 679.284,59.584 L 679.171,65.085
 L 679.229,67.8242 L 679.42,70.5342 L 679.792,73.2422 L 680.311,75.9951 L 681.464,81.6855 L 682.354,88.0547
 L 682.849,94.1504 L 683.502,103.578 L 684.049,107.752 L 684.969,112.933 L 686.935,122.832 L 689.977,137.963
 L 692.386,152.219 L 694.234,165.542 L 695.6,177.88 L 696.554,189.179 L 697.172,199.383 L 697.529,208.438
 L 697.699,216.292 L 697.738,229.193 L 697.7,239.442 L 710.37,239.442 z
M 628.868,-38 L 624.826,-38 L 624.826,-92 L 638.908,-92 L 637.95,-98.791 L 635.477,-113.747
 L 632.047,-131.941 L 630.248,-141.349 L 628.496,-151.045 L 626.867,-161.092 L 625.438,-171.551 L 624.286,-182.483
 L 623.487,-193.95 L 622.448,-212.453 L 621.828,-221.734 L 621.529,-228.228 L 621.452,-238.366 L 609.63,-238.366
 L 609.628,-231.45 L 616,-231.45 L 616,-228.55 L 609.627,-228.55 L 609.608,-161.45 L 616,-161.45
 L 616,-158.55 L 609.607,-158.55 L 609.591,-101.45 L 626,-101.45 L 626,-98.55 L 609.591,-98.55
 L 609.571,-30 L 628.868,-30 z
M 590.373,231.45 L 584,231.45 L 584,228.55 L 590.374,228.55 L 590.396,161.45 L 584,161.45
 L 584,158.55 L 590.397,158.55 L 590.415,101.45 L 574,101.45 L 574,98.55 L 590.416,98.55
 L 590.419,90 L 571.132,90 L 571.132,-30 L 590.429,-30 L 590.409,-98.55 L 574,-98.55
 L 574,-101.45 L 590.409,-101.45 L 590.393,-158.55 L 584,-158.55 L 584,-161.45 L 590.392,-161.45
 L 590.373,-228.55 L 584,-228.55 L 584,-231.45 L 590.372,-231.45 L 590.37,-238.366 L 578.548,-238.366
 L 578.471,-228.228 L 578.172,-221.734 L 577.552,-212.453 L 576.513,-193.95 L 575.714,-182.483 L 574.562,-171.551
 L 573.133,-161.092 L 571.504,-151.045 L 569.752,-141.349 L 567.953,-131.941 L 564.523,-113.747 L 562.05,-98.791
 L 560.049,-84.6006 L 558.479,-70.9502 L 557.298,-57.6172 L 556.463,-44.374 L 555.931,-30.998 L 555.659,-17.2617
 L 555.606,-2.94043 L 555.692,0.426758 L 555.891,2.37012 L 556.438,4.71875 L 556.557,6.44043 L 556.455,8.34473
 L 556.503,9.28809 L 556.673,10.1562 L 556.853,11.0547 L 556.931,12.0947 L 556.803,13.1797 L 556.532,14.2109
 L 556.263,15.2891 L 556.139,16.5156 L 556.263,17.8594 L 556.548,19.2471 L 556.854,20.7217 L 557.04,22.3262
 L 556.989,23.7441 L 556.78,24.8887 L 556.56,26.1387 L 556.472,27.8799 L 556.681,30.2402 L 557.115,32.9346
 L 557.576,35.7314 L 557.861,38.3955 L 557.816,40.6846 L 557.563,42.6904 L 557.31,44.6797 L 557.266,46.9199
 L 557.671,49.7646 L 558.386,53.1074 L 559.044,56.5225 L 559.239,58.124 L 559.284,59.584 L 559.171,65.085
 L 559.229,67.8242 L 559.42,70.5342 L 559.792,73.2422 L 560.311,75.9951 L 561.464,81.6855 L 562.354,88.0547
 L 562.849,94.1504 L 563.502,103.578 L 564.049,107.752 L 564.969,112.933 L 566.935,122.832 L 569.977,137.963
 L 572.386,152.219 L 574.234,165.542 L 575.6,177.88 L 576.554,189.179 L 577.172,199.383 L 577.529,208.438
 L 577.699,216.292 L 577.738,229.193 L 577.7,239.442 L 590.37,239.442 z
M 505,-38 L 501.5,-38 L 501.5,-92 L 518.908,-92 L 517.95,-98.791 L 515.477,-113.747
 L 512.047,-131.941 L 510.248,-141.349 L 508.496,-151.045 L 506.867,-161.092 L 505.438,-171.551 L 504.286,-182.483
 L 503.487,-193.95 L 502.448,-212.453 L 501.828,-221.734 L 501.529,-228.228 L 501.452,-238.366 L 489.63,-238.366
 L 489.628,-231.45 L 495.912,-231.45 L 495.912,-228.55 L 489.627,-228.55 L 489.608,-161.45 L 495.912,-161.45
 L 495.912,-158.55 L 489.607,-158.55 L 489.591,-101.45 L 505.858,-101.45 L 505.858,-98.55 L 489.591,-98.55
 L 489.571,-30 L 505,-30 z
M 470.373,231.45 L 464.088,231.45 L 464.088,228.55 L 470.374,228.55 L 470.396,161.45 L 464.088,161.45
 L 464.088,158.55 L 470.397,158.55 L 470.415,101.45 L 454.142,101.45 L 454.142,98.55 L 470.416,98.55
 L 470.419,90 L 455,90 L 455,-30 L 470.429,-30 L 470.409,-98.55 L 454.142,-98.55
 L 454.142,-101.45 L 470.409,-101.45 L 470.393,-158.55 L 464.088,-158.55 L 464.088,-161.45 L 470.392,-161.45
 L 470.373,-228.55 L 464.088,-228.55 L 464.088,-231.45 L 470.372,-231.45 L 470.37,-238.366 L 458.548,-238.366
 L 458.471,-228.228 L 458.172,-221.734 L 457.552,-212.453 L 456.513,-193.95 L 455.714,-182.483 L 454.562,-171.551
 L 453.133,-161.092 L 451.504,-151.045 L 449.752,-141.349 L 447.953,-131.941 L 444.523,-113.747 L 442.05,-98.791
 L 440.049,-84.6006 L 438.479,-70.9502 L 437.298,-57.6172 L 436.463,-44.374 L 435.931,-30.998 L 435.659,-17.2617
 L 435.606,-2.94043 L 435.692,0.426758 L 435.891,2.37012 L 436.438,4.71875 L 436.557,6.44043 L 436.455,8.34473
 L 436.503,9.28809 L 436.673,10.1562 L 436.853,11.0547 L 436.931,12.0947 L 436.803,13.1797 L 436.532,14.2109
 L 436.263,15.2891 L 436.139,16.5156 L 436.263,17.8594 L 436.548,19.2471 L 436.854,20.7217 L 437.04,22.3262
 L 436.989,23.7441 L 436.78,24.8887 L 436.56,26.1387 L 436.472,27.8799 L 436.681,30.2402 L 437.115,32.9346
 L 437.576,35.7314 L 437.861,38.3955 L 437.816,40.6846 L 437.563,42.6904 L 437.31,44.6797 L 437.266,46.9199
 L 437.671,49.7646 L 438.386,53.1074 L 439.044,56.5225 L 439.239,58.124 L 439.284,59.584 L 439.171,65.085
 L 439.229,67.8242 L 439.42,70.5342 L 439.792,73.2422 L 440.311,75.9951 L 441.464,81.6855 L 442.354,88.0547
 L 442.849,94.1504 L 443.502,103.578 L 444.049,107.752 L 444.969,112.933 L 446.935,122.832 L 449.977,137.963
 L 452.386,152.219 L 454.234,165.542 L 455.6,177.88 L 456.554,189.179 L 457.172,199.383 L 457.529,208.438
 L 457.699,216.292 L 457.738,229.193 L 457.7,239.442 L 470.37,239.442 z
M 388.868,-38 L 384.826,-38 L 384.826,-92 L 398.908,-92 L 397.95,-98.791 L 395.477,-113.747
 L 392.047,-131.941 L 390.248,-141.349 L 388.496,-151.045 L 386.867,-161.092 L 385.438,-171.551 L 384.286,-182.483
 L 383.487,-193.95 L 382.448,-212.453 L 381.828,-221.734 L 381.529,-228.228 L 381.452,-238.366 L 369.63,-238.366
 L 369.628,-231.45 L 376,-231.45 L 376,-228.55 L 369.627,-228.55 L 369.608,-161.45 L 376,-161.45
 L 376,-158.55 L 369.607,-158.55 L 369.591,-101.45 L 386,-101.45 L 386,-98.55 L 369.591,-98.55
 L 369.571,-30 L 388.868,-30 z
M 350.373,231.45 L 344,231.45 L 344,228.55 L 350.374,228.55 L 350.396,161.45 L 344,161.45
 L 344,158.55 L 350.397,158.55 L 350.415,101.45 L 334,101.45 L 334,98.55 L 350.416,98.55
 L 350.419,90 L 331.132,90 L 331.132,-30 L 350.429,-30 L 350.409,-98.55 L 334,-98.55
 L 334,-101.45 L 350.409,-101.45 L 350.393,-158.55 L 344,-158.55 L 344,-161.45 L 350.392,-161.45
 L 350.373,-228.55 L 344,-228.55 L 344,-231.45 L 350.372,-231.45 L 350.37,-238.366 L 338.548,-238.366
 L 338.471,-228.228 L 338.172,-221.734 L 337.552,-212.453 L 336.513,-193.95 L 335.714,-182.483 L 334.562,-171.551
 L 333.133,-161.092 L 331.504,-151.045 L 329.752,-141.349 L 327.953,-131.941 L 324.523,-113.747 L 322.05,-98.791
 L 320.049,-84.6006 L 318.479,-70.9502 L 317.298,-57.6172 L 316.463,-44.374 L 315.931,-30.998 L 315.659,-17.2617
 L 315.606,-2.94043 L 315.692,0.426758 L 315.891,2.37012 L 316.438,4.71875 L 316.557,6.44043 L 316.455,8.34473
 L 316.503,9.28809 L 316.673,10.1562 L 316.853,11.0547 L 316.931,12.0947 L 316.803,13.1797 L 316.532,14.2109
 L 316.263,15.2891 L 316.139,16.5156 L 316.263,17.8594 L 316.548,19.2471 L 316.854,20.7217 L 317.04,22.3262
 L 316.989,23.7441 L 316.78,24.8887 L 316.56,26.1387 L 316.472,27.8799 L 316.681,30.2402 L 317.115,32.9346
 L 317.576,35.7314 L 317.861,38.3955 L 317.816,40.6846 L 317.563,42.6904 L 317.31,44.6797 L 317.266,46.9199
 L 317.671,49.7646 L 318.386,53.1074 L 319.044,56.5225 L 319.239,58.124 L 319.284,59.584 L 319.171,65.085
 L 319.229,67.8242 L 319.42,70.5342 L 319.792,73.2422 L 320.311,75.9951 L 321.464,81.6855 L 322.354,88.0547
 L 322.849,94.1504 L 323.502,103.578 L 324.049,107.752 L 324.969,112.933 L 326.935,122.832 L 329.977,137.963
 L 332.386,152.219 L 334.234,165.542 L 335.6,177.88 L 336.554,189.179 L 337.172,199.383 L 337.529,208.438
 L 337.699,216.292 L 337.738,229.193 L 337.7,239.442 L 350.37,239.442 z
M 262.262,229.193 L 262.301,216.292 L 262.471,208.438 L 262.828,199.383 L 263.446,189.179 L 264.4,177.88
 L 265.766,165.542 L 267.614,152.219 L 270.023,137.963 L 273.065,122.832 L 275.031,112.933 L 275.951,107.752
 L 276.498,103.578 L 277.151,94.1504 L 277.646,88.0547 L 278.536,81.6855 L 279.689,75.9951 L 280.208,73.2422
 L 280.58,70.5342 L 280.771,67.8242 L 280.829,65.085 L 280.716,59.584 L 280.761,58.124 L 280.956,56.5225
 L 281.614,53.1074 L 282.329,49.7646 L 282.734,46.9199 L 282.69,44.6797 L 282.437,42.6904 L 282.184,40.6846
 L 282.139,38.3955 L 282.424,35.7314 L 282.885,32.9346 L 283.319,30.2402 L 283.528,27.8799 L 283.44,26.1387
 L 283.22,24.8887 L 283.011,23.7441 L 282.96,22.3262 L 283.145,20.7217 L 283.452,19.2471 L 283.737,17.8594
 L 283.861,16.5156 L 283.737,15.2891 L 283.468,14.2109 L 283.197,13.1797 L 283.069,12.0947 L 283.147,11.0547
 L 283.327,10.1562 L 283.497,9.28809 L 283.545,8.34473 L 283.443,6.44043 L 283.562,4.71875 L 284.109,2.37012
 L 284.308,0.426758 L 284.394,-2.94043 L 284.341,-17.2617 L 284.069,-30.998 L 283.537,-44.374 L 282.702,-57.6172
 L 281.52,-70.9502 L 279.951,-84.6006 L 277.95,-98.791 L 275.477,-113.747 L 272.047,-131.941 L 270.248,-141.349
 L 268.496,-151.045 L 266.867,-161.092 L 265.438,-171.551 L 264.286,-182.483 L 263.487,-193.95 L 262.448,-212.453
 L 261.828,-221.734 L 261.529,-228.228 L 261.452,-238.366 L 249.63,-238.366 L 249.628,-231.45 L 255.912,-231.45
 L 255.912,-228.55 L 249.627,-228.55 L 249.608,-161.45 L 255.912,-161.45 L 255.912,-158.55 L 249.607,-158.55
 L 249.591,-101.45 L 265.858,-101.45 L 265.858,-98.55 L 249.591,-98.55 L 249.571,-30 L 268.868,-30
 L 268.868,90 L 249.581,90 L 249.584,98.55 L 265.858,98.55 L 265.858,101.45 L 249.585,101.45
 L 249.603,158.55 L 255.912,158.55 L 255.912,161.45 L 249.604,161.45 L 249.626,228.55 L 255.912,228.55
 L 255.912,231.45 L 249.627,231.45 L 249.63,239.442 L 262.3,239.442 z
M 230.373,231.45 L 224.088,231.45 L 224.088,228.55 L 230.374,228.55 L 230.396,161.45 L 224.088,161.45
 L 224.088,158.55 L 230.397,158.55 L 230.415,101.45 L 214.142,101.45 L 214.142,98.55 L 230.416,98.55
 L 230.419,90 L 211.132,90 L 211.132,-30 L 230.429,-30 L 230.409,-98.55 L 214.142,-98.55
 L 214.142,-101.45 L 230.409,-101.45 L 230.393,-158.55 L 224.088,-158.55 L 224.088,-161.45 L 230.392,-161.45
 L 230.373,-228.55 L 224.088,-228.55 L 224.088,-231.45 L 230.372,-231.45 L 230.37,-238.366 L 218.548,-238.366
 L 218.471,-228.228 L 218.172,-221.734 L 217.552,-212.453 L 216.513,-193.95 L 215.714,-182.483 L 214.562,-171.551
 L 213.133,-161.092 L 211.504,-151.045 L 209.752,-141.349 L 207.953,-131.941 L 204.523,-113.747 L 202.05,-98.791
 L 200.049,-84.6006 L 198.479,-70.9502 L 197.298,-57.6172 L 196.463,-44.374 L 195.931,-30.998 L 195.659,-17.2617
 L 195.606,-2.94043 L 195.692,0.426758 L 195.891,2.37012 L 196.438,4.71875 L 196.557,6.44043 L 196.455,8.34473
 L 196.503,9.28809 L 196.673,10.1562 L 196.853,11.0547 L 196.931,12.0947 L 196.803,13.1797 L 196.532,14.2109
 L 196.263,15.2891 L 196.139,16.5156 L 196.263,17.8594 L 196.548,19.2471 L 196.854,20.7217 L 197.04,22.3262
 L 196.989,23.7441 L 196.78,24.8887 L 196.56,26.1387 L 196.472,27.8799 L 196.681,30.2402 L 197.115,32.9346
 L 197.576,35.7314 L 197.861,38.3955 L 197.816,40.6846 L 197.563,42.6904 L 197.31,44.6797 L 197.266,46.9199
 L 197.671,49.7646 L 198.386,53.1074 L 199.044,56.5225 L 199.239,58.124 L 199.284,59.584 L 199.171,65.085
 L 199.229,67.8242 L 199.42,70.5342 L 199.792,73.2422 L 200.311,75.9951 L 201.464,81.6855 L 202.354,88.0547
 L 202.849,94.1504 L 203.502,103.578 L 204.049,107.752 L 204.969,112.933 L 206.935,122.832 L 209.977,137.963
 L 212.386,152.219 L 214.234,165.542 L 215.6,177.88 L 216.554,189.179 L 217.172,199.383 L 217.529,208.438
 L 217.699,216.292 L 217.738,229.193 L 217.7,239.442 L 230.37,239.442 z
M -141.45,25.8576 L -138.55,25.8576 L -138.55,33.8137 L -136.446,33.8137 L -129.493,32.3359 L -124.332,30.0379
 L -128.332,23.1097 L -127,22.5166 L -125.82,21.6597 L -121.82,28.5879 L -117.25,25.2669 L -112.493,19.9847
 L -111.441,18.1626 L -118.332,14.1845 L -116.882,11.673 L -109.991,15.6511 L -108.939,13.829 L -106.743,7.06898
 L -106.152,1.45 L -114.152,1.45 L -114,-0 L -114.152,-1.45 L -106.152,-1.45 L -106.743,-7.06898
 L -108.939,-13.829 L -109.991,-15.6511 L -116.882,-11.673 L -118.332,-14.1845 L -111.441,-18.1626 L -112.493,-19.9847
 L -117.25,-25.2669 L -121.82,-28.5879 L -125.82,-21.6597 L -127,-22.5166 L -128.332,-23.1097 L -124.332,-30.0379
 L -129.493,-32.3359 L -136.446,-33.8137 L -138.55,-33.8137 L -138.55,-25.8576 L -141.45,-25.8576 L -141.45,-33.8137
 L -143.554,-33.8137 L -150.507,-32.3359 L -155.668,-30.0379 L -151.668,-23.1097 L -153,-22.5166 L -154.18,-21.6597
 L -158.18,-28.5879 L -162.75,-25.2669 L -167.507,-19.9847 L -168.559,-18.1626 L -161.668,-14.1845 L -163.118,-11.673
 L -170.009,-15.6511 L -171.061,-13.829 L -173.257,-7.06898 L -173.848,-1.45 L -165.848,-1.45 L -166,-0
 L -165.848,1.45 L -173.848,1.45 L -173.257,7.06898 L -171.061,13.829 L -170.009,15.6511 L -163.118,11.673
 L -161.668,14.1845 L -168.559,18.1626 L -167.507,19.9847 L -162.75,25.2669 L -158.18,28.5879 L -154.18,21.6597
 L -153,22.5166 L -151.668,23.1097 L -155.668,30.0379 L -150.507,32.3359 L -143.554,33.8137 L -141.45,33.8137
 z
M -71.45,15.9123 L -68.55,15.9123 L -68.55,23.8685 L -67.4913,23.8685 L -62.5836,22.8253 L -59.3319,21.3776
 L -63.3319,14.4494 L -62,13.8564 L -60.8204,12.9994 L -56.8204,19.9276 L -53.9409,17.8355 L -50.5836,14.1068
 L -50.0542,13.19 L -56.9445,9.2119 L -55.4945,6.70042 L -48.6042,10.6785 L -48.0749,9.76167 L -46.5244,4.98987
 L -46.1524,1.45 L -54.1524,1.45 L -54,-0 L -54.1524,-1.45 L -46.1524,-1.45 L -46.5244,-4.98987
 L -48.0749,-9.76167 L -48.6042,-10.6785 L -55.4945,-6.70042 L -56.9445,-9.2119 L -50.0542,-13.19 L -50.5836,-14.1068
 L -53.9409,-17.8355 L -56.8204,-19.9276 L -60.8204,-12.9994 L -62,-13.8564 L -63.3319,-14.4494 L -59.3319,-21.3776
 L -62.5836,-22.8253 L -67.4913,-23.8685 L -68.55,-23.8685 L -68.55,-15.9123 L -71.45,-15.9123 L -71.45,-23.8685
 L -72.5087,-23.8685 L -77.4164,-22.8253 L -80.6681,-21.3776 L -76.6681,-14.4494 L -78,-13.8564 L -79.1795,-12.9994
 L -83.1795,-19.9276 L -86.0591,-17.8355 L -89.4164,-14.1068 L -89.9457,-13.19 L -83.0555,-9.2119 L -84.5055,-6.70042
 L -91.3957,-10.6785 L -91.9251,-9.76167 L -93.4755,-4.98987 L -93.8476,-1.45 L -85.8476,-1.45 L -86,-0
 L -85.8476,1.45 L -93.8476,1.45 L -93.4755,4.98987 L -91.9251,9.76167 L -91.3957,10.6785 L -84.5055,6.70042
 L -83.0555,9.2119 L -89.9457,13.19 L -89.4164,14.1068 L -86.0591,17.8355 L -83.1795,19.9276 L -79.1795,12.9994
 L -78,13.8564 L -76.6681,14.4494 L -80.6681,21.3776 L -77.4164,22.8253 L -72.5087,23.8685 L -71.45,23.8685
 z
M -1.45,15.9123 L 1.45,15.9123 L 1.45,19.8904 L 2.09056,19.8904 L 6.18033,19.0211 L 8.66806,17.9135
 L 6.66806,14.4494 L 8,13.8564 L 9.17953,12.9994 L 11.1795,16.4635 L 13.3826,14.8629 L 16.1803,11.7557
 L 16.5006,11.2009 L 13.0555,9.2119 L 14.5055,6.70042 L 17.9506,8.68947 L 18.2709,8.13472 L 19.5629,4.15823
 L 19.8476,1.45 L 15.8476,1.45 L 16,-0 L 15.8476,-1.45 L 19.8476,-1.45 L 19.5629,-4.15823
 L 18.2709,-8.13472 L 17.9506,-8.68947 L 14.5055,-6.70042 L 13.0555,-9.2119 L 16.5006,-11.2009 L 16.1803,-11.7557
 L 13.3826,-14.8629 L 11.1795,-16.4635 L 9.17953,-12.9994 L 8,-13.8564 L 6.66806,-14.4494 L 8.66806,-17.9135
 L 6.18033,-19.0211 L 2.09056,-19.8904 L 1.45,-19.8904 L 1.45,-15.9123 L -1.45,-15.9123 L -1.45,-19.8904
 L -2.09056,-19.8904 L -6.18033,-19.0211 L -8.66806,-17.9135 L -6.66806,-14.4494 L -8,-13.8564 L -9.17953,-12.9994
 L -11.1795,-16.4635 L -13.3826,-14.8629 L -16.1803,-11.7557 L -16.5006,-11.2009 L -13.0555,-9.2119 L -14.5055,-6.70042
 L -17.9506,-8.68947 L -18.2709,-8.13472 L -19.5629,-4.15823 L -19.8476,-1.45 L -15.8476,-1.45 L -16,-0
 L -15.8476,1.45 L -19.8476,1.45 L -19.5629,4.15823 L -18.2709,8.13472 L -17.9506,8.68947 L -14.5055,6.70042
 L -13.0555,9.2119 L -16.5006,11.2009 L -16.1803,11.7557 L -13.3826,14.8629 L -11.1795,16.4635 L -9.17953,12.9994
 L -8,13.8564 L -6.66806,14.4494 L -8.66806,17.9135 L -6.18033,19.0211 L -2.09056,19.8904 L -1.45,19.8904
 z
M 622.262,229.193 L 622.301,216.292 L 622.471,208.438 L 622.828,199.383 L 623.446,189.179 L 624.4,177.88
 L 625.766,165.542 L 627.614,152.219 L 630.023,137.963 L 633.065,122.832 L 635.031,112.933 L 635.951,107.752
 L 636.498,103.578 L 637.151,94.1504 L 637.488,90 L 609.581,90 L 609.584,98.55 L 626,98.55
 L 626,101.45 L 609.585,101.45 L 609.603,158.55 L 616,158.55 L 616,161.45 L 609.604,161.45
 L 609.626,228.55 L 616,228.55 L 616,231.45 L 609.627,231.45 L 609.63,239.442 L 622.3,239.442
 z
M 502.262,229.193 L 502.301,216.292 L 502.471,208.438 L 502.828,199.383 L 503.446,189.179 L 504.4,177.88
 L 505.766,165.542 L 507.614,152.219 L 510.023,137.963 L 513.065,122.832 L 515.031,112.933 L 515.951,107.752
 L 516.498,103.578 L 517.151,94.1504 L 517.488,90 L 489.581,90 L 489.584,98.55 L 505.858,98.55
 L 505.858,101.45 L 489.585,101.45 L 489.603,158.55 L 495.912,158.55 L 495.912,161.45 L 489.604,161.45
 L 489.626,228.55 L 495.912,228.55 L 495.912,231.45 L 489.627,231.45 L 489.63,239.442 L 502.3,239.442
 z
M 382.262,229.193 L 382.301,216.292 L 382.471,208.438 L 382.828,199.383 L 383.446,189.179 L 384.4,177.88
 L 385.766,165.542 L 387.614,152.219 L 390.023,137.963 L 393.065,122.832 L 395.031,112.933 L 395.951,107.752
 L 396.498,103.578 L 397.151,94.1504 L 397.488,90 L 369.581,90 L 369.584,98.55 L 386,98.55
 L 386,101.45 L 369.585,101.45 L 369.603,158.55 L 376,158.55 L 376,161.45 L 369.604,161.45
 L 369.626,228.55 L 376,228.55 L 376,231.45 L 369.627,231.45 L 369.63,239.442 L 382.3,239.442
 z
" stroke="black" fill="lightgray" stroke-width="0.5"/>
</svg>
